<svg xmlns="http://www.w3.org/2000/svg" xml:space="preserve" style="enable-background:new 0 0 1115.7 400" viewBox="0 0 1115.7 400">
  <linearGradient id="a" x1="-214.177" x2="-50.946" y1="25.228" y2="-139.523" gradientTransform="translate(244 208)" gradientUnits="userSpaceOnUse">
    <stop offset="0" style="stop-color:#f02f9f"/>
    <stop offset="1" style="stop-color:#ffad00"/>
  </linearGradient>
  <path d="m0 203.7 123.9 72.8V0L0 203.7z" style="fill:url(#a)"/>
  <linearGradient id="b" x1="-58.84" x2="-58.84" y1="68.47" y2="-237.643" gradientTransform="translate(244 208)" gradientUnits="userSpaceOnUse">
    <stop offset="0" style="stop-color:#06ffff"/>
    <stop offset=".023" style="stop-color:#07f6fd"/>
    <stop offset=".148" style="stop-color:#0ac7f2"/>
    <stop offset=".278" style="stop-color:#0d9fe9"/>
    <stop offset=".41" style="stop-color:#0f7ee2"/>
    <stop offset=".546" style="stop-color:#1164dc"/>
    <stop offset=".686" style="stop-color:#1252d8"/>
    <stop offset=".833" style="stop-color:#1347d6"/>
    <stop offset="1" style="stop-color:#1344d5"/>
  </linearGradient>
  <path d="M123.2 0v276.5l123.9-72.8L123.2 0z" style="fill:url(#b)"/>
  <linearGradient id="c" x1="-244" x2="-120.06" y1="105.605" y2="105.605" gradientTransform="translate(244 208)" gradientUnits="userSpaceOnUse">
    <stop offset="0" style="stop-color:#06ffff"/>
    <stop offset=".108" style="stop-color:#07f5fd"/>
    <stop offset=".29" style="stop-color:#09daf7"/>
    <stop offset=".525" style="stop-color:#0cafed"/>
    <stop offset=".799" style="stop-color:#1074e0"/>
    <stop offset="1" style="stop-color:#1344d5"/>
  </linearGradient>
  <path d="M0 227.2 123.9 400V299.3L0 227.2z" style="fill:url(#c)"/>
  <linearGradient id="d" x1="-120.06" x2="4.032" y1="105.605" y2="105.605" gradientTransform="translate(244 208)" gradientUnits="userSpaceOnUse">
    <stop offset="0" style="stop-color:#f02f9f"/>
    <stop offset="1" style="stop-color:#ffad00"/>
  </linearGradient>
  <path d="M123.9 299.3V400l123.9-172.8-123.9 72.1z" style="fill:url(#d)"/>
  <path d="M810.9 263c25.3 0 41.6-14.7 41.6-33.7 0-13-7.8-16.4-14-19.6-3.9-1.9-8.1-3.8-12.2-5.7-7.7-3.4-14.4-6.8-14.4-11.5 0-5.4 6.3-8.9 15-8.9 10.1 0 19.9 3.9 26.7 10.2l3.8-20.8c-8.2-6-19.1-8.7-30.7-8.7-25.9 0-43.6 13.3-43.6 31.5 0 11.5 7.2 17.9 15.7 22 3.5 1.8 11.1 4.7 15 6.3 5.4 2.4 9.8 4.4 9.8 9.3 0 5.5-4.9 8.7-12.2 8.7-13.3 0-31.1-8.3-47.4-26.2 3.1 3.4 4.5 8.8 4.5 13.7 0 4.9-1.8 11.5-4 15.2 13.2 11.6 28.6 18.2 46.4 18.2zm-124.6-8.5 3.7-20.9c9.3 6.3 19.9 10.1 30.2 10.1s17.3-3.9 17.3-10.2c0-4.9-4.4-6.9-9.8-9.3-3.9-1.6-11.5-4.5-15-6.3-8.6-4.2-15.7-10.6-15.7-22 0-17.8 17.8-31.5 41.1-31.5s33.4 7.6 46.6 17.5c-2.1 3.4-3.8 8.4-3.8 13.6 0 5.2.8 8.6 3.8 13.3-12.2-13.7-25.7-25.2-43.8-25.2-8.7 0-15 3.5-15 8.9 0 4.7 6.7 8.1 14.2 11.5 4.3 1.9 8.3 3.8 12.2 5.7 6.3 3.3 14.1 6.7 14.1 19.6 0 20-18.5 33.7-48 33.7-12.4 0-24.9-2.4-32.1-8.5zm-325.5-57.2 4.2-23.9h-9.3l.4-2.4c7.3-3.1 12.7-8.2 16.9-17.4h3.3l-2.4 13.4h15.4l-1.1 6.4h-15.4l-4.1 22.8c-2 11-3 18 4.1 18 2.7 0 5.3-1 7.9-2.7l-1.3 7.2c-1.5.8-5.2 2.1-9.4 2.1-13.4.1-11.2-12.2-9.2-23.5zm41.3-49h7.8l-4.9 27.8h.4c4.9-6.5 11.4-10.8 19.8-10.8 10.2 0 15.9 6 13.2 21.5l-5.7 32.4h-7.8l5.2-29.7c1.8-10.3-.2-17.2-8.6-17.2-6.2 0-16.5 4-19.5 20.7l-4.6 26.2h-7.8l12.5-70.9zm45.7 51.2c0-18.7 11.2-34.2 29.5-34.2 13 0 20.5 7.8 17.7 23.6l-1.1 6.4h-38c-2 11.6 2.5 19.1 15.7 19.1 5.6 0 10.7-1.6 18.7-6.2l-1.2 7.2c-5 3.3-11.6 5.5-19.9 5.5-13.5 0-21.4-5.6-21.4-21.4zm39.6-10.6c1.8-10-1-17.1-11.6-17.1-9 0-16.8 5.1-18.9 17.1h30.5zm12.8 65.5 3.7-20.9c9.3 6.3 19.8 10 30.2 10 10.4 0 17.2-3.9 17.2-10.2 0-4.8-4.4-6.9-9.8-9.3-3.9-1.7-11.5-4.6-15-6.3-8.5-4.3-15.7-10.6-15.7-22 0-17.8 17-31.5 43.5-31.5 11.7 0 22.6 2.6 30.7 8.7l-3.7 20.7c-6.9-6.3-16.7-10.2-26.7-10.2-8.7 0-15 3.5-15 8.9 0 4.6 6.7 8 14.3 11.5 4.3 1.8 8.3 3.7 12.2 5.7 6.3 3.2 14.1 6.7 14.1 19.6 0 20-18.5 33.7-48 33.7-12.3.1-24.7-2.3-32-8.4zm91.4-30.6c0-33.7 21.5-59.6 56.5-59.6 25.6 0 40.7 13.7 35 45l-2 11.9h-62c-2.2 13.2 4.4 21.8 23.9 21.8 10 0 20.6-2.2 33.2-8.3l-3.7 20.4c-8.5 4.4-21.1 8-37.2 8-28.2-.1-43.7-10.5-43.7-39.2zm68.3-19.8c2.2-12.2-1.5-20.6-14.8-20.6-11.1 0-20.6 5.7-23.1 20.6h37.9zm232.6-35.5c4.4 0 9.3-.6 14.3-1.5l-16.5 93h-27.8l16.3-93c4.1.7 8.5 1.5 13.7 1.5zm5.6-31.5c9.4 0 13.2 3 13.2 8.3 0 9.6-5.9 14.4-17 14.4-8.5 0-13-2.4-13-8.5-.1-9.4 5.6-14.2 16.8-14.2zm14.6 87.4c0-33.9 21.7-60.2 58.5-60.2 23.3 0 38.5 10.4 38.5 38.7 0 33.9-21.7 60-58.5 60-23.7 0-38.5-10.4-38.5-38.5zm42.6 18.3c16.9 0 27-18.5 27-37.6 0-13-4.6-20.6-15.4-20.6-16.9 0-26.8 18.5-26.8 37.8 0 12.8 4.5 20.4 15.2 20.4zm76.9-75.4h27.2l-2.8 16.1h.9c8.9-11.5 20.2-19.3 35-19.3 16.9 0 26.5 9.8 22 35l-10.7 60.7H1076l8.9-50.7c2.2-12.2-.4-20.6-10.6-20.6-8.3 0-19.1 5.4-22.4 24.5l-8.3 46.9h-27.8l16.4-92.6z" style="fill:#f2622e"/>
</svg>