<?xml version="1.0" encoding="utf-8"?>
<!-- Generator: Adobe Illustrator 27.9.0, SVG Export Plug-In . SVG Version: 6.00 Build 0)  -->
<svg version="1.1" id="Layer_1" xmlns="http://www.w3.org/2000/svg" xmlns:xlink="http://www.w3.org/1999/xlink" x="0px" y="0px"
	 viewBox="0 0 1115.7 400" style="enable-background:new 0 0 1115.7 400;" xml:space="preserve">
<style type="text/css">
	.st0{fill:url(#SVGID_1_);}
	.st1{fill:url(#SVGID_00000095336796154194418280000010296880941158892209_);}
	.st2{fill:url(#SVGID_00000031168675713854519950000015479646216455351217_);}
	.st3{fill:url(#SVGID_00000065060417047750274630000015949402258690549639_);}
	.st4{fill:#F9C3B7;}
</style>
<g>
	
		<linearGradient id="SVGID_1_" gradientUnits="userSpaceOnUse" x1="-214.1765" y1="25.2283" x2="-50.9455" y2="-139.5234" gradientTransform="matrix(1 0 0 1 244 208)">
		<stop  offset="0" style="stop-color:#F02F9F"/>
		<stop  offset="1" style="stop-color:#FFAD00"/>
	</linearGradient>
	<path class="st0" d="M0,203.7l123.9,72.8V147.8V0L0,203.7z"/>
	
		<linearGradient id="SVGID_00000041287705947210530060000002272043278020252570_" gradientUnits="userSpaceOnUse" x1="-58.84" y1="68.47" x2="-58.84" y2="-237.6434" gradientTransform="matrix(1 0 0 1 244 208)">
		<stop  offset="0" style="stop-color:#06FFFF"/>
		<stop  offset="2.260000e-02" style="stop-color:#07F6FD"/>
		<stop  offset="0.1481" style="stop-color:#0AC7F2"/>
		<stop  offset="0.278" style="stop-color:#0D9FE9"/>
		<stop  offset="0.4102" style="stop-color:#0F7EE2"/>
		<stop  offset="0.5457" style="stop-color:#1164DC"/>
		<stop  offset="0.6857" style="stop-color:#1252D8"/>
		<stop  offset="0.8331" style="stop-color:#1347D6"/>
		<stop  offset="1" style="stop-color:#1344D5"/>
	</linearGradient>
	<path style="fill:url(#SVGID_00000041287705947210530060000002272043278020252570_);" d="M123.2,0v147.8v128.7l123.9-72.8L123.2,0z
		"/>
	
		<linearGradient id="SVGID_00000127022912076229330610000009905710796695309728_" gradientUnits="userSpaceOnUse" x1="-244" y1="105.605" x2="-120.06" y2="105.605" gradientTransform="matrix(1 0 0 1 244 208)">
		<stop  offset="0" style="stop-color:#06FFFF"/>
		<stop  offset="0.1076" style="stop-color:#07F5FD"/>
		<stop  offset="0.2899" style="stop-color:#09DAF7"/>
		<stop  offset="0.5246" style="stop-color:#0CAFED"/>
		<stop  offset="0.7995" style="stop-color:#1074E0"/>
		<stop  offset="1" style="stop-color:#1344D5"/>
	</linearGradient>
	<path style="fill:url(#SVGID_00000127022912076229330610000009905710796695309728_);" d="M0,227.2L123.9,400V299.3L0,227.2z"/>
	
		<linearGradient id="SVGID_00000147919997325313773190000013866667274605538212_" gradientUnits="userSpaceOnUse" x1="-120.06" y1="105.605" x2="4.0323" y2="105.605" gradientTransform="matrix(1 0 0 1 244 208)">
		<stop  offset="0" style="stop-color:#F02F9F"/>
		<stop  offset="1" style="stop-color:#FFAD00"/>
	</linearGradient>
	<path style="fill:url(#SVGID_00000147919997325313773190000013866667274605538212_);" d="M123.9,299.3V400l123.9-172.8L123.9,299.3
		z"/>
</g>
<g id="Layer_1-2">
	<path class="st4" d="M810.9,263c25.3,0,41.6-14.7,41.6-33.7c0-13-7.8-16.4-14-19.6c-3.9-1.9-8.1-3.8-12.2-5.7
		c-7.7-3.4-14.4-6.8-14.4-11.5c0-5.4,6.3-8.9,15-8.9c10.1,0,19.9,3.9,26.7,10.2l3.8-20.8c-8.2-6-19.1-8.7-30.7-8.7
		c-25.9,0-43.6,13.3-43.6,31.5c0,11.5,7.2,17.9,15.7,22c3.5,1.8,11.1,4.7,15,6.3c5.4,2.4,9.8,4.4,9.8,9.3c0,5.5-4.9,8.7-12.2,8.7
		c-13.3,0-31.1-8.3-47.4-26.2c3.1,3.4,4.5,8.8,4.5,13.7c0,4.9-1.8,11.5-4,15.2C777.7,256.4,793.1,263,810.9,263L810.9,263z
		 M686.3,254.5l3.7-20.9c9.3,6.3,19.9,10.1,30.2,10.1s17.3-3.9,17.3-10.2c0-4.9-4.4-6.9-9.8-9.3c-3.9-1.6-11.5-4.5-15-6.3
		c-8.6-4.2-15.7-10.6-15.7-22c0-17.8,17.8-31.5,41.1-31.5c23.3,0,33.4,7.6,46.6,17.5c-2.1,3.4-3.8,8.4-3.8,13.6
		c0,5.2,0.8,8.6,3.8,13.3c-12.2-13.7-25.7-25.2-43.8-25.2c-8.7,0-15,3.5-15,8.9c0,4.7,6.7,8.1,14.2,11.5c4.3,1.9,8.3,3.8,12.2,5.7
		c6.3,3.3,14.1,6.7,14.1,19.6c0,20-18.5,33.7-48,33.7C706,263,693.5,260.6,686.3,254.5L686.3,254.5z"/>
	<path class="st4" d="M360.8,197.3l4.2-23.9h-9.3l0.4-2.4c7.3-3.1,12.7-8.2,16.9-17.4h3.3l-2.4,13.4h15.4l-1.1,6.4h-15.4l-4.1,22.8
		c-2,11-3,18,4.1,18c2.7,0,5.3-1,7.9-2.7l-1.3,7.2c-1.5,0.8-5.2,2.1-9.4,2.1C356.6,220.9,358.8,208.6,360.8,197.3z"/>
	<path class="st4" d="M402.1,148.3h7.8l-4.9,27.8h0.4c4.9-6.5,11.4-10.8,19.8-10.8c10.2,0,15.9,6,13.2,21.5l-5.7,32.4h-7.8l5.2-29.7
		c1.8-10.3-0.2-17.2-8.6-17.2c-6.2,0-16.5,4-19.5,20.7l-4.6,26.2h-7.8L402.1,148.3L402.1,148.3z"/>
	<path class="st4" d="M447.8,199.5c0-18.7,11.2-34.2,29.5-34.2c13,0,20.5,7.8,17.7,23.6l-1.1,6.4h-38c-2,11.6,2.5,19.1,15.7,19.1
		c5.6,0,10.7-1.6,18.7-6.2l-1.2,7.2c-5,3.3-11.6,5.5-19.9,5.5C455.7,220.9,447.8,215.3,447.8,199.5L447.8,199.5z M487.4,188.9
		c1.8-10-1-17.1-11.6-17.1c-9,0-16.8,5.1-18.9,17.1H487.4z"/>
	<path class="st4" d="M500.2,254.4l3.7-20.9c9.3,6.3,19.8,10,30.2,10c10.4,0,17.2-3.9,17.2-10.2c0-4.8-4.4-6.9-9.8-9.3
		c-3.9-1.7-11.5-4.6-15-6.3c-8.5-4.3-15.7-10.6-15.7-22c0-17.8,17-31.5,43.5-31.5c11.7,0,22.6,2.6,30.7,8.7l-3.7,20.7
		c-6.9-6.3-16.7-10.2-26.7-10.2c-8.7,0-15,3.5-15,8.9c0,4.6,6.7,8,14.3,11.5c4.3,1.8,8.3,3.7,12.2,5.7c6.3,3.2,14.1,6.7,14.1,19.6
		c0,20-18.5,33.7-48,33.7C519.9,262.9,507.5,260.5,500.2,254.4L500.2,254.4z"/>
	<path class="st4" d="M591.6,223.8c0-33.7,21.5-59.6,56.5-59.6c25.6,0,40.7,13.7,35,45l-2,11.9h-62c-2.2,13.2,4.4,21.8,23.9,21.8
		c10,0,20.6-2.2,33.2-8.3l-3.7,20.4c-8.5,4.4-21.1,8-37.2,8C607.1,262.9,591.6,252.5,591.6,223.8L591.6,223.8z M659.9,204
		c2.2-12.2-1.5-20.6-14.8-20.6c-11.1,0-20.6,5.7-23.1,20.6H659.9L659.9,204z"/>
	<path class="st4" d="M892.5,168.5c4.4,0,9.3-0.6,14.3-1.5l-16.5,93h-27.8l16.3-93C882.9,167.7,887.3,168.5,892.5,168.5z M898.1,137
		c9.4,0,13.2,3,13.2,8.3c0,9.6-5.9,14.4-17,14.4c-8.5,0-13-2.4-13-8.5C881.2,141.8,886.9,137,898.1,137L898.1,137z"/>
	<path class="st4" d="M912.7,224.4c0-33.9,21.7-60.2,58.5-60.2c23.3,0,38.5,10.4,38.5,38.7c0,33.9-21.7,60-58.5,60
		C927.5,262.9,912.7,252.5,912.7,224.4L912.7,224.4z M955.3,242.7c16.9,0,27-18.5,27-37.6c0-13-4.6-20.6-15.4-20.6
		c-16.9,0-26.8,18.5-26.8,37.8C940.1,235.1,944.6,242.7,955.3,242.7z"/>
	<path class="st4" d="M1032.2,167.3h27.2l-2.8,16.1h0.9c8.9-11.5,20.2-19.3,35-19.3c16.9,0,26.5,9.8,22,35l-10.7,60.7h-27.8
		l8.9-50.7c2.2-12.2-0.4-20.6-10.6-20.6c-8.3,0-19.1,5.4-22.4,24.5l-8.3,46.9h-27.8L1032.2,167.3L1032.2,167.3z"/>
</g>
</svg>
