<svg xmlns="http://www.w3.org/2000/svg" xml:space="preserve" id="Layer_1" x="0" y="0" style="enable-background:new 0 0 610 695" version="1.1" viewBox="0 0 610 695">
  <style>
    .st1{fill:none;stroke:#fff;stroke-width:4;stroke-miterlimit:10}.st2{fill:#fff}.st3{fill:#034aa6}
  </style>
  <path d="M305 695C136.6 695 0 558.4 0 390v-85C0 136.6 136.6 0 305 0s305 136.6 305 305v85c0 168.4-136.6 305-305 305z" style="fill:#f2622e"/>
  <path d="M166 480h72.4" class="st1"/>
  <path d="m230.5 486.8 6.7-6.8-6.7-6.8h5.7l6.8 6.8-6.8 6.8z" class="st2"/>
  <path d="M353 480h72.4" class="st1"/>
  <path d="m417.5 486.8 6.7-6.8-6.7-6.8h5.7l6.8 6.8-6.8 6.8z" class="st2"/>
  <path d="M120 275v170.4" class="st1"/>
  <path d="m113.2 437.5 6.8 6.7 6.8-6.7v5.7L120 450l-6.8-6.8z" class="st2"/>
  <path d="M338 110h-70c-16.6 0-30-13.4-30-30s13.4-30 30-30h70c16.6 0 30 13.4 30 30s-13.4 30-30 30z" class="st3"/>
  <g id="Layer_1-2">
    <path d="M312.9 88.3c3.3 0 5.5-1.9 5.5-4.4 0-1.7-1-2.2-1.8-2.6-.5-.2-1.1-.5-1.6-.7-1-.4-1.9-.9-1.9-1.5 0-.7.8-1.2 2-1.2 1.3 0 2.6.5 3.5 1.3l.5-2.7c-1.1-.8-2.5-1.1-4-1.1-3.4 0-5.7 1.8-5.7 4.1 0 1.5.9 2.4 2.1 2.9l2 .8c.7.3 1.3.6 1.3 1.2 0 .7-.6 1.1-1.6 1.1-1.8 0-4.1-1.1-6.2-3.4.4.4.6 1.2.6 1.8s-.2 1.5-.5 2c1.4 1.5 3.5 2.4 5.8 2.4zm-16.4-1.1.5-2.8c1.2.8 2.6 1.3 4 1.3s2.3-.5 2.3-1.3c0-.6-.6-.9-1.3-1.2l-2-.8c-1.1-.5-2.1-1.4-2.1-2.9 0-2.3 2.3-4.1 5.4-4.1s4.4 1 6.1 2.3c-.3.4-.5 1.1-.5 1.8s.1 1.1.5 1.8c-1.6-1.8-3.4-3.3-5.8-3.3-1.1 0-2 .5-2 1.2 0 .6.9 1.1 1.9 1.5.6.2 1.1.5 1.6.7.8.4 1.9.9 1.9 2.6 0 2.6-2.4 4.4-6.3 4.4-1.6-.1-3.3-.4-4.2-1.2zM253.7 79.6l.5-3.1H253l.1-.3c1-.4 1.7-1.1 2.2-2.3h.4l-.3 1.8h2l-.2.8h-2l-.5 3c-.3 1.5-.4 2.4.5 2.4.4 0 .7-.1 1-.4l-.2.9c-.2.1-.7.3-1.2.3-1.7 0-1.4-1.6-1.1-3.1zM259.1 73.2h1l-.6 3.7h.1c.6-.8 1.5-1.4 2.6-1.4 1.3 0 2.1.8 1.7 2.8l-.8 4.3h-1l.7-3.9c.2-1.4 0-2.3-1.1-2.3-.8 0-2.2.5-2.6 2.7l-.6 3.4h-1l1.6-9.3zM265.1 79.9c0-2.5 1.5-4.5 3.9-4.5 1.7 0 2.7 1 2.3 3.1l-.2.8h-5c-.3 1.5.3 2.5 2.1 2.5.7 0 1.4-.2 2.5-.8l-.2.9c-.7.4-1.5.7-2.6.7-1.7.1-2.8-.6-2.8-2.7zm5.2-1.4c.2-1.3-.1-2.2-1.5-2.2-1.2 0-2.2.7-2.5 2.2h4zM272 87.2l.5-2.8c1.2.8 2.6 1.3 4 1.3s2.3-.5 2.3-1.3c0-.6-.6-.9-1.3-1.2l-2-.8c-1.1-.6-2.1-1.4-2.1-2.9 0-2.3 2.2-4.1 5.7-4.1 1.5 0 3 .3 4 1.1l-.5 2.7c-.9-.8-2.2-1.3-3.5-1.3-1.1 0-2 .5-2 1.2 0 .6.9 1 1.9 1.5.6.2 1.1.5 1.6.8.8.4 1.9.9 1.9 2.6 0 2.6-2.4 4.4-6.3 4.4-1.6-.1-3.2-.4-4.2-1.2zM284 83.1c0-4.4 2.8-7.8 7.4-7.8 3.4 0 5.4 1.8 4.6 5.9l-.3 1.6h-8.2c-.3 1.7.6 2.9 3.1 2.9 1.3 0 2.7-.3 4.4-1.1l-.5 2.7c-1.1.6-2.8 1-4.9 1-3.5 0-5.6-1.4-5.6-5.2zm9-2.6c.3-1.6-.2-2.7-1.9-2.7-1.5 0-2.7.8-3 2.7h4.9zM323.6 75.8c.6 0 1.2-.1 1.9-.2l-2.2 12.2h-3.7l2.1-12.2c.7.2 1.2.2 1.9.2zm.8-4.1c1.2 0 1.7.4 1.7 1.1 0 1.3-.8 1.9-2.2 1.9-1.1 0-1.7-.3-1.7-1.1-.1-1.3.7-1.9 2.2-1.9zM326.3 83.2c0-4.5 2.9-7.9 7.7-7.9 3.1 0 5.1 1.4 5.1 5.1 0 4.5-2.9 7.9-7.7 7.9-3.2 0-5.1-1.4-5.1-5.1zm5.6 2.4c2.2 0 3.6-2.4 3.6-4.9 0-1.7-.6-2.7-2-2.7-2.2 0-3.5 2.4-3.5 5-.1 1.6.5 2.6 1.9 2.6zM342 75.7h3.6l-.4 2.1h.1c1.2-1.5 2.7-2.5 4.6-2.5 2.2 0 3.5 1.3 2.9 4.6l-1.4 8h-3.7l1.2-6.7c.3-1.6 0-2.7-1.4-2.7-1.1 0-2.5.7-2.9 3.2l-1.1 6.2h-3.7l2.2-12.2z" class="st2"/>
  </g>
  <path d="M358.8 205h-120l8.4-60h120z" class="st3"/>
  <path d="M279 170.3h1.7v8.4l-.7-.7h5.1v1.5h-6v-9.2zM286.2 179.3c-.4-.3-.6-.7-.6-1.3 0-.6.2-1 .5-1.3.4-.3.8-.6 1.4-.7l.4-.1c.4-.1.7-.2 1-.3.3-.1.5-.2.7-.4.2-.2.3-.4.3-.6 0-.3-.1-.5-.3-.7-.2-.2-.5-.3-.9-.3s-.8.1-1.2.3-.8.4-1.2.7v-1.4c.3-.3.7-.5 1.2-.6.5-.2 1-.2 1.5-.2.8 0 1.4.2 1.8.6s.6 1 .6 1.8V177.5c0 .5.1.8.1 1.2.1.3.1.6.2 1h-1.5c-.1-.3-.2-.7-.3-1.3h.1c-.2.5-.6.9-1 1.2-.4.3-.9.4-1.4.4-.6-.3-1-.4-1.4-.7zm2.7-1c.3-.2.5-.5.7-.8.2-.3.3-.7.3-1.2v-.4c-.1.2-.3.3-.5.4-.2.1-.5.2-.8.3l-.4.1c-.3.1-.6.2-.7.4-.2.2-.3.4-.3.7s.1.5.3.6c.2.1.4.2.6.2.2 0 .5-.1.8-.3zM293.2 172.5h1.5v1.2h.1c.6-1 1.4-1.5 2.4-1.5.7 0 1.2.2 1.6.7.4.4.6 1.1.6 2.1v4.5h-1.6v-3.9c0-1.3-.4-1.9-1.3-1.9-.3 0-.6.1-.8.2-.3.1-.5.4-.7.7-.2.3-.3.8-.3 1.4v3.5h-1.6v-7zM302 179.3c-.4-.3-.7-.7-1-1.3s-.3-1.2-.3-2 .1-1.4.3-2 .6-1 1-1.3c.4-.3 1-.5 1.6-.5.5 0 .9.1 1.3.3.4.2.7.5 1 1h.1V170h1.6v9.5h-1.4v-1.2h-.1c-.3.5-.7.8-1.1 1.1-.5.2-.9.4-1.4.4-.6-.1-1.1-.2-1.6-.5zm3.1-1.1c.3-.2.5-.5.7-.9.2-.4.2-.8.2-1.4 0-.5-.1-.9-.2-1.3-.2-.4-.4-.7-.7-.9-.3-.2-.6-.3-1-.3-.3 0-.7.1-.9.3-.3.2-.5.5-.6.8-.2.4-.2.9-.2 1.4 0 .7.1 1.3.4 1.8.3.5.7.7 1.4.7.3.1.6 0 .9-.2zM309.5 171.6c-.1-.1-.2-.3-.2-.6 0-.2.1-.4.2-.6.1-.1.4-.2.7-.2.3 0 .5.1.7.2s.2.3.2.6c0 .2-.1.4-.2.6s-.4.2-.7.2c-.3 0-.6-.1-.7-.2zm.7.9c.2 0 .5 0 .8-.1v7h-1.6v-7c.3.1.6.1.8.1zM312.8 172.5h1.5v1.2h.1c.6-1 1.4-1.5 2.4-1.5.7 0 1.2.2 1.6.7.4.4.6 1.1.6 2.1v4.5h-1.6v-3.9c0-1.3-.4-1.9-1.3-1.9-.3 0-.6.1-.8.2-.3.1-.5.4-.7.7-.2.3-.3.8-.3 1.4v3.5h-1.6v-7zM322.1 182c-.4-.1-.8-.2-1.2-.4v-1.3l.2.1c.4.2.8.4 1.2.5.3.1.8.2 1.2.2.7 0 1.3-.2 1.7-.6.4-.4.6-.9.6-1.7v-.4h-.1c-.3.4-.6.7-1 1s-.9.4-1.5.4c-.8 0-1.5-.3-2-.9s-.8-1.5-.8-2.7c0-.8.1-1.5.3-2 .2-.6.6-1 1-1.3.4-.3 1-.5 1.6-.5.5 0 .9.1 1.3.3.4.2.7.5 1 1h.1v-1.1h1.5v5.9c0 .6-.1 1.2-.3 1.8-.2.5-.5 1-1.1 1.4s-1.3.6-2.3.6c-.5-.2-1-.2-1.4-.3zm2.6-3.9c.3-.2.5-.5.6-.9s.2-.8.2-1.3c0-.6-.1-1-.3-1.4-.2-.4-.4-.6-.7-.8s-.6-.3-1-.3-.8.1-1 .4-.5.5-.6.9-.2.8-.2 1.3c0 .6.1 1.2.4 1.7.3.5.7.7 1.4.7.6.1.9-.1 1.2-.3z" class="st2"/>
  <path d="M358.8 395h-120l8.4-60h120z" class="st3"/>
  <path d="M289.6 351.9h4c.6 0 1.2.1 1.6.3.5.2.8.5 1 .9s.4 1 .4 1.6c0 .7-.1 1.3-.4 1.7s-.7.8-1.2 1c-.5.2-1.2.3-2 .3h-1.8v3.5h-1.7v-9.3zm5 4.1c.3-.3.5-.6.5-1.2 0-.5-.1-.9-.4-1.1s-.7-.4-1.3-.4h-2.9l.7-.7v3.8h1.9c.7-.1 1.1-.2 1.5-.4zM298.5 360.4c-.6-.6-1-1.6-1-2.9 0-.7.1-1.4.3-1.9s.6-1 1.1-1.3c.5-.3 1.1-.5 1.9-.5 1 0 1.8.3 2.3.8s.8 1.4.8 2.5v.9H299c0 .7.2 1.2.6 1.6s1 .6 1.8.6c.4 0 .8-.1 1.2-.2.4-.1.8-.3 1.2-.6v1.2c-.3.2-.7.4-1.2.5s-.9.2-1.5.2c-1.1 0-2-.3-2.6-.9zm3.7-4.9c-.3-.3-.7-.5-1.3-.5-.6 0-1 .2-1.3.5-.3.3-.5.8-.5 1.4h3.5c0-.6-.2-1-.4-1.4zM305.9 360.4c-.6-.6-1-1.6-1-2.9 0-.7.1-1.4.3-1.9s.6-1 1.1-1.3c.5-.3 1.1-.5 1.9-.5 1 0 1.8.3 2.3.8s.8 1.4.8 2.5v.9h-4.9c0 .7.2 1.2.6 1.6s1 .6 1.8.6c.4 0 .8-.1 1.2-.2.4-.1.8-.3 1.2-.6v1.2c-.3.2-.7.4-1.2.5s-.9.2-1.5.2c-1 0-1.9-.3-2.6-.9zm3.7-4.9c-.3-.3-.7-.5-1.3-.5-.6 0-1 .2-1.3.5-.3.3-.5.8-.5 1.4h3.5c0-.6-.1-1-.4-1.4zM312.8 354.1h1.5v1.4h.1c.1-.5.3-.9.6-1.2.3-.3.7-.4 1.2-.4.4 0 .7.1 1 .3v1.5c-.4-.3-.8-.4-1.1-.4-.3 0-.6.1-.9.3s-.5.5-.6 1c-.1.4-.2.9-.2 1.5v3h-1.6v-7zM271.6 377.7c-.4-.3-.7-.7-1-1.3-.2-.6-.3-1.2-.3-2s.1-1.4.3-2c.2-.6.6-1 1-1.3s1-.5 1.6-.5c.5 0 .9.1 1.3.3s.7.5 1 1h.1v-3.6h1.6v9.5h-1.4v-1.2h-.1c-.3.5-.7.8-1.1 1.1-.5.2-.9.4-1.4.4-.7 0-1.2-.1-1.6-.4zm3.1-1.1c.3-.2.5-.5.7-.9.2-.4.2-.8.2-1.4 0-.5-.1-.9-.2-1.3-.2-.4-.4-.7-.7-.9-.3-.2-.6-.3-1-.3-.3 0-.7.1-.9.3-.3.2-.5.5-.6.8-.2.4-.2.9-.2 1.4 0 .7.1 1.3.4 1.8.3.5.7.7 1.4.7.2.1.6 0 .9-.2zM279 377.7c-.4-.3-.6-.7-.6-1.3 0-.6.2-1 .5-1.3.4-.3.8-.6 1.4-.7l.4-.1c.4-.1.7-.2 1-.3.3-.1.5-.2.7-.4.2-.2.3-.4.3-.6 0-.3-.1-.5-.3-.7-.2-.2-.5-.3-.9-.3s-.8.1-1.2.3c-.4.2-.8.4-1.2.7v-1.4c.3-.3.7-.5 1.2-.6.5-.2 1-.2 1.5-.2.8 0 1.4.2 1.8.6.4.4.6 1 .6 1.8V375.9c0 .5.1.8.1 1.2.1.3.1.6.2 1H283c-.1-.3-.2-.7-.3-1.3h-.1c-.2.5-.6.9-1 1.2-.4.3-.9.4-1.4.4-.4-.3-.9-.4-1.2-.7zm2.7-1c.3-.2.5-.5.7-.8.2-.3.3-.7.3-1.2v-.4c-.1.2-.3.3-.5.4-.2.1-.5.2-.8.3l-.4.1c-.3.1-.6.2-.7.4-.2.2-.3.4-.3.7s.1.5.3.6c.2.1.4.2.6.2.2 0 .5-.1.8-.3zM286.7 378c-.4-.1-.8-.3-1.1-.5v-1.3c.4.3.8.5 1.2.6s.8.2 1.2.2c.4 0 .8-.1 1-.2s.4-.4.4-.7c0-.2-.1-.4-.2-.5-.2-.1-.4-.3-.7-.4-.3-.1-.5-.2-.6-.3l-.6-.3c-.5-.2-.9-.5-1.1-.8-.3-.3-.4-.7-.4-1.1 0-.4.1-.7.3-1 .2-.3.5-.5.9-.7.4-.2.9-.3 1.5-.3.4 0 .8.1 1.2.2s.7.3 1.1.5v1.3c-.3-.2-.6-.4-1-.6-.4-.1-.8-.2-1.2-.2-.3 0-.6.1-.8.2-.2.1-.3.3-.3.5s.1.4.2.5c.2.1.4.3.8.5 0 0 .1 0 .1.1.4.2.8.4 1.2.5h.1c.3.1.5.3.7.4s.3.3.5.5c.1.2.2.5.2.8 0 .4-.1.8-.3 1.1-.2.3-.6.6-1 .8s-1 .3-1.6.3c-.8 0-1.3 0-1.7-.1zM292.3 368.4h1.6v3.7h.1c.3-.5.6-.8 1-1.1.4-.3.9-.4 1.4-.4.7 0 1.2.2 1.6.7.4.4.6 1.1.6 2.1v4.5H297V374c0-1.3-.4-1.9-1.3-1.9-.3 0-.6.1-.8.2-.3.1-.5.4-.7.7-.2.3-.3.8-.3 1.4v3.5h-1.6v-9.5zM302.8 377.8c-.4-.2-.8-.5-1-1h-.1v1.1h-1.4v-9.5h1.6v3.7h.1c.3-.4.6-.8 1-1 .4-.3.9-.4 1.4-.4.5 0 1 .1 1.4.4.4.3.7.7 1 1.2.2.5.4 1.2.4 1.9s-.1 1.4-.3 2c-.2.6-.5 1.1-1 1.4-.4.3-1 .5-1.7.5-.6 0-1-.1-1.4-.3zm1.9-1.2c.3-.2.5-.5.6-.9.1-.4.2-.8.2-1.4 0-.8-.2-1.4-.5-1.8-.3-.4-.8-.7-1.3-.7-.4 0-.7.1-1 .3s-.5.5-.7.9c-.2.4-.3.9-.3 1.4 0 .8.2 1.4.5 1.8.3.4.8.7 1.4.7.4 0 .8-.1 1.1-.3zM309 377.2c-.6-.6-.9-1.5-.9-2.8 0-.7.1-1.4.4-1.9.2-.6.6-1 1.1-1.3.5-.3 1.2-.5 1.9-.5 1.1 0 1.9.3 2.5.9.6.6.9 1.6.9 2.8 0 .7-.1 1.4-.3 1.9-.2.6-.6 1-1.1 1.3s-1.2.5-1.9.5c-1.2 0-2-.3-2.6-.9zm3.5-.5c.3-.2.5-.5.6-.8.1-.4.2-.9.2-1.4 0-.8-.1-1.4-.4-1.8-.3-.5-.8-.7-1.4-.7-.4 0-.7.1-1 .3-.3.2-.5.5-.6.8-.1.4-.2.9-.2 1.4 0 .8.1 1.4.4 1.8s.8.7 1.4.7c.4-.1.7-.2 1-.3zM316.3 377.7c-.4-.3-.6-.7-.6-1.3 0-.6.2-1 .5-1.3.4-.3.8-.6 1.4-.7l.4-.1c.4-.1.7-.2 1-.3.3-.1.5-.2.7-.4s.3-.4.3-.6c0-.3-.1-.5-.3-.7s-.5-.3-.9-.3-.8.1-1.2.3c-.4.2-.8.4-1.2.7v-1.4c.3-.3.7-.5 1.2-.6s1-.2 1.5-.2c.8 0 1.4.2 1.8.6.4.4.6 1 .6 1.8V375.9c0 .5.1.8.1 1.2s.1.6.2 1h-1.5c-.1-.3-.2-.7-.3-1.3h-.1c-.2.5-.6.9-1 1.2s-.9.4-1.4.4c-.4-.3-.8-.4-1.2-.7zm2.7-1c.3-.2.5-.5.7-.8.2-.3.3-.7.3-1.2v-.4c-.1.2-.3.3-.5.4-.2.1-.5.2-.8.3l-.4.1c-.3.1-.6.2-.7.4-.2.2-.3.4-.3.7s.1.5.3.6.4.2.6.2c.2 0 .5-.1.8-.3zM323.3 370.9h1.5v1.4h.1c.1-.5.3-.9.6-1.2.3-.3.7-.4 1.2-.4.4 0 .7.1 1 .3v1.5c-.4-.3-.8-.4-1.1-.4-.3 0-.6.1-.9.3-.3.2-.5.5-.6 1-.1.4-.2.9-.2 1.5v3h-1.6v-7zM329.7 377.7c-.4-.3-.7-.7-1-1.3-.2-.6-.3-1.2-.3-2s.1-1.4.3-2c.2-.6.6-1 1-1.3s1-.5 1.6-.5c.5 0 .9.1 1.3.3s.7.5 1 1h.1v-3.6h1.6v9.5h-1.4v-1.2h-.1c-.3.5-.7.8-1.1 1.1-.5.2-.9.4-1.4.4-.7 0-1.2-.1-1.6-.4zm3.1-1.1c.3-.2.5-.5.7-.9.2-.4.2-.8.2-1.4 0-.5-.1-.9-.2-1.3-.2-.4-.4-.7-.7-.9-.3-.2-.6-.3-1-.3-.3 0-.7.1-.9.3-.3.2-.5.5-.6.8-.2.4-.2.9-.2 1.4 0 .7.1 1.3.4 1.8.3.5.7.7 1.4.7.2.1.6 0 .9-.2z" class="st2"/>
  <path d="M358.8 510h-120l8.4-60h120z" class="st3"/>
  <path d="M291.4 466.9h2.3l3.2 9.2h-1.7c-.2-.8-.8-2.6-1.8-5.4-.3-.8-.6-1.6-.9-2.5h-.1l-.3.9-.6 1.8c-.2.6-.5 1.4-.8 2.4-.3 1-.6 1.9-.9 2.9h-1.7l3.3-9.3zm-1.6 5.4h5.5v1.4h-5.5v-1.4zM297.8 473.7v-4.6h1.6v4.1c0 .5.1 1 .2 1.3.1.4.5.6 1 .6.4 0 .8-.2 1.1-.5s.5-.7.7-1.1v-4.4h1.6v7h-1.5v-1.3h-.1c-.2.4-.6.8-1 1.1-.4.3-.9.4-1.5.4-1.3 0-2.1-.8-2.1-2.6zM306.8 475.9c-.3-.3-.5-.7-.6-1.1-.1-.4-.1-1-.1-1.7v-2.7H305v-.6c.4-.2.8-.5 1.1-.9.3-.3.6-.8.8-1.4v-.1h.8v1.7h2v1.3h-2v3.8c0 .3.1.5.3.7.1.2.4.3.7.3.2 0 .3 0 .5-.1s.3-.1.5-.2v1.2c-.1.1-.3.1-.6.2-.2.1-.5.1-.8.1-.7-.1-1.1-.2-1.5-.5zM310.9 466.6h1.6v3.7h.1c.3-.5.6-.8 1-1.1.4-.3.9-.4 1.4-.4.7 0 1.2.2 1.6.7.4.4.6 1.1.6 2.1v4.5h-1.6v-3.9c0-1.3-.4-1.9-1.3-1.9-.3 0-.6.1-.8.2-.3.1-.5.4-.7.7-.2.3-.3.8-.3 1.4v3.5h-1.6v-9.5zM285.4 485.9h1.5v1.2h.1c.3-.4.6-.8 1-1 .4-.3.9-.4 1.5-.4.5 0 1 .1 1.4.4.4.3.7.7 1 1.2.2.5.4 1.2.4 1.9s-.1 1.4-.3 2-.5 1.1-1 1.4-1 .5-1.7.5c-.5 0-.9-.1-1.4-.3s-.7-.5-1-1h-.1v3.5h-1.5v-9.4zm4.4 5.7c.3-.2.5-.5.6-.9.1-.4.2-.8.2-1.4 0-.8-.2-1.4-.5-1.8-.3-.4-.8-.7-1.3-.7-.4 0-.7.1-1 .3-.3.2-.5.5-.7.9s-.3.9-.3 1.4c0 .8.2 1.4.5 1.8s.8.7 1.4.7c.5 0 .8-.1 1.1-.3zM294.1 492.2c-.6-.6-.9-1.5-.9-2.8 0-.7.1-1.4.4-1.9.2-.6.6-1 1.1-1.3s1.2-.5 1.9-.5c1.1 0 1.9.3 2.5.9.6.6.9 1.6.9 2.8 0 .7-.1 1.4-.3 1.9s-.6 1-1.1 1.3-1.2.5-1.9.5c-1.2 0-2-.3-2.6-.9zm3.5-.5c.3-.2.5-.5.6-.8.1-.4.2-.9.2-1.4 0-.8-.1-1.4-.4-1.8s-.8-.7-1.4-.7c-.4 0-.7.1-1 .3s-.5.5-.6.8c-.1.4-.2.9-.2 1.4 0 .8.1 1.4.4 1.8.3.5.8.7 1.4.7.4-.1.7-.2 1-.3zM301.4 485.9h1.5v1.4h.1c.1-.5.3-.9.6-1.2.3-.3.7-.4 1.2-.4.4 0 .7.1 1 .3v1.5c-.4-.3-.8-.4-1.1-.4-.3 0-.6.1-.9.3-.3.2-.5.5-.6 1-.1.4-.2.9-.2 1.5v3h-1.6v-7zM308 492.7c-.3-.3-.5-.7-.6-1.1-.1-.4-.1-1-.1-1.7v-2.7h-1.2v-.6c.4-.2.8-.5 1.1-.9.3-.3.6-.8.8-1.4v-.1h.8v1.7h2v1.3h-2v3.8c0 .3.1.5.3.7.1.2.4.3.7.3.2 0 .3 0 .5-.1s.3-.1.5-.2v1.2c-.1.1-.3.1-.6.2-.2.1-.5.1-.8.1-.6-.1-1.1-.2-1.4-.5zM312 492.7c-.4-.3-.6-.7-.6-1.3 0-.6.2-1 .5-1.3s.8-.6 1.4-.7l.4-.1c.4-.1.7-.2 1-.3.3-.1.5-.2.7-.4s.3-.4.3-.6c0-.3-.1-.5-.3-.7-.2-.2-.5-.3-.9-.3s-.8.1-1.2.3-.8.4-1.2.7v-1.4c.3-.3.7-.5 1.2-.6.5-.2 1-.2 1.5-.2.8 0 1.4.2 1.8.6.4.4.6 1 .6 1.8V490.9c0 .5.1.8.1 1.2.1.3.1.6.2 1H316c-.1-.3-.2-.7-.3-1.3h-.1c-.2.5-.6.9-1 1.2-.4.3-.9.4-1.4.4-.3-.3-.8-.4-1.2-.7zm2.8-1c.3-.2.5-.5.7-.8.2-.3.3-.7.3-1.2v-.4c-.1.2-.3.3-.5.4-.2.1-.5.2-.8.3l-.4.1c-.3.1-.6.2-.7.4s-.3.4-.3.7.1.5.3.6.4.2.6.2c.2 0 .5-.1.8-.3zM319.1 492.9v-9.5h1.6v9.5h-1.6z" class="st2"/>
  <path d="M175.8 510h-120l8.4-60h120z" class="st3"/>
  <path d="M110.2 466.9h4c.6 0 1.2.1 1.6.3.5.2.8.5 1 .9.2.4.4 1 .4 1.6 0 .7-.1 1.3-.4 1.7s-.7.8-1.2 1c-.5.2-1.2.3-2 .3h-1.8v3.5h-1.7v-9.3zm4.9 4.1c.3-.3.5-.6.5-1.2 0-.5-.1-.9-.4-1.1s-.7-.4-1.3-.4H111l.7-.7v3.8h1.9c.7-.1 1.2-.2 1.5-.4zM118.5 469.1h1.5v1.4h.1c.1-.5.3-.9.6-1.2.3-.3.7-.4 1.2-.4.4 0 .7.1 1 .3v1.5c-.4-.3-.8-.4-1.1-.4-.3 0-.6.1-.9.3s-.5.5-.6 1c-.1.4-.2.9-.2 1.5v3h-1.6v-7zM124.5 475.4c-.6-.6-.9-1.5-.9-2.8 0-.7.1-1.4.4-1.9.2-.6.6-1 1.1-1.3.5-.3 1.2-.5 1.9-.5 1.1 0 1.9.3 2.5.9.6.6.9 1.6.9 2.8 0 .7-.1 1.4-.4 1.9-.2.6-.6 1-1.1 1.3s-1.2.5-1.9.5c-1.1 0-1.9-.3-2.5-.9zm3.5-.5c.3-.2.5-.5.6-.8s.2-.9.2-1.4c0-.8-.1-1.4-.4-1.8-.3-.5-.8-.7-1.4-.7-.4 0-.7.1-1 .3-.3.2-.5.5-.6.8s-.2.9-.2 1.4c0 .8.1 1.4.4 1.8s.8.7 1.4.7c.4-.1.7-.2 1-.3zM88.6 492.7c-.4-.3-.7-.7-1-1.3-.2-.6-.3-1.2-.3-2s.1-1.4.3-2c.2-.6.6-1 1-1.3s1-.5 1.6-.5c.5 0 .9.1 1.3.3s.7.5 1 1h.1v-3.6h1.6v9.5h-1.4v-1.2h-.1c-.3.5-.7.8-1.1 1.1-.5.2-.9.4-1.4.4-.7 0-1.2-.1-1.6-.4zm3.1-1.1c.3-.2.5-.5.7-.9.2-.4.2-.8.2-1.4 0-.5-.1-.9-.2-1.3-.2-.4-.4-.7-.7-.9-.3-.2-.6-.3-1-.3-.3 0-.7.1-.9.3-.3.2-.5.5-.6.8-.2.4-.2.9-.2 1.4 0 .7.1 1.3.4 1.8.3.5.7.7 1.4.7.2.1.6 0 .9-.2zM96 492.7c-.4-.3-.6-.7-.6-1.3 0-.6.2-1 .5-1.3.4-.3.8-.6 1.4-.7l.4-.1c.4-.1.7-.2 1-.3.3-.1.5-.2.7-.4.2-.2.3-.4.3-.6 0-.3-.1-.5-.3-.7-.2-.2-.5-.3-.9-.3s-.8.1-1.2.3c-.4.2-.8.4-1.2.7v-1.4c.3-.3.7-.5 1.2-.6.5-.2 1-.2 1.5-.2.8 0 1.4.2 1.8.6.4.4.6 1 .6 1.8V490.9c0 .5.1.8.1 1.2.1.3.1.6.2 1H100c-.1-.3-.2-.7-.3-1.3h-.1c-.2.5-.6.9-1 1.2-.4.3-.9.4-1.4.4-.4-.3-.9-.4-1.2-.7zm2.7-1c.3-.2.5-.5.7-.8.2-.3.3-.7.3-1.2v-.4c-.1.2-.3.3-.5.4-.2.1-.5.2-.8.3l-.4.1c-.3.1-.6.2-.7.4-.2.2-.3.4-.3.7s.1.5.3.6c.2.1.4.2.6.2.2 0 .5-.1.8-.3zM103.7 493c-.4-.1-.8-.3-1.1-.5v-1.3c.4.3.8.5 1.2.6s.8.2 1.2.2c.4 0 .8-.1 1-.2s.4-.4.4-.7c0-.2-.1-.4-.2-.5-.2-.1-.4-.3-.7-.4-.3-.1-.5-.2-.6-.3l-.6-.3c-.5-.2-.9-.5-1.1-.8-.3-.3-.4-.7-.4-1.1 0-.4.1-.7.3-1 .2-.3.5-.5.9-.7.4-.2.9-.3 1.5-.3.4 0 .8.1 1.2.2s.7.3 1.1.5v1.3c-.3-.2-.6-.4-1-.6-.4-.1-.8-.2-1.2-.2-.3 0-.6.1-.8.2-.2.1-.3.3-.3.5s.1.4.2.5c.2.1.4.3.8.5 0 0 .1 0 .1.1.4.2.8.4 1.2.5h.1c.3.1.5.3.7.4s.3.3.5.5c.1.2.2.5.2.8 0 .4-.1.8-.3 1.1-.2.3-.6.6-1 .8s-1 .3-1.6.3c-.8 0-1.3 0-1.7-.1zM109.3 483.4h1.6v3.7h.1c.3-.5.6-.8 1-1.1.4-.3.9-.4 1.4-.4.7 0 1.2.2 1.6.7.4.4.6 1.1.6 2.1v4.5H114V489c0-1.3-.4-1.9-1.3-1.9-.3 0-.6.1-.8.2-.3.1-.5.4-.7.7-.2.3-.3.8-.3 1.4v3.5h-1.6v-9.5zM119.8 492.8c-.4-.2-.8-.5-1-1h-.1v1.1h-1.4v-9.5h1.6v3.7h.1c.3-.4.6-.8 1-1 .4-.3.9-.4 1.4-.4.5 0 1 .1 1.4.4.4.3.7.7 1 1.2.2.5.4 1.2.4 1.9s-.1 1.4-.3 2c-.2.6-.5 1.1-1 1.4-.4.3-1 .5-1.7.5-.6 0-1-.1-1.4-.3zm1.9-1.2c.3-.2.5-.5.6-.9.1-.4.2-.8.2-1.4 0-.8-.2-1.4-.5-1.8-.3-.4-.8-.7-1.3-.7-.4 0-.7.1-1 .3s-.5.5-.7.9c-.2.4-.3.9-.3 1.4 0 .8.2 1.4.5 1.8.3.4.8.7 1.4.7.4 0 .8-.1 1.1-.3zM126 492.2c-.6-.6-.9-1.5-.9-2.8 0-.7.1-1.4.4-1.9.2-.6.6-1 1.1-1.3.5-.3 1.2-.5 1.9-.5 1.1 0 1.9.3 2.5.9.6.6.9 1.6.9 2.8 0 .7-.1 1.4-.3 1.9-.2.6-.6 1-1.1 1.3s-1.2.5-1.9.5c-1.2 0-2-.3-2.6-.9zm3.5-.5c.3-.2.5-.5.6-.8.1-.4.2-.9.2-1.4 0-.8-.1-1.4-.4-1.8-.3-.5-.8-.7-1.4-.7-.4 0-.7.1-1 .3-.3.2-.5.5-.6.8-.1.4-.2.9-.2 1.4 0 .8.1 1.4.4 1.8s.8.7 1.4.7c.4-.1.7-.2 1-.3zM133.3 492.7c-.4-.3-.6-.7-.6-1.3 0-.6.2-1 .5-1.3.4-.3.8-.6 1.4-.7l.4-.1c.4-.1.7-.2 1-.3.3-.1.5-.2.7-.4s.3-.4.3-.6c0-.3-.1-.5-.3-.7s-.5-.3-.9-.3-.8.1-1.2.3c-.4.2-.8.4-1.2.7v-1.4c.3-.3.7-.5 1.2-.6s1-.2 1.5-.2c.8 0 1.4.2 1.8.6.4.4.6 1 .6 1.8V490.9c0 .5.1.8.1 1.2s.1.6.2 1h-1.5c-.1-.3-.2-.7-.3-1.3h-.1c-.2.5-.6.9-1 1.2s-.9.4-1.4.4c-.4-.3-.8-.4-1.2-.7zm2.7-1c.3-.2.5-.5.7-.8.2-.3.3-.7.3-1.2v-.4c-.1.2-.3.3-.5.4-.2.1-.5.2-.8.3l-.4.1c-.3.1-.6.2-.7.4-.2.2-.3.4-.3.7s.1.5.3.6.4.2.6.2c.2 0 .5-.1.8-.3zM140.3 485.9h1.5v1.4h.1c.1-.5.3-.9.6-1.2.3-.3.7-.4 1.2-.4.4 0 .7.1 1 .3v1.5c-.4-.3-.8-.4-1.1-.4-.3 0-.6.1-.9.3-.3.2-.5.5-.6 1-.1.4-.2.9-.2 1.5v3h-1.6v-7zM146.7 492.7c-.4-.3-.7-.7-1-1.3-.2-.6-.3-1.2-.3-2s.1-1.4.3-2c.2-.6.6-1 1-1.3s1-.5 1.6-.5c.5 0 .9.1 1.3.3s.7.5 1 1h.1v-3.6h1.6v9.5h-1.4v-1.2h-.1c-.3.5-.7.8-1.1 1.1-.5.2-.9.4-1.4.4-.7 0-1.2-.1-1.6-.4zm3.1-1.1c.3-.2.5-.5.7-.9.2-.4.2-.8.2-1.4 0-.5-.1-.9-.2-1.3-.2-.4-.4-.7-.7-.9-.3-.2-.6-.3-1-.3-.3 0-.7.1-.9.3-.3.2-.5.5-.6.8-.2.4-.2.9-.2 1.4 0 .7.1 1.3.4 1.8.3.5.7.7 1.4.7.2.1.6 0 .9-.2z" class="st2"/>
  <path d="M535.8 305.3h-120l8.4-60h120z" class="st3"/>
  <path d="M438.7 278.8c-.7-.8-1.1-2-1.1-3.7 0-1 .1-1.9.4-2.6.3-.7.7-1.3 1.3-1.7.6-.4 1.4-.6 2.4-.6.6 0 1.1.1 1.6.2s1 .4 1.4.7v1.6c-.5-.3-.9-.6-1.4-.7-.5-.2-1-.2-1.4-.2-.5 0-1 .1-1.4.3-.4.2-.7.6-.9 1.1-.2.5-.3 1.1-.3 1.9 0 1.1.2 1.9.7 2.5.4.6 1.1.9 2.1.9s2-.3 2.9-1v1.5c-.4.3-.8.5-1.4.7-.5.2-1.1.3-1.8.3-1.4 0-2.4-.4-3.1-1.2zM446.7 279.1c-.6-.6-.9-1.5-.9-2.8 0-.7.1-1.4.4-1.9.2-.6.6-1 1.1-1.3.5-.3 1.2-.5 1.9-.5 1.1 0 1.9.3 2.5.9.6.6.9 1.6.9 2.8 0 .7-.1 1.4-.4 1.9-.2.6-.6 1-1.1 1.3s-1.2.5-1.9.5c-1 0-1.9-.3-2.5-.9zm3.5-.5c.3-.2.5-.5.6-.8s.2-.9.2-1.4c0-.8-.1-1.4-.4-1.8-.3-.5-.8-.7-1.4-.7-.4 0-.7.1-1 .3-.3.2-.5.5-.6.8-.1.4-.2.9-.2 1.4 0 .8.1 1.4.4 1.8.3.5.8.7 1.4.7.4-.1.7-.2 1-.3zM454 272.8h1.5v1.2h.1c.6-1 1.4-1.5 2.4-1.5.7 0 1.2.2 1.6.7.4.4.6 1.1.6 2.1v4.5h-1.6v-3.9c0-1.3-.4-1.9-1.3-1.9-.3 0-.6.1-.8.2-.3.1-.5.4-.7.7-.2.3-.3.8-.3 1.4v3.5H454v-7zM462 272.8h1.5v1.2h.1c.6-1 1.4-1.5 2.4-1.5.7 0 1.2.2 1.6.7.4.4.6 1.1.6 2.1v4.5h-1.6v-3.9c0-1.3-.4-1.9-1.3-1.9-.3 0-.6.1-.8.2-.3.1-.5.4-.7.7-.2.3-.3.8-.3 1.4v3.5H462v-7zM470.4 279.1c-.6-.6-1-1.6-1-2.9 0-.7.1-1.4.3-1.9s.6-1 1.1-1.3c.5-.3 1.1-.5 1.9-.5 1 0 1.8.3 2.3.8.6.5.8 1.4.8 2.5v.9H471c0 .7.2 1.2.6 1.6.4.4 1 .6 1.8.6.4 0 .8-.1 1.2-.2.4-.1.8-.3 1.2-.6v1.2c-.3.2-.7.4-1.2.5-.4.1-.9.2-1.5.2-1.1 0-2-.3-2.7-.9zm3.7-4.9c-.3-.3-.7-.5-1.3-.5-.6 0-1 .2-1.3.5-.3.3-.5.8-.5 1.4h3.5c0-.6-.1-1-.4-1.4zM477.8 279.1c-.6-.6-.9-1.5-.9-2.8 0-.8.1-1.4.4-2s.6-1 1.1-1.3 1.1-.5 1.9-.5c.4 0 .8.1 1.3.2.4.1.8.3 1.2.5v1.4c-.3-.2-.7-.4-1.1-.6-.4-.1-.8-.2-1.1-.2-.4 0-.8.1-1.1.3-.3.2-.5.4-.7.8-.2.4-.3.8-.3 1.4 0 .8.2 1.4.5 1.8.3.4.9.7 1.6.7.8 0 1.5-.3 2.2-.8v1.3c-.6.5-1.5.7-2.5.7s-1.8-.3-2.5-.9zM485.2 279.6c-.3-.3-.5-.7-.6-1.1-.1-.4-.1-1-.1-1.7v-2.7h-1.2v-.6c.4-.2.8-.5 1.1-.9s.6-.8.8-1.4v-.1h.8v1.7h2v1.3h-2v3.8c0 .3.1.5.3.7.1.2.4.3.7.3.2 0 .3 0 .5-.1s.3-.1.5-.2v1.2c-.1.1-.3.1-.6.2-.2.1-.5.1-.8.1-.6-.1-1-.2-1.4-.5zM492.7 279.1c-.6-.6-1-1.6-1-2.9 0-.7.1-1.4.3-1.9s.6-1 1.1-1.3c.5-.3 1.1-.5 1.9-.5 1 0 1.8.3 2.3.8.6.5.8 1.4.8 2.5v.9h-4.9c0 .7.2 1.2.6 1.6.4.4 1 .6 1.8.6.4 0 .8-.1 1.2-.2.4-.1.8-.3 1.2-.6v1.2c-.3.2-.7.4-1.2.5-.4.1-.9.2-1.5.2-1.1 0-2-.3-2.6-.9zm3.7-4.9c-.3-.3-.7-.5-1.3-.5-.6 0-1 .2-1.3.5-.3.3-.5.8-.5 1.4h3.5c0-.6-.1-1-.4-1.4zM499.6 272.8h1.5v1.4h.1c.1-.5.3-.9.6-1.2.3-.3.7-.4 1.2-.4.4 0 .7.1 1 .3v1.5c-.4-.3-.8-.4-1.1-.4-.3 0-.6.1-.9.3-.3.2-.5.5-.6 1-.1.4-.2.9-.2 1.5v3h-1.6v-7zM505.1 272.8h1.5v1.4h.1c.1-.5.3-.9.6-1.2.3-.3.7-.4 1.2-.4.4 0 .7.1 1 .3v1.5c-.4-.3-.8-.4-1.1-.4-.3 0-.6.1-.9.3-.3.2-.5.5-.6 1-.1.4-.2.9-.2 1.5v3h-1.6v-7zM511.1 279.1c-.6-.6-.9-1.5-.9-2.8 0-.7.1-1.4.4-1.9.2-.6.6-1 1.1-1.3.5-.3 1.2-.5 1.9-.5 1.1 0 1.9.3 2.5.9.6.6.9 1.6.9 2.8 0 .7-.1 1.4-.3 1.9-.2.6-.6 1-1.1 1.3s-1.2.5-1.9.5c-1.1 0-2-.3-2.6-.9zm3.5-.5c.3-.2.5-.5.6-.8.1-.4.2-.9.2-1.4 0-.8-.1-1.4-.4-1.8-.3-.5-.8-.7-1.4-.7-.4 0-.7.1-1 .3-.3.2-.5.5-.6.8-.1.4-.2.9-.2 1.4 0 .8.1 1.4.4 1.8.3.5.8.7 1.4.7.4-.1.7-.2 1-.3zM518.4 272.8h1.5v1.4h.1c.1-.5.3-.9.6-1.2.3-.3.7-.4 1.2-.4.4 0 .7.1 1 .3v1.5c-.4-.3-.8-.4-1.1-.4-.3 0-.6.1-.9.3-.3.2-.5.5-.6 1-.1.4-.2.9-.2 1.5v3h-1.6v-7z" class="st2"/>
  <path d="m212.5 267.8-2.8-6.4h1.7l1.2 2.8c.1.2.1.3.2.5.3.7.4 1.1.5 1.4h.1c.1-.3.2-.6.4-.9.1-.3.2-.6.4-.9.1-.2.2-.5.4-1l.7-1.8h1.7l-2.8 6.4v2.9h-1.7v-3zM218.5 270c-.6-.6-1-1.6-1-2.9 0-.7.1-1.4.3-1.9s.6-1 1.1-1.3c.5-.3 1.1-.5 1.9-.5 1 0 1.8.3 2.3.8s.8 1.4.8 2.5v.9H219c0 .7.2 1.2.6 1.6.4.4 1 .6 1.8.6.4 0 .8-.1 1.2-.2.4-.1.8-.3 1.2-.6v1.2c-.3.2-.7.4-1.2.5-.4.1-.9.2-1.5.2-1 0-1.9-.3-2.6-.9zm3.7-4.9c-.3-.3-.7-.5-1.3-.5-.6 0-1 .2-1.3.5-.3.3-.5.8-.5 1.4h3.5c0-.6-.1-1.1-.4-1.4zM226.1 270.7c-.4-.1-.8-.3-1.1-.5v-1.3c.4.3.8.5 1.2.6s.8.2 1.2.2c.4 0 .8-.1 1-.2s.4-.4.4-.7c0-.2-.1-.4-.2-.5-.2-.1-.4-.3-.7-.4-.3-.1-.5-.2-.6-.3s-.4-.2-.6-.3c-.5-.2-.9-.5-1.1-.8-.3-.3-.4-.7-.4-1.1 0-.4.1-.7.3-1s.5-.5.9-.7c.4-.2.9-.3 1.5-.3.4 0 .8.1 1.2.2.4.1.7.3 1.1.5v1.3c-.3-.2-.6-.4-1-.6-.4-.1-.8-.2-1.2-.2-.3 0-.6.1-.8.2-.2.1-.3.3-.3.5s.1.4.2.5c.2.1.4.3.8.5 0 0 .1 0 .1.1.4.2.8.4 1.2.5h.1c.3.1.5.3.7.4.2.1.3.3.5.5.1.2.2.5.2.8 0 .4-.1.8-.3 1.1-.2.3-.6.6-1 .8-.4.2-1 .3-1.6.3-.8.1-1.2 0-1.7-.1zM96.1 382.8l-2.8-6.4H95l1.2 2.8c.1.2.1.3.2.5.3.7.4 1.1.5 1.4h.1c.1-.3.2-.6.4-.9.1-.3.2-.6.4-.9.1-.2.2-.5.4-1l.7-1.8h1.7l-2.8 6.4v2.9h-1.7v-3zM102.1 385c-.6-.6-1-1.6-1-2.9 0-.7.1-1.4.3-1.9s.6-1 1.1-1.3c.5-.3 1.1-.5 1.9-.5 1 0 1.8.3 2.3.8s.8 1.4.8 2.5v.9h-4.9c0 .7.2 1.2.6 1.6.4.4 1 .6 1.8.6.4 0 .8-.1 1.2-.2.4-.1.8-.3 1.2-.6v1.2c-.3.2-.7.4-1.2.5-.4.1-.9.2-1.5.2-1.1 0-2-.3-2.6-.9zm3.7-4.9c-.3-.3-.7-.5-1.3-.5-.6 0-1 .2-1.3.5-.3.3-.5.8-.5 1.4h3.5c0-.6-.2-1.1-.4-1.4zM109.7 385.7c-.4-.1-.8-.3-1.1-.5v-1.3c.4.3.8.5 1.2.6s.8.2 1.2.2c.4 0 .8-.1 1-.2s.4-.4.4-.7c0-.2-.1-.4-.2-.5-.2-.1-.4-.3-.7-.4-.3-.1-.5-.2-.6-.3s-.4-.2-.6-.3c-.5-.2-.9-.5-1.1-.8-.3-.3-.4-.7-.4-1.1 0-.4.1-.7.3-1s.5-.5.9-.7c.4-.2.9-.3 1.5-.3.4 0 .8.1 1.2.2.4.1.7.3 1.1.5v1.3c-.3-.2-.6-.4-1-.6-.4-.1-.8-.2-1.2-.2-.3 0-.6.1-.8.2-.2.1-.3.3-.3.5s.1.4.2.5c.2.1.4.3.8.5 0 0 .1 0 .1.1.4.2.8.4 1.2.5h.1c.3.1.5.3.7.4.2.1.3.3.5.5.1.2.2.5.2.8 0 .4-.1.8-.3 1.1-.2.3-.6.6-1 .8-.4.2-1 .3-1.6.3-.8.1-1.3 0-1.7-.1zM383.5 261.4h1.8c1 1.5 1.9 3 2.7 4.4.6.9 1.1 1.8 1.6 2.6h.1v-1.2c-.1-2.1-.1-4-.1-5.9h1.7v9.2h-1.8c-.8-1.3-1.7-2.7-2.6-4.2-.6-1-1.1-1.9-1.7-2.8h-.2v.8c.1 2.3.1 4.4.1 6.3h-1.7v-9.2zM393.6 270c-.6-.6-.9-1.5-.9-2.8 0-.7.1-1.4.4-1.9.2-.6.6-1 1.1-1.3.5-.3 1.2-.5 1.9-.5 1.1 0 1.9.3 2.5.9.6.6.9 1.6.9 2.8 0 .7-.1 1.4-.4 1.9-.2.6-.6 1-1.1 1.3s-1.2.5-1.9.5c-1 0-1.8-.3-2.5-.9zm3.5-.6c.3-.2.5-.5.6-.8s.2-.9.2-1.4c0-.8-.1-1.4-.4-1.8-.3-.5-.8-.7-1.4-.7-.4 0-.7.1-1 .3-.3.2-.5.5-.6.8-.1.4-.2.9-.2 1.4 0 .8.1 1.4.4 1.8.3.5.8.7 1.4.7.4 0 .8-.1 1-.3zM173.8 351.1h1.8c1 1.5 1.9 3 2.7 4.4.6.9 1.1 1.8 1.6 2.6h.1v-1.2c-.1-2.1-.1-4-.1-5.9h1.7v9.2h-1.8c-.8-1.3-1.7-2.7-2.6-4.2-.6-1-1.1-1.9-1.7-2.8h-.1v.8c.1 2.3.1 4.4.1 6.3h-1.7v-9.2zM183.9 359.7c-.6-.6-.9-1.5-.9-2.8 0-.7.1-1.4.4-1.9.2-.6.6-1 1.1-1.3.5-.3 1.2-.5 1.9-.5 1.1 0 1.9.3 2.5.9.6.6.9 1.6.9 2.8 0 .7-.1 1.4-.4 1.9-.2.6-.6 1-1.1 1.3s-1.2.5-1.9.5c-1 0-1.9-.3-2.5-.9zm3.5-.6c.3-.2.5-.5.6-.8.1-.4.2-.9.2-1.4 0-.8-.1-1.4-.4-1.8-.3-.5-.8-.7-1.4-.7-.4 0-.7.1-1 .3-.3.2-.5.5-.6.8-.1.4-.2.9-.2 1.4 0 .8.1 1.4.4 1.8.3.5.8.7 1.4.7.4 0 .7-.1 1-.3z" class="st3"/>
  <path d="M305.4 110v30.4" class="st1"/>
  <path d="m298.6 132.5 6.8 6.7 6.7-6.7v5.7l-6.7 6.8-6.8-6.8z" class="st2"/>
  <path d="M480 245v-70H367.6" class="st1"/>
  <path d="m375.5 168.2-6.7 6.8 6.7 6.8h-5.7L363 175l6.8-6.8z" class="st2"/>
  <path d="M480 175h80v305h-40M305 205v30.4" class="st1"/>
  <path d="m298.2 227.5 6.8 6.7 6.8-6.7v5.7L305 240l-6.8-6.8z" class="st2"/>
  <path d="M305 510v30.4" class="st1"/>
  <path d="m298.2 532.5 6.8 6.7 6.8-6.7v5.7L305 545l-6.8-6.8z" class="st2"/>
  <path d="M305 395v50.4" class="st1"/>
  <path d="m298.2 437.5 6.8 6.7 6.8-6.7v5.7L305 450l-6.8-6.8z" class="st2"/>
  <path d="M120 365h118.4" class="st1"/>
  <path d="m230.5 371.8 6.7-6.8-6.7-6.8h5.7l6.8 6.8-6.8 6.8z" class="st2"/>
  <path d="M194.6 275.3h220.8" class="st1"/>
  <path d="m202.5 282.1-6.7-6.8 6.7-6.8h-5.7l-6.8 6.8 6.8 6.8zM407.5 282.1l6.7-6.8-6.7-6.8h5.7l6.8 6.8-6.8 6.8z" class="st2"/>
  <path d="m375 275.3-70 35-70-35 70-35z" class="st3"/>
  <path d="M281 278.8c-.7-.8-1.1-2-1.1-3.7 0-1 .1-1.9.4-2.6.3-.7.7-1.3 1.3-1.7.6-.4 1.4-.6 2.4-.6.6 0 1.1.1 1.6.2s1 .4 1.4.7v1.6c-.5-.3-.9-.6-1.4-.7-.5-.2-1-.2-1.4-.2-.5 0-1 .1-1.4.3s-.7.6-.9 1.1-.3 1.1-.3 1.9c0 1.1.2 1.9.7 2.5.4.6 1.1.9 2.1.9s2-.3 2.9-1v1.5c-.4.3-.8.5-1.4.7s-1.1.3-1.8.3c-1.4 0-2.4-.4-3.1-1.2zM289 279.1c-.6-.6-.9-1.5-.9-2.8 0-.7.1-1.4.4-1.9.2-.6.6-1 1.1-1.3.5-.3 1.2-.5 1.9-.5 1.1 0 1.9.3 2.5.9.6.6.9 1.6.9 2.8 0 .7-.1 1.4-.3 1.9-.2.6-.6 1-1.1 1.3s-1.2.5-1.9.5c-1.1 0-1.9-.3-2.6-.9zm3.5-.5c.3-.2.5-.5.6-.8.1-.4.2-.9.2-1.4 0-.8-.1-1.4-.4-1.8-.3-.5-.8-.7-1.4-.7-.4 0-.7.1-1 .3-.3.2-.5.5-.6.8-.1.4-.2.9-.2 1.4 0 .8.1 1.4.4 1.8.3.5.8.7 1.4.7.4-.1.8-.2 1-.3zM296.3 272.8h1.5v1.2h.1c.6-1 1.4-1.5 2.4-1.5.7 0 1.2.2 1.6.7.4.4.6 1.1.6 2.1v4.5H301v-3.9c0-1.3-.4-1.9-1.3-1.9-.3 0-.6.1-.8.2-.3.1-.5.4-.7.7-.2.3-.3.8-.3 1.4v3.5h-1.6v-7zM304.3 272.8h1.5v1.2h.1c.6-1 1.4-1.5 2.4-1.5.7 0 1.2.2 1.6.7.4.4.6 1.1.6 2.1v4.5h-1.6v-3.9c0-1.3-.4-1.9-1.3-1.9-.3 0-.6.1-.8.2-.3.1-.5.4-.7.7-.2.3-.3.8-.3 1.4v3.5h-1.6v-7zM312.8 279.1c-.6-.6-1-1.6-1-2.9 0-.7.1-1.4.3-1.9s.6-1 1.1-1.3c.5-.3 1.1-.5 1.9-.5 1 0 1.8.3 2.3.8s.8 1.4.8 2.5v.9h-4.9c0 .7.2 1.2.6 1.6.4.4 1 .6 1.8.6.4 0 .8-.1 1.2-.2.4-.1.8-.3 1.2-.6v1.2c-.3.2-.7.4-1.2.5-.4.1-.9.2-1.5.2-1.1 0-2-.3-2.6-.9zm3.6-4.9c-.3-.3-.7-.5-1.3-.5-.6 0-1 .2-1.3.5-.3.3-.5.8-.5 1.4h3.5c0-.6-.1-1-.4-1.4zM320.2 279.1c-.6-.6-.9-1.5-.9-2.8 0-.8.1-1.4.4-2s.6-1 1.1-1.3c.5-.3 1.1-.5 1.9-.5.4 0 .8.1 1.3.2.4.1.8.3 1.2.5v1.4c-.3-.2-.7-.4-1.1-.6-.4-.1-.8-.2-1.1-.2-.4 0-.8.1-1.1.3-.3.2-.5.4-.7.8-.2.4-.3.8-.3 1.4 0 .8.2 1.4.5 1.8.4.4.9.7 1.6.7.8 0 1.5-.3 2.2-.8v1.3c-.6.5-1.5.7-2.5.7-1.1 0-1.9-.3-2.5-.9zM327.6 279.6c-.3-.3-.5-.7-.6-1.1-.1-.4-.1-1-.1-1.7v-2.7h-1.2v-.6c.4-.2.8-.5 1.1-.9.3-.3.6-.8.8-1.4v-.1h.8v1.7h2v1.3h-2v3.8c0 .3.1.5.3.7.1.2.4.3.7.3.2 0 .3 0 .5-.1s.3-.1.5-.2v1.2c-.1.1-.3.1-.6.2-.2.1-.5.1-.8.1-.6-.1-1.1-.2-1.4-.5z" class="st2"/>
  <path d="m190 275.3-70 35-70-35 70-35z" class="st3"/>
  <path d="M73.4 270.6h1.7v9.2h-1.7v-9.2zM77.7 279.9c-.4-.1-.8-.3-1.1-.5V278c.4.3.8.5 1.2.6s.8.2 1.2.2c.4 0 .8-.1 1-.2s.4-.4.4-.7c0-.2-.1-.4-.2-.5-.2-.1-.4-.3-.7-.4-.3-.1-.5-.2-.6-.3s-.4-.2-.6-.3c-.5-.2-.9-.5-1.1-.8-.3-.3-.4-.7-.4-1.1 0-.4.1-.7.3-1s.5-.5.9-.7c.4-.2.9-.3 1.5-.3.4 0 .8.1 1.2.2.4.1.7.3 1.1.5v1.3c-.3-.2-.6-.4-1-.6-.4-.1-.8-.2-1.2-.2-.3 0-.6.1-.8.2-.2.1-.3.3-.3.5s.1.4.2.5c.2.1.4.3.8.5 0 0 .1 0 .1.1.4.2.8.4 1.2.5h.1c.3.1.5.3.7.4.2.1.3.3.5.5.1.2.2.5.2.8 0 .4-.1.8-.3 1.1-.2.3-.6.6-1 .8-.4.2-1 .3-1.6.3-.8.1-1.2.1-1.7 0zM86.2 272.8h1.5v1.2h.1c.3-.4.6-.8 1-1 .4-.3.9-.4 1.5-.4.5 0 1 .1 1.4.4.4.3.7.7 1 1.2.2.5.4 1.2.4 1.9s-.1 1.4-.3 2-.5 1.1-1 1.4c-.4.3-1 .5-1.7.5-.5 0-.9-.1-1.4-.3s-.7-.5-1-1h-.1v3.5h-1.5v-9.4zm4.4 5.7c.3-.2.5-.5.6-.9.1-.4.2-.8.2-1.4 0-.8-.2-1.4-.5-1.8-.3-.4-.8-.7-1.3-.7-.4 0-.7.1-1 .3-.3.2-.5.5-.7.9-.2.4-.3.9-.3 1.4 0 .8.2 1.4.5 1.8.3.4.8.7 1.4.7.5 0 .9-.1 1.1-.3zM94.5 272.8H96v1.4c.1-.5.3-.9.6-1.2.3-.3.7-.4 1.2-.4.4 0 .7.1 1 .3v1.5c-.4-.3-.8-.4-1.1-.4-.3 0-.6.1-.9.3-.3.2-.5.5-.6 1-.1.4-.2.9-.2 1.5v3h-1.6v-7zM100.5 279.1c-.6-.6-.9-1.5-.9-2.8 0-.7.1-1.4.4-1.9.2-.6.6-1 1.1-1.3.5-.3 1.2-.5 1.9-.5 1.1 0 1.9.3 2.5.9.6.6.9 1.6.9 2.8 0 .7-.1 1.4-.4 1.9-.2.6-.6 1-1.1 1.3s-1.2.5-1.9.5c-1.1 0-1.9-.3-2.5-.9zm3.5-.5c.3-.2.5-.5.6-.8s.2-.9.2-1.4c0-.8-.1-1.4-.4-1.8-.3-.5-.8-.7-1.4-.7-.4 0-.7.1-1 .3-.3.2-.5.5-.6.8-.1.4-.2.9-.2 1.4 0 .8.1 1.4.4 1.8.3.5.8.7 1.4.7.4-.1.7-.2 1-.3zM111.5 270.1c.3.1.5.2.7.3v1.3l-.6-.3c-.2-.1-.5-.1-.7-.1-.5 0-.8.1-.9.4s-.2.6-.2 1v.7h2v1.3h-2v5.1h-1.6v-5.1h-.9v-1.3h.9v-.7c0-.4 0-.8.1-1.2.1-.4.3-.7.7-1 .4-.3.9-.5 1.6-.5.3 0 .6.1.9.1zM113.4 279.1c-.6-.6-1-1.6-1-2.9 0-.7.1-1.4.3-1.9s.6-1 1.1-1.3c.5-.3 1.1-.5 1.9-.5 1 0 1.8.3 2.3.8.6.5.8 1.4.8 2.5v.9H114c0 .7.2 1.2.6 1.6.4.4 1 .6 1.8.6.4 0 .8-.1 1.2-.2.4-.1.8-.3 1.2-.6v1.2c-.3.2-.7.4-1.2.5-.4.1-.9.2-1.5.2-1.2 0-2.1-.3-2.7-.9zm3.6-4.9c-.3-.3-.7-.5-1.3-.5-.6 0-1 .2-1.3.5-.3.3-.5.8-.5 1.4h3.5c0-.6-.1-1-.4-1.4zM121 279.9c-.4-.1-.8-.3-1.1-.5V278c.4.3.8.5 1.2.6s.8.2 1.2.2c.4 0 .8-.1 1-.2s.4-.4.4-.7c0-.2-.1-.4-.2-.5-.2-.1-.4-.3-.7-.4-.3-.1-.5-.2-.6-.3s-.4-.2-.6-.3c-.5-.2-.9-.5-1.1-.8-.3-.3-.4-.7-.4-1.1 0-.4.1-.7.3-1s.5-.5.9-.7c.4-.2.9-.3 1.5-.3.4 0 .8.1 1.2.2.4.1.7.3 1.1.5v1.3c-.3-.2-.6-.4-1-.6-.4-.1-.8-.2-1.2-.2-.3 0-.6.1-.8.2-.2.1-.3.3-.3.5s.1.4.2.5c.2.1.4.3.8.5 0 0 .1 0 .1.1.4.2.8.4 1.2.5h.1c.3.1.5.3.7.4.2.1.3.3.5.5.1.2.2.5.2.8 0 .4-.1.8-.3 1.1-.2.3-.6.6-1 .8-.4.2-1 .3-1.6.3-.9.1-1.3.1-1.7 0zM127.3 279.9c-.4-.1-.8-.3-1.1-.5V278c.4.3.8.5 1.2.6s.8.2 1.2.2c.4 0 .8-.1 1-.2s.4-.4.4-.7c0-.2-.1-.4-.2-.5-.2-.1-.4-.3-.7-.4-.3-.1-.5-.2-.6-.3l-.6-.3c-.5-.2-.9-.5-1.1-.8-.3-.3-.4-.7-.4-1.1 0-.4.1-.7.3-1 .2-.3.5-.5.9-.7.4-.2.9-.3 1.5-.3.4 0 .8.1 1.2.2.4.1.7.3 1.1.5v1.3c-.3-.2-.6-.4-1-.6-.4-.1-.8-.2-1.2-.2-.3 0-.6.1-.8.2-.2.1-.3.3-.3.5s.1.4.2.5c.2.1.4.3.8.5 0 0 .1 0 .1.1.4.2.8.4 1.2.5h.1c.3.1.5.3.7.4.2.1.3.3.5.5.1.2.2.5.2.8 0 .4-.1.8-.3 1.1-.2.3-.6.6-1 .8s-1 .3-1.6.3c-.9.1-1.3.1-1.7 0zM133 271.9c-.1-.1-.2-.3-.2-.6 0-.2.1-.4.2-.6.1-.1.4-.2.7-.2.3 0 .6.1.7.2s.2.3.2.6c0 .2-.1.4-.2.6s-.4.2-.7.2c-.4 0-.6-.1-.7-.2zm.6.9c.2 0 .5 0 .8-.1v7h-1.6v-7c.4.1.6.1.8.1zM136.7 279.1c-.6-.6-.9-1.5-.9-2.8 0-.7.1-1.4.4-1.9.2-.6.6-1 1.1-1.3.5-.3 1.2-.5 1.9-.5 1.1 0 1.9.3 2.5.9.6.6.9 1.6.9 2.8 0 .7-.1 1.4-.3 1.9-.2.6-.6 1-1.1 1.3s-1.2.5-1.9.5c-1.1 0-2-.3-2.6-.9zm3.5-.5c.3-.2.5-.5.6-.8.1-.4.2-.9.2-1.4 0-.8-.1-1.4-.4-1.8-.3-.5-.8-.7-1.4-.7-.4 0-.7.1-1 .3-.3.2-.5.5-.6.8-.1.4-.2.9-.2 1.4 0 .8.1 1.4.4 1.8.3.5.8.7 1.4.7.4-.1.7-.2 1-.3zM144 272.8h1.5v1.2h.1c.6-1 1.4-1.5 2.4-1.5.7 0 1.2.2 1.6.7.4.4.6 1.1.6 2.1v4.5h-1.6v-3.9c0-1.3-.4-1.9-1.3-1.9-.3 0-.6.1-.8.2-.3.1-.5.4-.7.7-.2.3-.3.8-.3 1.4v3.5H144v-7zM152 279.6c-.4-.3-.6-.7-.6-1.3 0-.6.2-1 .5-1.3.4-.3.8-.6 1.4-.7l.4-.1c.4-.1.7-.2 1-.3s.5-.2.7-.4c.2-.2.3-.4.3-.6 0-.3-.1-.5-.3-.7-.2-.2-.5-.3-.9-.3s-.8.1-1.2.3c-.4.2-.8.4-1.2.7v-1.4c.3-.3.7-.5 1.2-.6.5-.2 1-.2 1.5-.2.8 0 1.4.2 1.8.6.4.4.6 1 .6 1.8V277.8c0 .5.1.8.1 1.2.1.3.1.6.2 1H156c-.1-.3-.2-.7-.3-1.3h-.1c-.2.5-.6.9-1 1.2-.4.3-.9.4-1.4.4-.4-.3-.9-.4-1.2-.7zm2.7-1c.3-.2.5-.5.7-.8.2-.3.3-.7.3-1.2v-.4c-.1.2-.3.3-.5.4-.2.1-.5.2-.8.3l-.4.1c-.3.1-.6.2-.7.4-.2.2-.3.4-.3.7s.1.5.3.6c.2.1.4.2.6.2.2 0 .5-.1.8-.3zM159 279.8v-9.5h1.6v9.5H159zM163.7 276.3c.1-.3.3-.6.4-.8.2-.2.4-.5.6-.8.3-.4.6-.7.7-1 .2-.3.2-.6.2-.9 0-.4-.1-.7-.4-.9s-.6-.3-1.1-.3c-.4 0-.8.1-1.2.3-.4.2-.8.5-1.2.9v-1.4c.8-.7 1.7-1 2.8-1 .8 0 1.5.2 2 .5.5.4.7.9.7 1.7 0 .4-.1.7-.2 1-.1.3-.3.6-.4.8-.2.2-.4.5-.7.8-.4.4-.7.8-.9 1.1-.2.3-.3.7-.3 1.1h-1.3c.2-.4.2-.8.3-1.1zm-.1 3.5c-.2-.2-.3-.4-.3-.7 0-.3.1-.5.3-.7.2-.2.4-.3.7-.3.3 0 .5.1.7.3s.3.4.3.7c0 .3-.1.5-.3.7-.2.2-.4.2-.7.2-.3 0-.6-.1-.7-.2z" class="st2"/>
  <circle cx="305" cy="595" r="50" class="st3"/>
  <path d="M288.4 582.4c-.6-.4-1.1-.9-1.5-1.6-.3-.7-.5-1.6-.5-2.7 0-1 .2-1.9.5-2.6.3-.7.8-1.3 1.4-1.7.6-.4 1.4-.6 2.3-.6.6 0 1.1.1 1.7.2.5.2 1 .4 1.4.7v1.6c-.5-.3-.9-.5-1.4-.7-.5-.2-.9-.3-1.5-.3s-1 .1-1.4.3c-.4.2-.7.6-.9 1.1-.2.5-.3 1.1-.3 1.9 0 .7.1 1.4.3 1.9.2.5.5.9.9 1.2.4.3.9.4 1.6.4.3 0 .7 0 .9-.1.3-.1.5-.2.6-.4v-2.9h1.6v3.6c-.3.4-.8.7-1.3.9s-1.2.3-2 .3c-1 0-1.7-.1-2.4-.5zM295.6 575.7h1.5v1.4h.1c.1-.5.3-.9.6-1.2.3-.3.7-.4 1.2-.4.4 0 .7.1 1 .3v1.5c-.4-.3-.8-.4-1.1-.4-.3 0-.6.1-.9.3-.3.2-.5.5-.6 1-.1.4-.2.9-.2 1.5v3h-1.6v-7zM301.6 582c-.6-.6-.9-1.5-.9-2.8 0-.7.1-1.4.4-1.9.2-.6.6-1 1.1-1.3.5-.3 1.2-.5 1.9-.5 1.1 0 1.9.3 2.5.9.6.6.9 1.6.9 2.8 0 .7-.1 1.4-.4 1.9-.2.6-.6 1-1.1 1.3s-1.2.5-1.9.5c-1.1 0-1.9-.3-2.5-.9zm3.5-.5c.3-.2.5-.5.6-.8s.2-.9.2-1.4c0-.8-.1-1.4-.4-1.8-.3-.5-.8-.7-1.4-.7-.4 0-.7.1-1 .3-.3.2-.5.5-.6.8s-.2.9-.2 1.4c0 .8.1 1.4.4 1.8s.8.7 1.4.7c.4-.1.7-.2 1-.3zM308.8 580.3v-4.6h1.6v4.1c0 .5.1 1 .2 1.3.1.4.5.6 1 .6.4 0 .8-.2 1.1-.5s.5-.7.7-1.1v-4.4h1.6v7h-1.5v-1.3h-.1c-.2.4-.6.8-1 1.1-.4.3-.9.4-1.5.4-1.4 0-2.1-.8-2.1-2.6zM316.7 575.7h1.5v1.2h.1c.3-.4.6-.8 1-1 .4-.3.9-.4 1.5-.4.5 0 1 .1 1.4.4.4.3.7.7 1 1.2.2.5.4 1.2.4 1.9s-.1 1.4-.3 2-.5 1.1-1 1.4c-.4.3-1 .5-1.7.5-.5 0-.9-.1-1.4-.3s-.7-.5-1-1h-.1v3.5h-1.5v-9.4zm4.5 5.7c.3-.2.5-.5.6-.9s.2-.8.2-1.4c0-.8-.2-1.4-.5-1.8s-.8-.7-1.3-.7c-.4 0-.7.1-1 .3-.3.2-.5.5-.7.9-.2.4-.3.9-.3 1.4 0 .8.2 1.4.5 1.8.3.4.8.7 1.4.7.4 0 .8-.1 1.1-.3zM282.7 599.3c-.3-.3-.5-.7-.6-1.1-.1-.4-.1-1-.1-1.7v-2.7h-1.2v-.6c.4-.2.8-.5 1.1-.9.3-.3.6-.8.8-1.4v-.1h.8v1.7h2v1.3h-2v3.8c0 .3.1.5.3.7.1.2.4.3.7.3.2 0 .3 0 .5-.1s.3-.1.5-.2v1.2c-.1.1-.3.1-.6.2-.2.1-.5.1-.8.1-.6-.1-1.1-.2-1.4-.5zM286.7 590h1.6v3.7h.1c.3-.5.6-.8 1-1.1.4-.3.9-.4 1.4-.4.7 0 1.2.2 1.6.7.4.4.6 1.1.6 2.1v4.5h-1.6v-3.9c0-1.3-.4-1.9-1.3-1.9-.3 0-.6.1-.8.2-.3.1-.5.4-.7.7-.2.3-.3.8-.3 1.4v3.5h-1.6V590zM295.2 598.8c-.6-.6-1-1.6-1-2.9 0-.7.1-1.4.3-1.9s.6-1 1.1-1.3c.5-.3 1.1-.5 1.9-.5 1 0 1.8.3 2.3.8s.8 1.4.8 2.5v.9h-4.9c0 .7.2 1.2.6 1.6s1 .6 1.8.6c.4 0 .8-.1 1.2-.2.4-.1.8-.3 1.2-.6v1.2c-.3.2-.7.4-1.2.5s-.9.2-1.5.2c-1 0-1.9-.3-2.6-.9zm3.7-4.9c-.3-.3-.7-.5-1.3-.5-.6 0-1 .2-1.3.5-.3.3-.5.8-.5 1.4h3.5c0-.6-.1-1-.4-1.4zM302.1 592.5h1.5v1.4h.1c.1-.5.3-.9.6-1.2.3-.3.7-.4 1.2-.4.4 0 .7.1 1 .3v1.5c-.4-.3-.8-.4-1.1-.4-.3 0-.6.1-.9.3s-.5.5-.6 1c-.1.4-.2.9-.2 1.5v3h-1.6v-7zM307.6 599.3c-.4-.3-.6-.7-.6-1.3 0-.6.2-1 .5-1.3.4-.3.8-.6 1.4-.7l.4-.1c.4-.1.7-.2 1-.3.3-.1.5-.2.7-.4s.3-.4.3-.6c0-.3-.1-.5-.3-.7s-.5-.3-.9-.3-.8.1-1.2.3c-.4.2-.8.4-1.2.7v-1.4c.3-.3.7-.5 1.2-.6s1-.2 1.5-.2c.8 0 1.4.2 1.8.6.4.4.6 1 .6 1.8V597.5c0 .5.1.8.1 1.2s.1.6.2 1h-1.5c-.1-.3-.2-.7-.3-1.3h-.1c-.2.5-.6.9-1 1.2s-.9.4-1.4.4c-.3-.3-.8-.4-1.2-.7zm2.8-1c.3-.2.5-.5.7-.8.2-.3.3-.7.3-1.2v-.4c-.1.2-.3.3-.5.4-.2.1-.5.2-.8.3l-.4.1c-.3.1-.6.2-.7.4-.2.2-.3.4-.3.7s.1.5.3.6.4.2.6.2c.2 0 .5-.1.8-.3zM314.7 592.5h1.5v1.2h.1c.3-.4.6-.8 1-1 .4-.3.9-.4 1.5-.4.5 0 1 .1 1.4.4.4.3.7.7 1 1.2.2.5.4 1.2.4 1.9s-.1 1.4-.3 2-.5 1.1-1 1.4c-.4.3-1 .5-1.7.5-.5 0-.9-.1-1.4-.3s-.7-.5-1-1h-.1v3.5h-1.5v-9.4zm4.4 5.7c.3-.2.5-.5.6-.9s.2-.8.2-1.4c0-.8-.2-1.4-.5-1.8s-.8-.7-1.3-.7c-.4 0-.7.1-1 .3-.3.2-.5.5-.7.9-.2.4-.3.9-.3 1.4 0 .8.2 1.4.5 1.8.3.4.8.7 1.4.7.5 0 .8-.1 1.1-.3zM322.8 602c-.3-.1-.6-.2-.8-.3v-1.3c.2.1.4.2.7.3.3.1.6.1.9.1.3 0 .5-.1.7-.2s.3-.4.3-.7c0-.2 0-.4-.1-.7-.1-.2-.2-.6-.3-1l-2-5.8h1.6c.3 1 .7 1.9 1 2.8.2.6.5 1.6.9 3.1h.1c.1-.3.1-.6.2-.9l.3-1.2c.1-.4.2-.7.3-1.1.3-.8.6-1.8.9-2.8h1.6l-2.1 6.1-.4 1c-.3.9-.7 1.5-1.1 1.9-.4.4-1 .6-1.7.6-.3.2-.6.2-1 .1zM292.9 615.6c-.6-.6-.9-1.5-.9-2.8 0-.8.1-1.4.4-2 .3-.6.6-1 1.1-1.3.5-.3 1.1-.5 1.9-.5.4 0 .8.1 1.3.2.4.1.8.3 1.2.5v1.4c-.3-.2-.7-.4-1.1-.6-.4-.1-.8-.2-1.1-.2-.4 0-.8.1-1.1.3-.3.2-.5.4-.7.8-.2.4-.3.8-.3 1.4 0 .8.2 1.4.5 1.8.4.4.9.7 1.6.7.8 0 1.5-.3 2.2-.8v1.3c-.6.5-1.5.7-2.5.7s-1.9-.3-2.5-.9zM299.2 606.8h1.6v3.7h.1c.3-.5.6-.8 1-1.1.4-.3.9-.4 1.4-.4.7 0 1.2.2 1.6.7.4.4.6 1.1.6 2.1v4.5h-1.6v-3.9c0-1.3-.4-1.9-1.3-1.9-.3 0-.6.1-.8.2-.3.1-.5.4-.7.7-.2.3-.3.8-.3 1.4v3.5h-1.6v-9.5zM307.2 616.1c-.4-.3-.6-.7-.6-1.3 0-.6.2-1 .5-1.3s.8-.6 1.4-.7l.4-.1c.4-.1.7-.2 1-.3.3-.1.5-.2.7-.4s.3-.4.3-.6c0-.3-.1-.5-.3-.7-.2-.2-.5-.3-.9-.3s-.8.1-1.2.3-.8.4-1.2.7V610c.3-.3.7-.5 1.2-.6.5-.2 1-.2 1.5-.2.8 0 1.4.2 1.8.6.4.4.6 1 .6 1.8V614.3c0 .5.1.8.1 1.2.1.3.1.6.2 1h-1.5c-.1-.3-.2-.7-.3-1.3h.1c-.2.5-.6.9-1 1.2-.4.3-.9.4-1.4.4-.6-.3-1.1-.4-1.4-.7zm2.7-1c.3-.2.5-.5.7-.8.2-.3.3-.7.3-1.2v-.4c-.1.2-.3.3-.5.4-.2.1-.5.2-.8.3l-.4.1c-.3.1-.6.2-.7.4s-.3.4-.3.7.1.5.3.6.4.2.6.2c.2 0 .5-.1.8-.3zM315.3 616.1c-.3-.3-.5-.7-.6-1.1-.1-.4-.1-1-.1-1.7v-2.7h-1.2v-.6c.4-.2.8-.5 1.1-.9.3-.3.6-.8.8-1.4v-.1h.8v1.7h2v1.3h-2v3.8c0 .3.1.5.3.7.1.2.4.3.7.3.2 0 .3 0 .5-.1s.3-.1.5-.2v1.2c-.1.1-.3.1-.6.2-.2.1-.5.1-.8.1-.6-.1-1.1-.2-1.4-.5z" class="st2"/>
  <circle cx="480" cy="480" r="50" class="st3"/>
  <path d="M446.7 475.3h3.4c1.2 0 2.2.4 3 1.1.7.7 1.1 1.9 1.1 3.5 0 1-.2 1.8-.5 2.5s-.8 1.2-1.5 1.6c-.7.4-1.5.6-2.6.6h-3v-9.3zm.9 7.7h2.2c.5 0 1-.1 1.4-.3.4-.2.7-.6 1-1s.4-1.1.4-1.8c0-1-.2-1.7-.7-2.3s-1.1-.9-2-.9h-2.3l.7-.7v7.8l-.7-.8zM455.8 476.6c-.1-.1-.2-.3-.2-.6 0-.2.1-.4.2-.6.1-.1.4-.2.7-.2.3 0 .5.1.7.2s.2.3.2.6c0 .2-.1.4-.2.6s-.4.2-.7.2c-.3 0-.5-.1-.7-.2zm.7.9c.2 0 .5 0 .8-.1v7h-1.6v-7c.3.1.6.1.8.1zM459.8 484.6c-.4-.1-.8-.3-1.1-.5v-1.3c.4.3.8.5 1.2.6s.8.2 1.2.2c.4 0 .8-.1 1-.2s.4-.4.4-.7c0-.2-.1-.4-.2-.5-.2-.1-.4-.3-.7-.4-.3-.1-.5-.2-.6-.3l-.6-.3c-.5-.2-.9-.5-1.1-.8-.3-.3-.4-.7-.4-1.1 0-.4.1-.7.3-1 .2-.3.5-.5.9-.7.4-.2.9-.3 1.5-.3.4 0 .8.1 1.2.2s.7.3 1.1.5v1.3c-.3-.2-.6-.4-1-.6-.4-.1-.8-.2-1.2-.2-.3 0-.6.1-.8.2-.2.1-.3.3-.3.5s.1.4.2.5c.2.1.4.3.8.5 0 0 .1 0 .1.1.4.2.8.4 1.2.5h.1c.3.1.5.3.7.4s.3.3.5.5c.1.2.2.5.2.8 0 .4-.1.8-.3 1.1-.2.3-.6.6-1 .8s-1 .3-1.6.3c-.8 0-1.3 0-1.7-.1zM465.9 483.8c-.6-.6-.9-1.5-.9-2.8 0-.8.1-1.4.4-2 .3-.6.6-1 1.1-1.3.5-.3 1.1-.5 1.9-.5.4 0 .8.1 1.3.2.4.1.8.3 1.2.5v1.4c-.3-.2-.7-.4-1.1-.6-.4-.1-.8-.2-1.1-.2-.4 0-.8.1-1.1.3-.3.2-.5.4-.7.8-.2.4-.3.8-.3 1.4 0 .8.2 1.4.5 1.8s.9.7 1.6.7c.8 0 1.5-.3 2.2-.8v1.3c-.6.5-1.5.7-2.5.7s-1.9-.3-2.5-.9zM472.7 483.8c-.6-.6-.9-1.5-.9-2.8 0-.7.1-1.4.4-1.9.2-.6.6-1 1.1-1.3.5-.3 1.2-.5 1.9-.5 1.1 0 1.9.3 2.5.9.6.6.9 1.6.9 2.8 0 .7-.1 1.4-.4 1.9-.2.6-.6 1-1.1 1.3s-1.2.5-1.9.5c-1 0-1.9-.3-2.5-.9zm3.5-.5c.3-.2.5-.5.6-.8s.2-.9.2-1.4c0-.8-.1-1.4-.4-1.8-.3-.5-.8-.7-1.4-.7-.4 0-.7.1-1 .3-.3.2-.5.5-.6.8s-.2.9-.2 1.4c0 .8.1 1.4.4 1.8s.8.7 1.4.7c.4-.1.7-.2 1-.3zM480 477.5h1.5v1.2h.1c.6-1 1.4-1.5 2.4-1.5.7 0 1.2.2 1.6.7.4.4.6 1.1.6 2.1v4.5h-1.6v-3.9c0-1.3-.4-1.9-1.3-1.9-.3 0-.6.1-.8.2-.3.1-.5.4-.7.7-.2.3-.3.8-.3 1.4v3.5H480v-7zM488 477.5h1.5v1.2h.1c.6-1 1.4-1.5 2.4-1.5.7 0 1.2.2 1.6.7.4.4.6 1.1.6 2.1v4.5h-1.6v-3.9c0-1.3-.4-1.9-1.3-1.9-.3 0-.6.1-.8.2-.3.1-.5.4-.7.7-.2.3-.3.8-.3 1.4v3.5H488v-7zM496.4 483.8c-.6-.6-1-1.6-1-2.9 0-.7.1-1.4.3-1.9s.6-1 1.1-1.3 1.1-.5 1.9-.5c1 0 1.8.3 2.3.8.6.5.8 1.4.8 2.5v.9H497c0 .7.2 1.2.6 1.6s1 .6 1.8.6c.4 0 .8-.1 1.2-.2.4-.1.8-.3 1.2-.6v1.2c-.3.2-.7.4-1.2.5-.4.1-.9.2-1.5.2-1.1 0-2-.3-2.7-.9zm3.7-4.9c-.3-.3-.7-.5-1.3-.5-.6 0-1 .2-1.3.5-.3.3-.5.8-.5 1.4h3.5c0-.6-.1-1-.4-1.4zM503.8 483.8c-.6-.6-.9-1.5-.9-2.8 0-.8.1-1.4.4-2 .3-.6.6-1 1.1-1.3.5-.3 1.1-.5 1.9-.5.4 0 .8.1 1.3.2.4.1.8.3 1.2.5v1.4c-.3-.2-.7-.4-1.1-.6-.4-.1-.8-.2-1.1-.2-.4 0-.8.1-1.1.3-.3.2-.5.4-.7.8-.2.4-.3.8-.3 1.4 0 .8.2 1.4.5 1.8.4.4.9.7 1.6.7.8 0 1.5-.3 2.2-.8v1.3c-.6.5-1.5.7-2.5.7s-1.8-.3-2.5-.9zM511.2 484.3c-.3-.3-.5-.7-.6-1.1-.1-.4-.1-1-.1-1.7v-2.7h-1.2v-.6c.4-.2.8-.5 1.1-.9.3-.3.6-.8.8-1.4v-.1h.8v1.7h2v1.3h-2v3.8c0 .3.1.5.3.7.1.2.4.3.7.3.2 0 .3 0 .5-.1s.3-.1.5-.2v1.2c-.1.1-.3.1-.6.2-.2.1-.5.1-.8.1-.5-.1-1-.2-1.4-.5z" class="st2"/>
</svg>