<?xml version="1.0" encoding="utf-8"?>
<!-- Generator: Adobe Illustrator 27.9.0, SVG Export Plug-In . SVG Version: 6.00 Build 0)  -->
<svg version="1.1" id="Layer_1" xmlns="http://www.w3.org/2000/svg" xmlns:xlink="http://www.w3.org/1999/xlink" x="0px" y="0px"
	 viewBox="0 0 610 695" style="enable-background:new 0 0 610 695;" xml:space="preserve">
<style type="text/css">
	.st0{fill:#F9C3B7;}
	.st1{fill:none;stroke:#FFFFFF;stroke-width:4;stroke-miterlimit:10;}
	.st2{fill:#FFFFFF;}
	.st3{fill:#034AA6;}
</style>
<path class="st0" d="M305,695L305,695C136.6,695,0,558.4,0,390v-85C0,136.6,136.6,0,305,0h0c168.4,0,305,136.6,305,305v85
	C610,558.4,473.4,695,305,695z"/>
<g>
	<g>
		<line class="st1" x1="166" y1="480" x2="238.4" y2="480"/>
		<g>
			<polygon class="st2" points="230.5,486.8 237.2,480 230.5,473.2 236.2,473.2 243,480 236.2,486.8 			"/>
		</g>
	</g>
</g>
<g>
	<g>
		<line class="st1" x1="353" y1="480" x2="425.4" y2="480"/>
		<g>
			<polygon class="st2" points="417.5,486.8 424.2,480 417.5,473.2 423.2,473.2 430,480 423.2,486.8 			"/>
		</g>
	</g>
</g>
<g>
	<g>
		<line class="st1" x1="120" y1="275" x2="120" y2="445.4"/>
		<g>
			<polygon class="st2" points="113.2,437.5 120,444.2 126.8,437.5 126.8,443.2 120,450 113.2,443.2 			"/>
		</g>
	</g>
</g>
<g>
	<g>
		<path class="st3" d="M338,110h-70c-16.6,0-30-13.4-30-30v0c0-16.6,13.4-30,30-30h70c16.6,0,30,13.4,30,30v0
			C368,96.6,354.6,110,338,110z"/>
	</g>
	<g id="Layer_1-2">
		<path class="st0" d="M312.9,88.3c3.3,0,5.5-1.9,5.5-4.4c0-1.7-1-2.2-1.8-2.6c-0.5-0.2-1.1-0.5-1.6-0.7c-1-0.4-1.9-0.9-1.9-1.5
			c0-0.7,0.8-1.2,2-1.2c1.3,0,2.6,0.5,3.5,1.3l0.5-2.7c-1.1-0.8-2.5-1.1-4-1.1c-3.4,0-5.7,1.8-5.7,4.1c0,1.5,0.9,2.4,2.1,2.9
			c0.5,0.2,1.5,0.6,2,0.8c0.7,0.3,1.3,0.6,1.3,1.2c0,0.7-0.6,1.1-1.6,1.1c-1.8,0-4.1-1.1-6.2-3.4c0.4,0.4,0.6,1.2,0.6,1.8
			s-0.2,1.5-0.5,2C308.5,87.4,310.6,88.3,312.9,88.3L312.9,88.3z M296.5,87.2l0.5-2.8c1.2,0.8,2.6,1.3,4,1.3c1.4,0,2.3-0.5,2.3-1.3
			c0-0.6-0.6-0.9-1.3-1.2c-0.5-0.2-1.5-0.6-2-0.8c-1.1-0.5-2.1-1.4-2.1-2.9c0-2.3,2.3-4.1,5.4-4.1s4.4,1,6.1,2.3
			c-0.3,0.4-0.5,1.1-0.5,1.8s0.1,1.1,0.5,1.8c-1.6-1.8-3.4-3.3-5.8-3.3c-1.1,0-2,0.5-2,1.2c0,0.6,0.9,1.1,1.9,1.5
			c0.6,0.2,1.1,0.5,1.6,0.7c0.8,0.4,1.9,0.9,1.9,2.6c0,2.6-2.4,4.4-6.3,4.4C299.1,88.3,297.4,88,296.5,87.2L296.5,87.2z"/>
		<path class="st0" d="M253.7,79.6l0.5-3.1H253l0.1-0.3c1-0.4,1.7-1.1,2.2-2.3h0.4l-0.3,1.8h2l-0.2,0.8h-2l-0.5,3
			c-0.3,1.5-0.4,2.4,0.5,2.4c0.4,0,0.7-0.1,1-0.4l-0.2,0.9c-0.2,0.1-0.7,0.3-1.2,0.3C253.1,82.7,253.4,81.1,253.7,79.6z"/>
		<path class="st0" d="M259.1,73.2h1l-0.6,3.7h0.1c0.6-0.8,1.5-1.4,2.6-1.4c1.3,0,2.1,0.8,1.7,2.8l-0.8,4.3h-1l0.7-3.9
			c0.2-1.4,0-2.3-1.1-2.3c-0.8,0-2.2,0.5-2.6,2.7l-0.6,3.4h-1L259.1,73.2L259.1,73.2z"/>
		<path class="st0" d="M265.1,79.9c0-2.5,1.5-4.5,3.9-4.5c1.7,0,2.7,1,2.3,3.1l-0.2,0.8h-5c-0.3,1.5,0.3,2.5,2.1,2.5
			c0.7,0,1.4-0.2,2.5-0.8l-0.2,0.9c-0.7,0.4-1.5,0.7-2.6,0.7C266.2,82.7,265.1,82,265.1,79.9L265.1,79.9z M270.3,78.5
			c0.2-1.3-0.1-2.2-1.5-2.2c-1.2,0-2.2,0.7-2.5,2.2H270.3z"/>
		<path class="st0" d="M272,87.2l0.5-2.8c1.2,0.8,2.6,1.3,4,1.3s2.3-0.5,2.3-1.3c0-0.6-0.6-0.9-1.3-1.2c-0.5-0.2-1.5-0.6-2-0.8
			c-1.1-0.6-2.1-1.4-2.1-2.9c0-2.3,2.2-4.1,5.7-4.1c1.5,0,3,0.3,4,1.1l-0.5,2.7c-0.9-0.8-2.2-1.3-3.5-1.3c-1.1,0-2,0.5-2,1.2
			c0,0.6,0.9,1,1.9,1.5c0.6,0.2,1.1,0.5,1.6,0.8c0.8,0.4,1.9,0.9,1.9,2.6c0,2.6-2.4,4.4-6.3,4.4C274.6,88.3,273,88,272,87.2
			L272,87.2z"/>
		<path class="st0" d="M284,83.1c0-4.4,2.8-7.8,7.4-7.8c3.4,0,5.4,1.8,4.6,5.9l-0.3,1.6h-8.2c-0.3,1.7,0.6,2.9,3.1,2.9
			c1.3,0,2.7-0.3,4.4-1.1l-0.5,2.7c-1.1,0.6-2.8,1-4.9,1C286.1,88.3,284,86.9,284,83.1L284,83.1z M293,80.5c0.3-1.6-0.2-2.7-1.9-2.7
			c-1.5,0-2.7,0.8-3,2.7H293L293,80.5z"/>
		<path class="st0" d="M323.6,75.8c0.6,0,1.2-0.1,1.9-0.2l-2.2,12.2h-3.7l2.1-12.2C322.4,75.8,322.9,75.8,323.6,75.8z M324.4,71.7
			c1.2,0,1.7,0.4,1.7,1.1c0,1.3-0.8,1.9-2.2,1.9c-1.1,0-1.7-0.3-1.7-1.1C322.1,72.3,322.9,71.7,324.4,71.7L324.4,71.7z"/>
		<path class="st0" d="M326.3,83.2c0-4.5,2.9-7.9,7.7-7.9c3.1,0,5.1,1.4,5.1,5.1c0,4.5-2.9,7.9-7.7,7.9
			C328.2,88.3,326.3,86.9,326.3,83.2L326.3,83.2z M331.9,85.6c2.2,0,3.6-2.4,3.6-4.9c0-1.7-0.6-2.7-2-2.7c-2.2,0-3.5,2.4-3.5,5
			C329.9,84.6,330.5,85.6,331.9,85.6z"/>
		<path class="st0" d="M342,75.7h3.6l-0.4,2.1h0.1c1.2-1.5,2.7-2.5,4.6-2.5c2.2,0,3.5,1.3,2.9,4.6l-1.4,8h-3.7l1.2-6.7
			c0.3-1.6,0-2.7-1.4-2.7c-1.1,0-2.5,0.7-2.9,3.2l-1.1,6.2h-3.7L342,75.7L342,75.7z"/>
	</g>
</g>
<polygon class="st3" points="358.8,205 238.8,205 247.2,145 367.2,145 "/>
<g>
	<path class="st0" d="M279,170.3h1.7v8.4L280,178h5.1v1.5h-6V170.3z"/>
	<path class="st0" d="M286.2,179.3c-0.4-0.3-0.6-0.7-0.6-1.3c0-0.6,0.2-1,0.5-1.3c0.4-0.3,0.8-0.6,1.4-0.7l0.4-0.1
		c0.4-0.1,0.7-0.2,1-0.3c0.3-0.1,0.5-0.2,0.7-0.4c0.2-0.2,0.3-0.4,0.3-0.6c0-0.3-0.1-0.5-0.3-0.7c-0.2-0.2-0.5-0.3-0.9-0.3
		c-0.4,0-0.8,0.1-1.2,0.3s-0.8,0.4-1.2,0.7v-1.4c0.3-0.3,0.7-0.5,1.2-0.6c0.5-0.2,1-0.2,1.5-0.2c0.8,0,1.4,0.2,1.8,0.6
		s0.6,1,0.6,1.8c0,0.3,0,0.6,0,0.7c0,0.2,0,0.4,0,0.7c0,0.2,0,0.5,0,0.7s0,0.4,0,0.6c0,0.5,0.1,0.8,0.1,1.2c0.1,0.3,0.1,0.6,0.2,1
		h-1.5c-0.1-0.3-0.2-0.7-0.3-1.3H290c-0.2,0.5-0.6,0.9-1,1.2c-0.4,0.3-0.9,0.4-1.4,0.4C287,179.7,286.6,179.6,286.2,179.3z
		 M288.9,178.3c0.3-0.2,0.5-0.5,0.7-0.8c0.2-0.3,0.3-0.7,0.3-1.2v-0.4c-0.1,0.2-0.3,0.3-0.5,0.4c-0.2,0.1-0.5,0.2-0.8,0.3l-0.4,0.1
		c-0.3,0.1-0.6,0.2-0.7,0.4c-0.2,0.2-0.3,0.4-0.3,0.7s0.1,0.5,0.3,0.6c0.2,0.1,0.4,0.2,0.6,0.2C288.3,178.6,288.6,178.5,288.9,178.3
		z"/>
	<path class="st0" d="M293.2,172.5h1.5v1.2h0.1c0.6-1,1.4-1.5,2.4-1.5c0.7,0,1.2,0.2,1.6,0.7c0.4,0.4,0.6,1.1,0.6,2.1v4.5h-1.6v-3.9
		c0-1.3-0.4-1.9-1.3-1.9c-0.3,0-0.6,0.1-0.8,0.2c-0.3,0.1-0.5,0.4-0.7,0.7c-0.2,0.3-0.3,0.8-0.3,1.4v3.5h-1.6V172.5z"/>
	<path class="st0" d="M302,179.3c-0.4-0.3-0.7-0.7-1-1.3s-0.3-1.2-0.3-2s0.1-1.4,0.3-2s0.6-1,1-1.3c0.4-0.3,1-0.5,1.6-0.5
		c0.5,0,0.9,0.1,1.3,0.3c0.4,0.2,0.7,0.5,1,1h0.1V170h1.6v9.5h-1.4v-1.2h-0.1c-0.3,0.5-0.7,0.8-1.1,1.1c-0.5,0.2-0.9,0.4-1.4,0.4
		C303,179.7,302.5,179.6,302,179.3z M305.1,178.2c0.3-0.2,0.5-0.5,0.7-0.9c0.2-0.4,0.2-0.8,0.2-1.4c0-0.5-0.1-0.9-0.2-1.3
		c-0.2-0.4-0.4-0.7-0.7-0.9c-0.3-0.2-0.6-0.3-1-0.3c-0.3,0-0.7,0.1-0.9,0.3c-0.3,0.2-0.5,0.5-0.6,0.8c-0.2,0.4-0.2,0.9-0.2,1.4
		c0,0.7,0.1,1.3,0.4,1.8c0.3,0.5,0.7,0.7,1.4,0.7C304.5,178.5,304.8,178.4,305.1,178.2z"/>
	<path class="st0" d="M309.5,171.6c-0.1-0.1-0.2-0.3-0.2-0.6c0-0.2,0.1-0.4,0.2-0.6c0.1-0.1,0.4-0.2,0.7-0.2c0.3,0,0.5,0.1,0.7,0.2
		s0.2,0.3,0.2,0.6c0,0.2-0.1,0.4-0.2,0.6s-0.4,0.2-0.7,0.2C309.9,171.8,309.6,171.7,309.5,171.6z M310.2,172.5c0.2,0,0.5,0,0.8-0.1
		v7h-1.6v-7C309.7,172.5,310,172.5,310.2,172.5z"/>
	<path class="st0" d="M312.8,172.5h1.5v1.2h0.1c0.6-1,1.4-1.5,2.4-1.5c0.7,0,1.2,0.2,1.6,0.7c0.4,0.4,0.6,1.1,0.6,2.1v4.5h-1.6v-3.9
		c0-1.3-0.4-1.9-1.3-1.9c-0.3,0-0.6,0.1-0.8,0.2c-0.3,0.1-0.5,0.4-0.7,0.7c-0.2,0.3-0.3,0.8-0.3,1.4v3.5h-1.6V172.5z"/>
	<path class="st0" d="M322.1,182c-0.4-0.1-0.8-0.2-1.2-0.4v-1.3l0.2,0.1c0.4,0.2,0.8,0.4,1.2,0.5c0.3,0.1,0.8,0.2,1.2,0.2
		c0.7,0,1.3-0.2,1.7-0.6c0.4-0.4,0.6-0.9,0.6-1.7v-0.4h-0.1c-0.3,0.4-0.6,0.7-1,1s-0.9,0.4-1.5,0.4c-0.8,0-1.5-0.3-2-0.9
		s-0.8-1.5-0.8-2.7c0-0.8,0.1-1.5,0.3-2c0.2-0.6,0.6-1,1-1.3c0.4-0.3,1-0.5,1.6-0.5c0.5,0,0.9,0.1,1.3,0.3c0.4,0.2,0.7,0.5,1,1h0.1
		v-1.1h1.5v5.9c0,0.6-0.1,1.2-0.3,1.8c-0.2,0.5-0.5,1-1.1,1.4s-1.3,0.6-2.3,0.6C323,182.1,322.5,182.1,322.1,182z M324.7,178.1
		c0.3-0.2,0.5-0.5,0.6-0.9s0.2-0.8,0.2-1.3c0-0.6-0.1-1-0.3-1.4c-0.2-0.4-0.4-0.6-0.7-0.8s-0.6-0.3-1-0.3c-0.4,0-0.8,0.1-1,0.4
		s-0.5,0.5-0.6,0.9s-0.2,0.8-0.2,1.3c0,0.6,0.1,1.2,0.4,1.7c0.3,0.5,0.7,0.7,1.4,0.7C324.1,178.5,324.4,178.3,324.7,178.1z"/>
</g>
<polygon class="st3" points="358.8,395 238.8,395 247.2,335 367.2,335 "/>
<g>
	<path class="st0" d="M289.8,351.9h4c0.6,0,1.2,0.1,1.6,0.3c0.5,0.2,0.8,0.5,1,0.9s0.4,1,0.4,1.6c0,0.7-0.1,1.3-0.4,1.7
		s-0.7,0.8-1.2,1c-0.5,0.2-1.2,0.3-2,0.3h-1.8v3.5h-1.7V351.9z M294.7,356c0.3-0.3,0.5-0.6,0.5-1.2c0-0.5-0.1-0.9-0.4-1.1
		s-0.7-0.4-1.3-0.4h-2.9l0.7-0.7v3.8h1.9C293.9,356.3,294.4,356.2,294.7,356z"/>
	<path class="st0" d="M298.6,360.4c-0.6-0.6-1-1.6-1-2.9c0-0.7,0.1-1.4,0.3-1.9s0.6-1,1.1-1.3s1.1-0.5,1.9-0.5c1,0,1.8,0.3,2.3,0.8
		c0.6,0.5,0.8,1.4,0.8,2.5v0.9h-4.9c0,0.7,0.2,1.2,0.6,1.6s1,0.6,1.8,0.6c0.4,0,0.8-0.1,1.2-0.2c0.4-0.1,0.8-0.3,1.2-0.6v1.2
		c-0.3,0.2-0.7,0.4-1.2,0.5c-0.4,0.1-0.9,0.2-1.5,0.2C300.1,361.3,299.2,361,298.6,360.4z M302.2,355.5c-0.3-0.3-0.7-0.5-1.3-0.5
		c-0.6,0-1,0.2-1.3,0.5c-0.3,0.3-0.5,0.8-0.5,1.4h3.5C302.6,356.3,302.5,355.9,302.2,355.5z"/>
	<path class="st0" d="M306,360.4c-0.6-0.6-1-1.6-1-2.9c0-0.7,0.1-1.4,0.3-1.9s0.6-1,1.1-1.3c0.5-0.3,1.1-0.5,1.9-0.5
		c1,0,1.8,0.3,2.3,0.8s0.8,1.4,0.8,2.5v0.9h-4.9c0,0.7,0.2,1.2,0.6,1.6s1,0.6,1.8,0.6c0.4,0,0.8-0.1,1.2-0.2
		c0.4-0.1,0.8-0.3,1.2-0.6v1.2c-0.3,0.2-0.7,0.4-1.2,0.5s-0.9,0.2-1.5,0.2C307.5,361.3,306.6,361,306,360.4z M309.7,355.5
		c-0.3-0.3-0.7-0.5-1.3-0.5c-0.6,0-1,0.2-1.3,0.5c-0.3,0.3-0.5,0.8-0.5,1.4h3.5C310.1,356.3,309.9,355.9,309.7,355.5z"/>
	<path class="st0" d="M312.9,354.1h1.5v1.4h0.1c0.1-0.5,0.3-0.9,0.6-1.2c0.3-0.3,0.7-0.4,1.2-0.4c0.4,0,0.7,0.1,1,0.3v1.5
		c-0.4-0.3-0.8-0.4-1.1-0.4c-0.3,0-0.6,0.1-0.9,0.3s-0.5,0.5-0.6,1c-0.1,0.4-0.2,0.9-0.2,1.5v3h-1.6V354.1z"/>
	<path class="st0" d="M271.7,377.7c-0.4-0.3-0.7-0.7-1-1.3c-0.2-0.6-0.3-1.2-0.3-2c0-0.8,0.1-1.4,0.3-2c0.2-0.6,0.6-1,1-1.3
		s1-0.5,1.6-0.5c0.5,0,0.9,0.1,1.3,0.3s0.7,0.5,1,1h0.1v-3.6h1.6v9.5h-1.4v-1.2h-0.1c-0.3,0.5-0.7,0.8-1.1,1.1
		c-0.5,0.2-0.9,0.4-1.4,0.4C272.6,378.1,272.1,378,271.7,377.7z M274.7,376.6c0.3-0.2,0.5-0.5,0.7-0.9c0.2-0.4,0.2-0.8,0.2-1.4
		c0-0.5-0.1-0.9-0.2-1.3c-0.2-0.4-0.4-0.7-0.7-0.9c-0.3-0.2-0.6-0.3-1-0.3c-0.3,0-0.7,0.1-0.9,0.3c-0.3,0.2-0.5,0.5-0.6,0.8
		c-0.2,0.4-0.2,0.9-0.2,1.4c0,0.7,0.1,1.3,0.4,1.8c0.3,0.5,0.7,0.7,1.4,0.7C274.1,376.9,274.4,376.8,274.7,376.6z"/>
	<path class="st0" d="M279.1,377.7c-0.4-0.3-0.6-0.7-0.6-1.3c0-0.6,0.2-1,0.5-1.3c0.4-0.3,0.8-0.6,1.4-0.7l0.4-0.1
		c0.4-0.1,0.7-0.2,1-0.3c0.3-0.1,0.5-0.2,0.7-0.4c0.2-0.2,0.3-0.4,0.3-0.6c0-0.3-0.1-0.5-0.3-0.7c-0.2-0.2-0.5-0.3-0.9-0.3
		c-0.4,0-0.8,0.1-1.2,0.3c-0.4,0.2-0.8,0.4-1.2,0.7v-1.4c0.3-0.3,0.7-0.5,1.2-0.6c0.5-0.2,1-0.2,1.5-0.2c0.8,0,1.4,0.2,1.8,0.6
		c0.4,0.4,0.6,1,0.6,1.8c0,0.3,0,0.6,0,0.7c0,0.2,0,0.4,0,0.7c0,0.2,0,0.5,0,0.7s0,0.4,0,0.6c0,0.5,0.1,0.8,0.1,1.2
		c0.1,0.3,0.1,0.6,0.2,1h-1.5c-0.1-0.3-0.2-0.7-0.3-1.3h-0.1c-0.2,0.5-0.6,0.9-1,1.2c-0.4,0.3-0.9,0.4-1.4,0.4
		C279.9,378.1,279.4,378,279.1,377.7z M281.8,376.7c0.3-0.2,0.5-0.5,0.7-0.8c0.2-0.3,0.3-0.7,0.3-1.2v-0.4c-0.1,0.2-0.3,0.3-0.5,0.4
		c-0.2,0.1-0.5,0.2-0.8,0.3l-0.4,0.1c-0.3,0.1-0.6,0.2-0.7,0.4c-0.2,0.2-0.3,0.4-0.3,0.7s0.1,0.5,0.3,0.6c0.2,0.1,0.4,0.2,0.6,0.2
		C281.2,377,281.5,376.9,281.8,376.7z"/>
	<path class="st0" d="M286.8,378c-0.4-0.1-0.8-0.3-1.1-0.5v-1.3c0.4,0.3,0.8,0.5,1.2,0.6s0.8,0.2,1.2,0.2c0.4,0,0.8-0.1,1-0.2
		s0.4-0.4,0.4-0.7c0-0.2-0.1-0.4-0.2-0.5c-0.2-0.1-0.4-0.3-0.7-0.4h0c-0.3-0.1-0.5-0.2-0.6-0.3c-0.2-0.1-0.4-0.2-0.6-0.3
		c-0.5-0.2-0.9-0.5-1.1-0.8c-0.3-0.3-0.4-0.7-0.4-1.1c0-0.4,0.1-0.7,0.3-1c0.2-0.3,0.5-0.5,0.9-0.7c0.4-0.2,0.9-0.3,1.5-0.3
		c0.4,0,0.8,0.1,1.2,0.2s0.7,0.3,1.1,0.5v1.3c-0.3-0.2-0.6-0.4-1-0.6c-0.4-0.1-0.8-0.2-1.2-0.2c-0.3,0-0.6,0.1-0.8,0.2
		c-0.2,0.1-0.3,0.3-0.3,0.5c0,0.2,0.1,0.4,0.2,0.5c0.2,0.1,0.4,0.3,0.8,0.5c0,0,0.1,0,0.1,0.1c0.4,0.2,0.8,0.4,1.2,0.5l0.1,0
		c0.3,0.1,0.5,0.3,0.7,0.4s0.3,0.3,0.5,0.5c0.1,0.2,0.2,0.5,0.2,0.8c0,0.4-0.1,0.8-0.3,1.1c-0.2,0.3-0.6,0.6-1,0.8s-1,0.3-1.6,0.3
		C287.7,378.1,287.2,378.1,286.8,378z"/>
	<path class="st0" d="M292.4,368.4h1.6v3.7h0.1c0.3-0.5,0.6-0.8,1-1.1c0.4-0.3,0.9-0.4,1.4-0.4c0.7,0,1.2,0.2,1.6,0.7
		c0.4,0.4,0.6,1.1,0.6,2.1v4.5H297V374c0-1.3-0.4-1.9-1.3-1.9c-0.3,0-0.6,0.1-0.8,0.2c-0.3,0.1-0.5,0.4-0.7,0.7
		c-0.2,0.3-0.3,0.8-0.3,1.4v3.5h-1.6V368.4z"/>
	<path class="st0" d="M302.8,377.8c-0.4-0.2-0.8-0.5-1-1h-0.1v1.1h-1.4v-9.5h1.6v3.7h0.1c0.3-0.4,0.6-0.8,1-1
		c0.4-0.3,0.9-0.4,1.4-0.4c0.5,0,1,0.1,1.4,0.4c0.4,0.3,0.7,0.7,1,1.2c0.2,0.5,0.4,1.2,0.4,1.9c0,0.7-0.1,1.4-0.3,2
		c-0.2,0.6-0.5,1.1-1,1.4c-0.4,0.3-1,0.5-1.7,0.5C303.7,378.1,303.3,378,302.8,377.8z M304.8,376.6c0.3-0.2,0.5-0.5,0.6-0.9
		c0.1-0.4,0.2-0.8,0.2-1.4c0-0.8-0.2-1.4-0.5-1.8c-0.3-0.4-0.8-0.7-1.3-0.7c-0.4,0-0.7,0.1-1,0.3s-0.5,0.5-0.7,0.9
		c-0.2,0.4-0.3,0.9-0.3,1.4c0,0.8,0.2,1.4,0.5,1.8c0.3,0.4,0.8,0.7,1.4,0.7C304.1,376.9,304.5,376.8,304.8,376.6z"/>
	<path class="st0" d="M309.1,377.2c-0.6-0.6-0.9-1.5-0.9-2.8c0-0.7,0.1-1.4,0.4-1.9c0.2-0.6,0.6-1,1.1-1.3c0.5-0.3,1.2-0.5,1.9-0.5
		c1.1,0,1.9,0.3,2.5,0.9c0.6,0.6,0.9,1.6,0.9,2.8c0,0.7-0.1,1.4-0.3,1.9c-0.2,0.6-0.6,1-1.1,1.3s-1.2,0.5-1.9,0.5
		C310.5,378.1,309.7,377.8,309.1,377.2z M312.6,376.7c0.3-0.2,0.5-0.5,0.6-0.8c0.1-0.4,0.2-0.9,0.2-1.4c0-0.8-0.1-1.4-0.4-1.8
		c-0.3-0.5-0.8-0.7-1.4-0.7c-0.4,0-0.7,0.1-1,0.3c-0.3,0.2-0.5,0.5-0.6,0.8c-0.1,0.4-0.2,0.9-0.2,1.4c0,0.8,0.1,1.4,0.4,1.8
		s0.8,0.7,1.4,0.7C312,376.9,312.3,376.8,312.6,376.7z"/>
	<path class="st0" d="M316.4,377.7c-0.4-0.3-0.6-0.7-0.6-1.3c0-0.6,0.2-1,0.5-1.3c0.4-0.3,0.8-0.6,1.4-0.7l0.4-0.1
		c0.4-0.1,0.7-0.2,1-0.3c0.3-0.1,0.5-0.2,0.7-0.4s0.3-0.4,0.3-0.6c0-0.3-0.1-0.5-0.3-0.7s-0.5-0.3-0.9-0.3c-0.4,0-0.8,0.1-1.2,0.3
		c-0.4,0.2-0.8,0.4-1.2,0.7v-1.4c0.3-0.3,0.7-0.5,1.2-0.6s1-0.2,1.5-0.2c0.8,0,1.4,0.2,1.8,0.6c0.4,0.4,0.6,1,0.6,1.8
		c0,0.3,0,0.6,0,0.7s0,0.4,0,0.7c0,0.2,0,0.5,0,0.7c0,0.2,0,0.4,0,0.6c0,0.5,0.1,0.8,0.1,1.2s0.1,0.6,0.2,1h-1.5
		c-0.1-0.3-0.2-0.7-0.3-1.3h-0.1c-0.2,0.5-0.6,0.9-1,1.2s-0.9,0.4-1.4,0.4C317.2,378.1,316.7,378,316.4,377.7z M319.1,376.7
		c0.3-0.2,0.5-0.5,0.7-0.8c0.2-0.3,0.3-0.7,0.3-1.2v-0.4c-0.1,0.2-0.3,0.3-0.5,0.4c-0.2,0.1-0.5,0.2-0.8,0.3l-0.4,0.1
		c-0.3,0.1-0.6,0.2-0.7,0.4c-0.2,0.2-0.3,0.4-0.3,0.7s0.1,0.5,0.3,0.6s0.4,0.2,0.6,0.2C318.5,377,318.8,376.9,319.1,376.7z"/>
	<path class="st0" d="M323.4,370.9h1.5v1.4h0.1c0.1-0.5,0.3-0.9,0.6-1.2c0.3-0.3,0.7-0.4,1.2-0.4c0.4,0,0.7,0.1,1,0.3v1.5
		c-0.4-0.3-0.8-0.4-1.1-0.4c-0.3,0-0.6,0.1-0.9,0.3c-0.3,0.2-0.5,0.5-0.6,1c-0.1,0.4-0.2,0.9-0.2,1.5v3h-1.6V370.9z"/>
	<path class="st0" d="M329.6,377.7c-0.4-0.3-0.7-0.7-1-1.3c-0.2-0.6-0.3-1.2-0.3-2c0-0.8,0.1-1.4,0.3-2c0.2-0.6,0.6-1,1-1.3
		s1-0.5,1.6-0.5c0.5,0,0.9,0.1,1.3,0.3s0.7,0.5,1,1h0.1v-3.6h1.6v9.5h-1.4v-1.2h-0.1c-0.3,0.5-0.7,0.8-1.1,1.1
		c-0.5,0.2-0.9,0.4-1.4,0.4C330.6,378.1,330.1,378,329.6,377.7z M332.7,376.6c0.3-0.2,0.5-0.5,0.7-0.9c0.2-0.4,0.2-0.8,0.2-1.4
		c0-0.5-0.1-0.9-0.2-1.3c-0.2-0.4-0.4-0.7-0.7-0.9c-0.3-0.2-0.6-0.3-1-0.3c-0.3,0-0.7,0.1-0.9,0.3c-0.3,0.2-0.5,0.5-0.6,0.8
		c-0.2,0.4-0.2,0.9-0.2,1.4c0,0.7,0.1,1.3,0.4,1.8c0.3,0.5,0.7,0.7,1.4,0.7C332.1,376.9,332.4,376.8,332.7,376.6z"/>
</g>
<polygon class="st3" points="358.8,510 238.8,510 247.2,450 367.2,450 "/>
<g>
	<path class="st0" d="M291.4,466.9h2.3l3.2,9.2h-1.7c-0.2-0.8-0.8-2.6-1.8-5.4c-0.3-0.8-0.6-1.6-0.9-2.5h-0.1l-0.3,0.9l-0.6,1.8
		c-0.2,0.6-0.5,1.4-0.8,2.4c-0.3,1-0.6,1.9-0.9,2.9h-1.7L291.4,466.9z M289.8,472.3h5.5v1.4h-5.5V472.3z"/>
	<path class="st0" d="M297.8,473.7v-4.6h1.6v4.1c0,0.5,0.1,1,0.2,1.3c0.1,0.4,0.5,0.6,1,0.6c0.4,0,0.8-0.2,1.1-0.5s0.5-0.7,0.7-1.1
		v-4.4h1.6v7h-1.5v-1.3h-0.1c-0.2,0.4-0.6,0.8-1,1.1c-0.4,0.3-0.9,0.4-1.5,0.4C298.5,476.3,297.8,475.5,297.8,473.7z"/>
	<path class="st0" d="M306.8,475.9c-0.3-0.3-0.5-0.7-0.6-1.1c-0.1-0.4-0.1-1-0.1-1.7v0v-2.7H305v-0.6c0.4-0.2,0.8-0.5,1.1-0.9
		c0.3-0.3,0.6-0.8,0.8-1.4c0,0,0,0,0-0.1h0.8v1.7h2v1.3h-2v2.6c0,0.5,0,0.9,0,1.2c0,0.3,0.1,0.5,0.3,0.7c0.1,0.2,0.4,0.3,0.7,0.3
		c0.2,0,0.3,0,0.5-0.1c0.2-0.1,0.3-0.1,0.5-0.2v1.2c-0.1,0.1-0.3,0.1-0.6,0.2c-0.2,0.1-0.5,0.1-0.8,0.1
		C307.6,476.3,307.1,476.2,306.8,475.9z"/>
	<path class="st0" d="M310.9,466.6h1.6v3.7h0.1c0.3-0.5,0.6-0.8,1-1.1c0.4-0.3,0.9-0.4,1.4-0.4c0.7,0,1.2,0.2,1.6,0.7
		c0.4,0.4,0.6,1.1,0.6,2.1v4.5h-1.6v-3.9c0-1.3-0.4-1.9-1.3-1.9c-0.3,0-0.6,0.1-0.8,0.2c-0.3,0.1-0.5,0.4-0.7,0.7
		c-0.2,0.3-0.3,0.8-0.3,1.4v3.5h-1.6V466.6z"/>
	<path class="st0" d="M285.4,485.9h1.5v1.2h0.1c0.3-0.4,0.6-0.8,1-1c0.4-0.3,0.9-0.4,1.5-0.4c0.5,0,1,0.1,1.4,0.4
		c0.4,0.3,0.7,0.7,1,1.2c0.2,0.5,0.4,1.2,0.4,1.9c0,0.7-0.1,1.4-0.3,2s-0.5,1.1-1,1.4s-1,0.5-1.7,0.5c-0.5,0-0.9-0.1-1.4-0.3
		s-0.7-0.5-1-1h-0.1v3.5h-1.5V485.9z M289.8,491.6c0.3-0.2,0.5-0.5,0.6-0.9c0.1-0.4,0.2-0.8,0.2-1.4c0-0.8-0.2-1.4-0.5-1.8
		c-0.3-0.4-0.8-0.7-1.3-0.7c-0.4,0-0.7,0.1-1,0.3c-0.3,0.2-0.5,0.5-0.7,0.9s-0.3,0.9-0.3,1.4c0,0.8,0.2,1.4,0.5,1.8s0.8,0.7,1.4,0.7
		C289.2,491.9,289.5,491.8,289.8,491.6z"/>
	<path class="st0" d="M294.1,492.2c-0.6-0.6-0.9-1.5-0.9-2.8c0-0.7,0.1-1.4,0.4-1.9c0.2-0.6,0.6-1,1.1-1.3s1.2-0.5,1.9-0.5
		c1.1,0,1.9,0.3,2.5,0.9c0.6,0.6,0.9,1.6,0.9,2.8c0,0.7-0.1,1.4-0.3,1.9s-0.6,1-1.1,1.3s-1.2,0.5-1.9,0.5
		C295.5,493.1,294.7,492.8,294.1,492.2z M297.6,491.7c0.3-0.2,0.5-0.5,0.6-0.8c0.1-0.4,0.2-0.9,0.2-1.4c0-0.8-0.1-1.4-0.4-1.8
		s-0.8-0.7-1.4-0.7c-0.4,0-0.7,0.1-1,0.3s-0.5,0.5-0.6,0.8c-0.1,0.4-0.2,0.9-0.2,1.4c0,0.8,0.1,1.4,0.4,1.8c0.3,0.5,0.8,0.7,1.4,0.7
		C297,491.9,297.3,491.8,297.6,491.7z"/>
	<path class="st0" d="M301.4,485.9h1.5v1.4h0.1c0.1-0.5,0.3-0.9,0.6-1.2c0.3-0.3,0.7-0.4,1.2-0.4c0.4,0,0.7,0.1,1,0.3v1.5
		c-0.4-0.3-0.8-0.4-1.1-0.4c-0.3,0-0.6,0.1-0.9,0.3c-0.3,0.2-0.5,0.5-0.6,1c-0.1,0.4-0.2,0.9-0.2,1.5v3h-1.6V485.9z"/>
	<path class="st0" d="M308,492.7c-0.3-0.3-0.5-0.7-0.6-1.1c-0.1-0.4-0.1-1-0.1-1.7v0v-2.7h-1.2v-0.6c0.4-0.2,0.8-0.5,1.1-0.9
		c0.3-0.3,0.6-0.8,0.8-1.4c0,0,0,0,0-0.1h0.8v1.7h2v1.3h-2v2.6c0,0.5,0,0.9,0,1.2c0,0.3,0.1,0.5,0.3,0.7c0.1,0.2,0.4,0.3,0.7,0.3
		c0.2,0,0.3,0,0.5-0.1c0.2-0.1,0.3-0.1,0.5-0.2v1.2c-0.1,0.1-0.3,0.1-0.6,0.2c-0.2,0.1-0.5,0.1-0.8,0.1
		C308.8,493.1,308.3,493,308,492.7z"/>
	<path class="st0" d="M312,492.7c-0.4-0.3-0.6-0.7-0.6-1.3c0-0.6,0.2-1,0.5-1.3s0.8-0.6,1.4-0.7l0.4-0.1c0.4-0.1,0.7-0.2,1-0.3
		c0.3-0.1,0.5-0.2,0.7-0.4s0.3-0.4,0.3-0.6c0-0.3-0.1-0.5-0.3-0.7c-0.2-0.2-0.5-0.3-0.9-0.3c-0.4,0-0.8,0.1-1.2,0.3
		s-0.8,0.4-1.2,0.7v-1.4c0.3-0.3,0.7-0.5,1.2-0.6c0.5-0.2,1-0.2,1.5-0.2c0.8,0,1.4,0.2,1.8,0.6c0.4,0.4,0.6,1,0.6,1.8
		c0,0.3,0,0.6,0,0.7c0,0.2,0,0.4,0,0.7c0,0.2,0,0.5,0,0.7c0,0.2,0,0.4,0,0.6c0,0.5,0.1,0.8,0.1,1.2c0.1,0.3,0.1,0.6,0.2,1h-1.5
		c-0.1-0.3-0.2-0.7-0.3-1.3h-0.1c-0.2,0.5-0.6,0.9-1,1.2c-0.4,0.3-0.9,0.4-1.4,0.4C312.9,493.1,312.4,493,312,492.7z M314.8,491.7
		c0.3-0.2,0.5-0.5,0.7-0.8c0.2-0.3,0.3-0.7,0.3-1.2v-0.4c-0.1,0.2-0.3,0.3-0.5,0.4c-0.2,0.1-0.5,0.2-0.8,0.3l-0.4,0.1
		c-0.3,0.1-0.6,0.2-0.7,0.4s-0.3,0.4-0.3,0.7s0.1,0.5,0.3,0.6s0.4,0.2,0.6,0.2C314.2,492,314.5,491.9,314.8,491.7z"/>
	<path class="st0" d="M319.1,492.9v-9.5h1.6v9.5H319.1z"/>
</g>
<polygon class="st3" points="175.8,510 55.8,510 64.2,450 184.2,450 "/>
<g>
	<path class="st0" d="M110.2,466.9h4c0.6,0,1.2,0.1,1.6,0.3c0.5,0.2,0.8,0.5,1,0.9c0.2,0.4,0.4,1,0.4,1.6c0,0.7-0.1,1.3-0.4,1.7
		s-0.7,0.8-1.2,1c-0.5,0.2-1.2,0.3-2,0.3h-1.8v3.5h-1.7V466.9z M115.2,471c0.3-0.3,0.5-0.6,0.5-1.2c0-0.5-0.1-0.9-0.4-1.1
		s-0.7-0.4-1.3-0.4h-2.9l0.7-0.7v3.8h1.9C114.4,471.3,114.8,471.2,115.2,471z"/>
	<path class="st0" d="M118.6,469.1h1.5v1.4h0.1c0.1-0.5,0.3-0.9,0.6-1.2c0.3-0.3,0.7-0.4,1.2-0.4c0.4,0,0.7,0.1,1,0.3v1.5
		c-0.4-0.3-0.8-0.4-1.1-0.4c-0.3,0-0.6,0.1-0.9,0.3s-0.5,0.5-0.6,1c-0.1,0.4-0.2,0.9-0.2,1.5v3h-1.6V469.1z"/>
	<path class="st0" d="M124.4,475.4c-0.6-0.6-0.9-1.5-0.9-2.8c0-0.7,0.1-1.4,0.4-1.9c0.2-0.6,0.6-1,1.1-1.3c0.5-0.3,1.2-0.5,1.9-0.5
		c1.1,0,1.9,0.3,2.5,0.9c0.6,0.6,0.9,1.6,0.9,2.8c0,0.7-0.1,1.4-0.3,1.9c-0.2,0.6-0.6,1-1.1,1.3s-1.2,0.5-1.9,0.5
		C125.9,476.3,125,476,124.4,475.4z M127.9,474.9c0.3-0.2,0.5-0.5,0.6-0.8c0.1-0.4,0.2-0.9,0.2-1.4c0-0.8-0.1-1.4-0.4-1.8
		c-0.3-0.5-0.8-0.7-1.4-0.7c-0.4,0-0.7,0.1-1,0.3c-0.3,0.2-0.5,0.5-0.6,0.8c-0.1,0.4-0.2,0.9-0.2,1.4c0,0.8,0.1,1.4,0.4,1.8
		s0.8,0.7,1.4,0.7C127.3,475.1,127.6,475,127.9,474.9z"/>
	<path class="st0" d="M88.7,492.7c-0.4-0.3-0.7-0.7-1-1.3c-0.2-0.6-0.3-1.2-0.3-2c0-0.8,0.1-1.4,0.3-2c0.2-0.6,0.6-1,1-1.3
		s1-0.5,1.6-0.5c0.5,0,0.9,0.1,1.3,0.3s0.7,0.5,1,1h0.1v-3.6h1.6v9.5h-1.4v-1.2h-0.1c-0.3,0.5-0.7,0.8-1.1,1.1
		c-0.5,0.2-0.9,0.4-1.4,0.4C89.6,493.1,89.1,493,88.7,492.7z M91.7,491.6c0.3-0.2,0.5-0.5,0.7-0.9c0.2-0.4,0.2-0.8,0.2-1.4
		c0-0.5-0.1-0.9-0.2-1.3c-0.2-0.4-0.4-0.7-0.7-0.9c-0.3-0.2-0.6-0.3-1-0.3c-0.3,0-0.7,0.1-0.9,0.3c-0.3,0.2-0.5,0.5-0.6,0.8
		c-0.2,0.4-0.2,0.9-0.2,1.4c0,0.7,0.1,1.3,0.4,1.8c0.3,0.5,0.7,0.7,1.4,0.7C91.1,491.9,91.4,491.8,91.7,491.6z"/>
	<path class="st0" d="M96.1,492.7c-0.4-0.3-0.6-0.7-0.6-1.3c0-0.6,0.2-1,0.5-1.3c0.4-0.3,0.8-0.6,1.4-0.7l0.4-0.1
		c0.4-0.1,0.7-0.2,1-0.3c0.3-0.1,0.5-0.2,0.7-0.4c0.2-0.2,0.3-0.4,0.3-0.6c0-0.3-0.1-0.5-0.3-0.7c-0.2-0.2-0.5-0.3-0.9-0.3
		c-0.4,0-0.8,0.1-1.2,0.3c-0.4,0.2-0.8,0.4-1.2,0.7v-1.4c0.3-0.3,0.7-0.5,1.2-0.6c0.5-0.2,1-0.2,1.5-0.2c0.8,0,1.4,0.2,1.8,0.6
		c0.4,0.4,0.6,1,0.6,1.8c0,0.3,0,0.6,0,0.7c0,0.2,0,0.4,0,0.7c0,0.2,0,0.5,0,0.7s0,0.4,0,0.6c0,0.5,0.1,0.8,0.1,1.2
		c0.1,0.3,0.1,0.6,0.2,1h-1.5c-0.1-0.3-0.2-0.7-0.3-1.3h-0.1c-0.2,0.5-0.6,0.9-1,1.2c-0.4,0.3-0.9,0.4-1.4,0.4
		C96.9,493.1,96.4,493,96.1,492.7z M98.8,491.7c0.3-0.2,0.5-0.5,0.7-0.8c0.2-0.3,0.3-0.7,0.3-1.2v-0.4c-0.1,0.2-0.3,0.3-0.5,0.4
		c-0.2,0.1-0.5,0.2-0.8,0.3l-0.4,0.1c-0.3,0.1-0.6,0.2-0.7,0.4c-0.2,0.2-0.3,0.4-0.3,0.7s0.1,0.5,0.3,0.6c0.2,0.1,0.4,0.2,0.6,0.2
		C98.2,492,98.5,491.9,98.8,491.7z"/>
	<path class="st0" d="M103.8,493c-0.4-0.1-0.8-0.3-1.1-0.5v-1.3c0.4,0.3,0.8,0.5,1.2,0.6s0.8,0.2,1.2,0.2c0.4,0,0.8-0.1,1-0.2
		s0.4-0.4,0.4-0.7c0-0.2-0.1-0.4-0.2-0.5c-0.2-0.1-0.4-0.3-0.7-0.4h0c-0.3-0.1-0.5-0.2-0.6-0.3c-0.2-0.1-0.4-0.2-0.6-0.3
		c-0.5-0.2-0.9-0.5-1.1-0.8c-0.3-0.3-0.4-0.7-0.4-1.1c0-0.4,0.1-0.7,0.3-1c0.2-0.3,0.5-0.5,0.9-0.7c0.4-0.2,0.9-0.3,1.5-0.3
		c0.4,0,0.8,0.1,1.2,0.2s0.7,0.3,1.1,0.5v1.3c-0.3-0.2-0.6-0.4-1-0.6c-0.4-0.1-0.8-0.2-1.2-0.2c-0.3,0-0.6,0.1-0.8,0.2
		c-0.2,0.1-0.3,0.3-0.3,0.5c0,0.2,0.1,0.4,0.2,0.5c0.2,0.1,0.4,0.3,0.8,0.5c0,0,0.1,0,0.1,0.1c0.4,0.2,0.8,0.4,1.2,0.5l0.1,0
		c0.3,0.1,0.5,0.3,0.7,0.4s0.3,0.3,0.5,0.5c0.1,0.2,0.2,0.5,0.2,0.8c0,0.4-0.1,0.8-0.3,1.1c-0.2,0.3-0.6,0.6-1,0.8s-1,0.3-1.6,0.3
		C104.7,493.1,104.2,493.1,103.8,493z"/>
	<path class="st0" d="M109.4,483.4h1.6v3.7h0.1c0.3-0.5,0.6-0.8,1-1.1c0.4-0.3,0.9-0.4,1.4-0.4c0.7,0,1.2,0.2,1.6,0.7
		c0.4,0.4,0.6,1.1,0.6,2.1v4.5H114V489c0-1.3-0.4-1.9-1.3-1.9c-0.3,0-0.6,0.1-0.8,0.2c-0.3,0.1-0.5,0.4-0.7,0.7
		c-0.2,0.3-0.3,0.8-0.3,1.4v3.5h-1.6V483.4z"/>
	<path class="st0" d="M119.8,492.8c-0.4-0.2-0.8-0.5-1-1h-0.1v1.1h-1.4v-9.5h1.6v3.7h0.1c0.3-0.4,0.6-0.8,1-1
		c0.4-0.3,0.9-0.4,1.4-0.4c0.5,0,1,0.1,1.4,0.4c0.4,0.3,0.7,0.7,1,1.2c0.2,0.5,0.4,1.2,0.4,1.9c0,0.7-0.1,1.4-0.3,2
		c-0.2,0.6-0.5,1.1-1,1.4c-0.4,0.3-1,0.5-1.7,0.5C120.7,493.1,120.3,493,119.8,492.8z M121.8,491.6c0.3-0.2,0.5-0.5,0.6-0.9
		c0.1-0.4,0.2-0.8,0.2-1.4c0-0.8-0.2-1.4-0.5-1.8c-0.3-0.4-0.8-0.7-1.3-0.7c-0.4,0-0.7,0.1-1,0.3s-0.5,0.5-0.7,0.9
		c-0.2,0.4-0.3,0.9-0.3,1.4c0,0.8,0.2,1.4,0.5,1.8c0.3,0.4,0.8,0.7,1.4,0.7C121.1,491.9,121.5,491.8,121.8,491.6z"/>
	<path class="st0" d="M126.1,492.2c-0.6-0.6-0.9-1.5-0.9-2.8c0-0.7,0.1-1.4,0.4-1.9c0.2-0.6,0.6-1,1.1-1.3c0.5-0.3,1.2-0.5,1.9-0.5
		c1.1,0,1.9,0.3,2.5,0.9c0.6,0.6,0.9,1.6,0.9,2.8c0,0.7-0.1,1.4-0.3,1.9c-0.2,0.6-0.6,1-1.1,1.3s-1.2,0.5-1.9,0.5
		C127.5,493.1,126.7,492.8,126.1,492.2z M129.6,491.7c0.3-0.2,0.5-0.5,0.6-0.8c0.1-0.4,0.2-0.9,0.2-1.4c0-0.8-0.1-1.4-0.4-1.8
		c-0.3-0.5-0.8-0.7-1.4-0.7c-0.4,0-0.7,0.1-1,0.3c-0.3,0.2-0.5,0.5-0.6,0.8c-0.1,0.4-0.2,0.9-0.2,1.4c0,0.8,0.1,1.4,0.4,1.8
		s0.8,0.7,1.4,0.7C129,491.9,129.3,491.8,129.6,491.7z"/>
	<path class="st0" d="M133.4,492.7c-0.4-0.3-0.6-0.7-0.6-1.3c0-0.6,0.2-1,0.5-1.3c0.4-0.3,0.8-0.6,1.4-0.7l0.4-0.1
		c0.4-0.1,0.7-0.2,1-0.3c0.3-0.1,0.5-0.2,0.7-0.4s0.3-0.4,0.3-0.6c0-0.3-0.1-0.5-0.3-0.7s-0.5-0.3-0.9-0.3c-0.4,0-0.8,0.1-1.2,0.3
		c-0.4,0.2-0.8,0.4-1.2,0.7v-1.4c0.3-0.3,0.7-0.5,1.2-0.6s1-0.2,1.5-0.2c0.8,0,1.4,0.2,1.8,0.6c0.4,0.4,0.6,1,0.6,1.8
		c0,0.3,0,0.6,0,0.7s0,0.4,0,0.7c0,0.2,0,0.5,0,0.7c0,0.2,0,0.4,0,0.6c0,0.5,0.1,0.8,0.1,1.2s0.1,0.6,0.2,1h-1.5
		c-0.1-0.3-0.2-0.7-0.3-1.3h-0.1c-0.2,0.5-0.6,0.9-1,1.2s-0.9,0.4-1.4,0.4C134.2,493.1,133.7,493,133.4,492.7z M136.1,491.7
		c0.3-0.2,0.5-0.5,0.7-0.8c0.2-0.3,0.3-0.7,0.3-1.2v-0.4c-0.1,0.2-0.3,0.3-0.5,0.4c-0.2,0.1-0.5,0.2-0.8,0.3l-0.4,0.1
		c-0.3,0.1-0.6,0.2-0.7,0.4c-0.2,0.2-0.3,0.4-0.3,0.7s0.1,0.5,0.3,0.6s0.4,0.2,0.6,0.2C135.5,492,135.8,491.9,136.1,491.7z"/>
	<path class="st0" d="M140.4,485.9h1.5v1.4h0.1c0.1-0.5,0.3-0.9,0.6-1.2c0.3-0.3,0.7-0.4,1.2-0.4c0.4,0,0.7,0.1,1,0.3v1.5
		c-0.4-0.3-0.8-0.4-1.1-0.4c-0.3,0-0.6,0.1-0.9,0.3c-0.3,0.2-0.5,0.5-0.6,1c-0.1,0.4-0.2,0.9-0.2,1.5v3h-1.6V485.9z"/>
	<path class="st0" d="M146.6,492.7c-0.4-0.3-0.7-0.7-1-1.3c-0.2-0.6-0.3-1.2-0.3-2c0-0.8,0.1-1.4,0.3-2c0.2-0.6,0.6-1,1-1.3
		s1-0.5,1.6-0.5c0.5,0,0.9,0.1,1.3,0.3s0.7,0.5,1,1h0.1v-3.6h1.6v9.5h-1.4v-1.2h-0.1c-0.3,0.5-0.7,0.8-1.1,1.1
		c-0.5,0.2-0.9,0.4-1.4,0.4C147.6,493.1,147.1,493,146.6,492.7z M149.7,491.6c0.3-0.2,0.5-0.5,0.7-0.9c0.2-0.4,0.2-0.8,0.2-1.4
		c0-0.5-0.1-0.9-0.2-1.3c-0.2-0.4-0.4-0.7-0.7-0.9c-0.3-0.2-0.6-0.3-1-0.3c-0.3,0-0.7,0.1-0.9,0.3c-0.3,0.2-0.5,0.5-0.6,0.8
		c-0.2,0.4-0.2,0.9-0.2,1.4c0,0.7,0.1,1.3,0.4,1.8c0.3,0.5,0.7,0.7,1.4,0.7C149.1,491.9,149.4,491.8,149.7,491.6z"/>
</g>
<polygon class="st3" points="535.8,305.3 415.8,305.3 424.2,245.3 544.2,245.3 "/>
<g>
	<path class="st0" d="M438.9,278.8c-0.7-0.8-1.1-2-1.1-3.7c0-1,0.1-1.9,0.4-2.6c0.3-0.7,0.7-1.3,1.3-1.7c0.6-0.4,1.4-0.6,2.4-0.6
		c0.6,0,1.1,0.1,1.6,0.2c0.5,0.1,1,0.4,1.4,0.7v1.6c-0.5-0.3-0.9-0.6-1.4-0.7c-0.5-0.2-1-0.2-1.4-0.2c-0.5,0-1,0.1-1.4,0.3
		c-0.4,0.2-0.7,0.6-0.9,1.1c-0.2,0.5-0.3,1.1-0.3,1.9c0,1.1,0.2,1.9,0.7,2.5c0.4,0.6,1.1,0.9,2.1,0.9c1,0,2-0.3,2.9-1v1.5
		c-0.4,0.3-0.8,0.5-1.4,0.7c-0.5,0.2-1.1,0.3-1.8,0.3C440.6,280,439.6,279.6,438.9,278.8z"/>
	<path class="st0" d="M446.9,279.1c-0.6-0.6-0.9-1.5-0.9-2.8c0-0.7,0.1-1.4,0.4-1.9c0.2-0.6,0.6-1,1.1-1.3c0.5-0.3,1.2-0.5,1.9-0.5
		c1.1,0,1.9,0.3,2.5,0.9c0.6,0.6,0.9,1.6,0.9,2.8c0,0.7-0.1,1.4-0.4,1.9c-0.2,0.6-0.6,1-1.1,1.3s-1.2,0.5-1.9,0.5
		C448.4,280,447.5,279.7,446.9,279.1z M450.4,278.6c0.3-0.2,0.5-0.5,0.6-0.8s0.2-0.9,0.2-1.4c0-0.8-0.1-1.4-0.4-1.8
		c-0.3-0.5-0.8-0.7-1.4-0.7c-0.4,0-0.7,0.1-1,0.3c-0.3,0.2-0.5,0.5-0.6,0.8c-0.1,0.4-0.2,0.9-0.2,1.4c0,0.8,0.1,1.4,0.4,1.8
		c0.3,0.5,0.8,0.7,1.4,0.7C449.8,278.8,450.1,278.7,450.4,278.6z"/>
	<path class="st0" d="M454.2,272.8h1.5v1.2h0.1c0.6-1,1.4-1.5,2.4-1.5c0.7,0,1.2,0.2,1.6,0.7c0.4,0.4,0.6,1.1,0.6,2.1v4.5h-1.6v-3.9
		c0-1.3-0.4-1.9-1.3-1.9c-0.3,0-0.6,0.1-0.8,0.2c-0.3,0.1-0.5,0.4-0.7,0.7c-0.2,0.3-0.3,0.8-0.3,1.4v3.5h-1.6V272.8z"/>
	<path class="st0" d="M462.2,272.8h1.5v1.2h0.1c0.6-1,1.4-1.5,2.4-1.5c0.7,0,1.2,0.2,1.6,0.7c0.4,0.4,0.6,1.1,0.6,2.1v4.5h-1.6v-3.9
		c0-1.3-0.4-1.9-1.3-1.9c-0.3,0-0.6,0.1-0.8,0.2c-0.3,0.1-0.5,0.4-0.7,0.7c-0.2,0.3-0.3,0.8-0.3,1.4v3.5h-1.6V272.8z"/>
	<path class="st0" d="M470.6,279.1c-0.6-0.6-1-1.6-1-2.9c0-0.7,0.1-1.4,0.3-1.9s0.6-1,1.1-1.3c0.5-0.3,1.1-0.5,1.9-0.5
		c1,0,1.8,0.3,2.3,0.8c0.6,0.5,0.8,1.4,0.8,2.5v0.9h-4.9c0,0.7,0.2,1.2,0.6,1.6c0.4,0.4,1,0.6,1.8,0.6c0.4,0,0.8-0.1,1.2-0.2
		c0.4-0.1,0.8-0.3,1.2-0.6v1.2c-0.3,0.2-0.7,0.4-1.2,0.5c-0.4,0.1-0.9,0.2-1.5,0.2C472.2,280,471.3,279.7,470.6,279.1z M474.3,274.2
		c-0.3-0.3-0.7-0.5-1.3-0.5c-0.6,0-1,0.2-1.3,0.5c-0.3,0.3-0.5,0.8-0.5,1.4h3.5C474.7,275,474.6,274.6,474.3,274.2z"/>
	<path class="st0" d="M478,279.1c-0.6-0.6-0.9-1.5-0.9-2.8c0-0.8,0.1-1.4,0.4-2s0.6-1,1.1-1.3s1.1-0.5,1.9-0.5
		c0.4,0,0.8,0.1,1.3,0.2c0.4,0.1,0.8,0.3,1.2,0.5v1.4c-0.3-0.2-0.7-0.4-1.1-0.6c-0.4-0.1-0.8-0.2-1.1-0.2c-0.4,0-0.8,0.1-1.1,0.3
		c-0.3,0.2-0.5,0.4-0.7,0.8c-0.2,0.4-0.3,0.8-0.3,1.4c0,0.8,0.2,1.4,0.5,1.8c0.3,0.4,0.9,0.7,1.6,0.7c0.8,0,1.5-0.3,2.2-0.8v1.3
		c-0.6,0.5-1.5,0.7-2.5,0.7C479.5,280,478.7,279.7,478,279.1z"/>
	<path class="st0" d="M485.4,279.6c-0.3-0.3-0.5-0.7-0.6-1.1c-0.1-0.4-0.1-1-0.1-1.7v0v-2.7h-1.2v-0.6c0.4-0.2,0.8-0.5,1.1-0.9
		s0.6-0.8,0.8-1.4c0,0,0,0,0-0.1h0.8v1.7h2v1.3h-2v2.6c0,0.5,0,0.9,0,1.2c0,0.3,0.1,0.5,0.3,0.7c0.1,0.2,0.4,0.3,0.7,0.3
		c0.2,0,0.3,0,0.5-0.1c0.2-0.1,0.3-0.1,0.5-0.2v1.2c-0.1,0.1-0.3,0.1-0.6,0.2c-0.2,0.1-0.5,0.1-0.8,0.1
		C486.2,280,485.8,279.9,485.4,279.6z"/>
	<path class="st0" d="M492.9,279.1c-0.6-0.6-1-1.6-1-2.9c0-0.7,0.1-1.4,0.3-1.9s0.6-1,1.1-1.3c0.5-0.3,1.1-0.5,1.9-0.5
		c1,0,1.8,0.3,2.3,0.8c0.6,0.5,0.8,1.4,0.8,2.5v0.9h-4.9c0,0.7,0.2,1.2,0.6,1.6c0.4,0.4,1,0.6,1.8,0.6c0.4,0,0.8-0.1,1.2-0.2
		c0.4-0.1,0.8-0.3,1.2-0.6v1.2c-0.3,0.2-0.7,0.4-1.2,0.5c-0.4,0.1-0.9,0.2-1.5,0.2C494.4,280,493.5,279.7,492.9,279.1z M496.6,274.2
		c-0.3-0.3-0.7-0.5-1.3-0.5c-0.6,0-1,0.2-1.3,0.5c-0.3,0.3-0.5,0.8-0.5,1.4h3.5C497,275,496.8,274.6,496.6,274.2z"/>
	<path class="st0" d="M499.8,272.8h1.5v1.4h0.1c0.1-0.5,0.3-0.9,0.6-1.2c0.3-0.3,0.7-0.4,1.2-0.4c0.4,0,0.7,0.1,1,0.3v1.5
		c-0.4-0.3-0.8-0.4-1.1-0.4c-0.3,0-0.6,0.1-0.9,0.3c-0.3,0.2-0.5,0.5-0.6,1c-0.1,0.4-0.2,0.9-0.2,1.5v3h-1.6V272.8z"/>
	<path class="st0" d="M505.3,272.8h1.5v1.4h0.1c0.1-0.5,0.3-0.9,0.6-1.2c0.3-0.3,0.7-0.4,1.2-0.4c0.4,0,0.7,0.1,1,0.3v1.5
		c-0.4-0.3-0.8-0.4-1.1-0.4c-0.3,0-0.6,0.1-0.9,0.3c-0.3,0.2-0.5,0.5-0.6,1c-0.1,0.4-0.2,0.9-0.2,1.5v3h-1.6V272.8z"/>
	<path class="st0" d="M511.2,279.1c-0.6-0.6-0.9-1.5-0.9-2.8c0-0.7,0.1-1.4,0.4-1.9c0.2-0.6,0.6-1,1.1-1.3c0.5-0.3,1.2-0.5,1.9-0.5
		c1.1,0,1.9,0.3,2.5,0.9c0.6,0.6,0.9,1.6,0.9,2.8c0,0.7-0.1,1.4-0.4,1.9c-0.2,0.6-0.6,1-1.1,1.3s-1.2,0.5-1.9,0.5
		C512.6,280,511.8,279.7,511.2,279.1z M514.7,278.6c0.3-0.2,0.5-0.5,0.6-0.8s0.2-0.9,0.2-1.4c0-0.8-0.1-1.4-0.4-1.8
		c-0.3-0.5-0.8-0.7-1.4-0.7c-0.4,0-0.7,0.1-1,0.3c-0.3,0.2-0.5,0.5-0.6,0.8c-0.1,0.4-0.2,0.9-0.2,1.4c0,0.8,0.1,1.4,0.4,1.8
		c0.3,0.5,0.8,0.7,1.4,0.7C514.1,278.8,514.4,278.7,514.7,278.6z"/>
	<path class="st0" d="M518.5,272.8h1.5v1.4h0.1c0.1-0.5,0.3-0.9,0.6-1.2c0.3-0.3,0.7-0.4,1.2-0.4c0.4,0,0.7,0.1,1,0.3v1.5
		c-0.4-0.3-0.8-0.4-1.1-0.4c-0.3,0-0.6,0.1-0.9,0.3c-0.3,0.2-0.5,0.5-0.6,1c-0.1,0.4-0.2,0.9-0.2,1.5v3h-1.6V272.8z"/>
</g>
<g>
	<path class="st3" d="M212.9,267.8l-2.8-6.4h1.7l1.2,2.8c0.1,0.2,0.1,0.3,0.2,0.5c0.3,0.7,0.4,1.1,0.5,1.4h0.1
		c0.1-0.3,0.2-0.6,0.4-0.9c0.1-0.3,0.2-0.6,0.4-0.9c0.1-0.2,0.2-0.5,0.4-1l0.7-1.8h1.7l-2.8,6.4v2.9h-1.7V267.8z"/>
	<path class="st3" d="M218.1,270c-0.6-0.6-1-1.6-1-2.9c0-0.7,0.1-1.4,0.3-1.9s0.6-1,1.1-1.3c0.5-0.3,1.1-0.5,1.9-0.5
		c1,0,1.8,0.3,2.3,0.8c0.6,0.5,0.8,1.4,0.8,2.5v0.9h-4.9c0,0.7,0.2,1.2,0.6,1.6c0.4,0.4,1,0.6,1.8,0.6c0.4,0,0.8-0.1,1.2-0.2
		c0.4-0.1,0.8-0.3,1.2-0.6v1.2c-0.3,0.2-0.7,0.4-1.2,0.5c-0.4,0.1-0.9,0.2-1.5,0.2C219.7,270.9,218.8,270.6,218.1,270z M221.8,265.1
		c-0.3-0.3-0.7-0.5-1.3-0.5c-0.6,0-1,0.2-1.3,0.5c-0.3,0.3-0.5,0.8-0.5,1.4h3.5C222.2,265.9,222.1,265.4,221.8,265.1z"/>
	<path class="st3" d="M225.7,270.7c-0.4-0.1-0.8-0.3-1.1-0.5v-1.3c0.4,0.3,0.8,0.5,1.2,0.6s0.8,0.2,1.2,0.2c0.4,0,0.8-0.1,1-0.2
		s0.4-0.4,0.4-0.7c0-0.2-0.1-0.4-0.2-0.5c-0.2-0.1-0.4-0.3-0.7-0.4h0c-0.3-0.1-0.5-0.2-0.6-0.3c-0.2-0.1-0.4-0.2-0.6-0.3
		c-0.5-0.2-0.9-0.5-1.1-0.8c-0.3-0.3-0.4-0.7-0.4-1.1c0-0.4,0.1-0.7,0.3-1c0.2-0.3,0.5-0.5,0.9-0.7c0.4-0.2,0.9-0.3,1.5-0.3
		c0.4,0,0.8,0.1,1.2,0.2c0.4,0.1,0.7,0.3,1.1,0.5v1.3c-0.3-0.2-0.6-0.4-1-0.6c-0.4-0.1-0.8-0.2-1.2-0.2c-0.3,0-0.6,0.1-0.8,0.2
		c-0.2,0.1-0.3,0.3-0.3,0.5c0,0.2,0.1,0.4,0.2,0.5c0.2,0.1,0.4,0.3,0.8,0.5c0,0,0.1,0,0.1,0.1c0.4,0.2,0.8,0.4,1.2,0.5l0.1,0
		c0.3,0.1,0.5,0.3,0.7,0.4c0.2,0.1,0.3,0.3,0.5,0.5c0.1,0.2,0.2,0.5,0.2,0.8c0,0.4-0.1,0.8-0.3,1.1c-0.2,0.3-0.6,0.6-1,0.8
		s-1,0.3-1.6,0.3C226.6,270.9,226.2,270.8,225.7,270.7z"/>
</g>
<g>
	<path class="st3" d="M96.5,382.8l-2.8-6.4h1.7l1.2,2.8c0.1,0.2,0.1,0.3,0.2,0.5c0.3,0.7,0.4,1.1,0.5,1.4h0.1
		c0.1-0.3,0.2-0.6,0.4-0.9c0.1-0.3,0.2-0.6,0.4-0.9c0.1-0.2,0.2-0.5,0.4-1l0.7-1.8h1.7l-2.8,6.4v2.9h-1.7V382.8z"/>
	<path class="st3" d="M101.7,385c-0.6-0.6-1-1.6-1-2.9c0-0.7,0.1-1.4,0.3-1.9s0.6-1,1.1-1.3c0.5-0.3,1.1-0.5,1.9-0.5
		c1,0,1.8,0.3,2.3,0.8c0.6,0.5,0.8,1.4,0.8,2.5v0.9h-4.9c0,0.7,0.2,1.2,0.6,1.6c0.4,0.4,1,0.6,1.8,0.6c0.4,0,0.8-0.1,1.2-0.2
		c0.4-0.1,0.8-0.3,1.2-0.6v1.2c-0.3,0.2-0.7,0.4-1.2,0.5c-0.4,0.1-0.9,0.2-1.5,0.2C103.2,385.9,102.3,385.6,101.7,385z M105.4,380.1
		c-0.3-0.3-0.7-0.5-1.3-0.5c-0.6,0-1,0.2-1.3,0.5c-0.3,0.3-0.5,0.8-0.5,1.4h3.5C105.8,380.9,105.6,380.4,105.4,380.1z"/>
	<path class="st3" d="M109.3,385.7c-0.4-0.1-0.8-0.3-1.1-0.5v-1.3c0.4,0.3,0.8,0.5,1.2,0.6s0.8,0.2,1.2,0.2c0.4,0,0.8-0.1,1-0.2
		s0.4-0.4,0.4-0.7c0-0.2-0.1-0.4-0.2-0.5c-0.2-0.1-0.4-0.3-0.7-0.4h0c-0.3-0.1-0.5-0.2-0.6-0.3c-0.2-0.1-0.4-0.2-0.6-0.3
		c-0.5-0.2-0.9-0.5-1.1-0.8c-0.3-0.3-0.4-0.7-0.4-1.1c0-0.4,0.1-0.7,0.3-1c0.2-0.3,0.5-0.5,0.9-0.7c0.4-0.2,0.9-0.3,1.5-0.3
		c0.4,0,0.8,0.1,1.2,0.2c0.4,0.1,0.7,0.3,1.1,0.5v1.3c-0.3-0.2-0.6-0.4-1-0.6c-0.4-0.1-0.8-0.2-1.2-0.2c-0.3,0-0.6,0.1-0.8,0.2
		c-0.2,0.1-0.3,0.3-0.3,0.5c0,0.2,0.1,0.4,0.2,0.5c0.2,0.1,0.4,0.3,0.8,0.5c0,0,0.1,0,0.1,0.1c0.4,0.2,0.8,0.4,1.2,0.5l0.1,0
		c0.3,0.1,0.5,0.3,0.7,0.4c0.2,0.1,0.3,0.3,0.5,0.5c0.1,0.2,0.2,0.5,0.2,0.8c0,0.4-0.1,0.8-0.3,1.1c-0.2,0.3-0.6,0.6-1,0.8
		s-1,0.3-1.6,0.3C110.2,385.9,109.7,385.8,109.3,385.7z"/>
</g>
<g>
	<path class="st3" d="M383.5,261.4h1.8c1,1.5,1.9,3,2.7,4.4c0.6,0.9,1.1,1.8,1.6,2.6h0.1l0-1.2c-0.1-2.1-0.1-4-0.1-5.9h1.7v9.2h-1.8
		c-0.8-1.3-1.7-2.7-2.6-4.2c-0.6-1-1.1-1.9-1.7-2.8H385c0,0.2,0,0.5,0,0.8c0.1,2.3,0.1,4.4,0.1,6.3h-1.7V261.4z"/>
	<path class="st3" d="M393.6,270c-0.6-0.6-0.9-1.5-0.9-2.8c0-0.7,0.1-1.4,0.4-1.9c0.2-0.6,0.6-1,1.1-1.3c0.5-0.3,1.2-0.5,1.9-0.5
		c1.1,0,1.9,0.3,2.5,0.9c0.6,0.6,0.9,1.6,0.9,2.8c0,0.7-0.1,1.4-0.4,1.9c-0.2,0.6-0.6,1-1.1,1.3s-1.2,0.5-1.9,0.5
		C395,270.9,394.2,270.6,393.6,270z M397.1,269.4c0.3-0.2,0.5-0.5,0.6-0.8s0.2-0.9,0.2-1.4c0-0.8-0.1-1.4-0.4-1.8
		c-0.3-0.5-0.8-0.7-1.4-0.7c-0.4,0-0.7,0.1-1,0.3c-0.3,0.2-0.5,0.5-0.6,0.8c-0.1,0.4-0.2,0.9-0.2,1.4c0,0.8,0.1,1.4,0.4,1.8
		c0.3,0.5,0.8,0.7,1.4,0.7C396.5,269.7,396.8,269.6,397.1,269.4z"/>
</g>
<g>
	<path class="st3" d="M173.8,351.1h1.8c1,1.5,1.9,3,2.7,4.4c0.6,0.9,1.1,1.8,1.6,2.6h0.1l0-1.2c-0.1-2.1-0.1-4-0.1-5.9h1.7v9.2h-1.8
		c-0.8-1.3-1.7-2.7-2.6-4.2c-0.6-1-1.1-1.9-1.7-2.8h-0.1c0,0.2,0,0.5,0,0.8c0.1,2.3,0.1,4.4,0.1,6.3h-1.7V351.1z"/>
	<path class="st3" d="M183.9,359.7c-0.6-0.6-0.9-1.5-0.9-2.8c0-0.7,0.1-1.4,0.4-1.9c0.2-0.6,0.6-1,1.1-1.3c0.5-0.3,1.2-0.5,1.9-0.5
		c1.1,0,1.9,0.3,2.5,0.9c0.6,0.6,0.9,1.6,0.9,2.8c0,0.7-0.1,1.4-0.4,1.9c-0.2,0.6-0.6,1-1.1,1.3s-1.2,0.5-1.9,0.5
		C185.3,360.6,184.5,360.3,183.9,359.7z M187.4,359.1c0.3-0.2,0.5-0.5,0.6-0.8c0.1-0.4,0.2-0.9,0.2-1.4c0-0.8-0.1-1.4-0.4-1.8
		c-0.3-0.5-0.8-0.7-1.4-0.7c-0.4,0-0.7,0.1-1,0.3c-0.3,0.2-0.5,0.5-0.6,0.8c-0.1,0.4-0.2,0.9-0.2,1.4c0,0.8,0.1,1.4,0.4,1.8
		c0.3,0.5,0.8,0.7,1.4,0.7C186.8,359.4,187.1,359.3,187.4,359.1z"/>
</g>
<g>
	<g>
		<line class="st1" x1="305.4" y1="110" x2="305.4" y2="140.4"/>
		<g>
			<polygon class="st2" points="298.6,132.5 305.4,139.2 312.1,132.5 312.1,138.2 305.4,145 298.6,138.2 			"/>
		</g>
	</g>
</g>
<g>
	<g>
		<polyline class="st1" points="480,245 480,175 367.6,175 		"/>
		<g>
			<polygon class="st2" points="375.5,168.2 368.8,175 375.5,181.8 369.8,181.8 363,175 369.8,168.2 			"/>
		</g>
	</g>
</g>
<polyline class="st1" points="480,175 560,175 560,480 520,480 "/>
<g>
	<g>
		<line class="st1" x1="305" y1="205" x2="305" y2="235.4"/>
		<g>
			<polygon class="st2" points="298.2,227.5 305,234.2 311.8,227.5 311.8,233.2 305,240 298.2,233.2 			"/>
		</g>
	</g>
</g>
<g>
	<g>
		<line class="st1" x1="305" y1="510" x2="305" y2="540.4"/>
		<g>
			<polygon class="st2" points="298.2,532.5 305,539.2 311.8,532.5 311.8,538.2 305,545 298.2,538.2 			"/>
		</g>
	</g>
</g>
<g>
	<g>
		<line class="st1" x1="305" y1="395" x2="305" y2="445.4"/>
		<g>
			<polygon class="st2" points="298.2,437.5 305,444.2 311.8,437.5 311.8,443.2 305,450 298.2,443.2 			"/>
		</g>
	</g>
</g>
<g>
	<g>
		<line class="st1" x1="120" y1="365" x2="238.4" y2="365"/>
		<g>
			<polygon class="st2" points="230.5,371.8 237.2,365 230.5,358.2 236.2,358.2 243,365 236.2,371.8 			"/>
		</g>
	</g>
</g>
<g>
	<g>
		<line class="st1" x1="194.6" y1="275.3" x2="415.4" y2="275.3"/>
		<g>
			<polygon class="st2" points="202.5,282.1 195.8,275.3 202.5,268.5 196.8,268.5 190,275.3 196.8,282.1 			"/>
		</g>
		<g>
			<polygon class="st2" points="407.5,282.1 414.2,275.3 407.5,268.5 413.2,268.5 420,275.3 413.2,282.1 			"/>
		</g>
	</g>
</g>
<polygon class="st3" points="375,275.3 305,310.3 235,275.3 305,240.3 "/>
<g>
	<path class="st0" d="M281,278.8c-0.7-0.8-1.1-2-1.1-3.7c0-1,0.1-1.9,0.4-2.6c0.3-0.7,0.7-1.3,1.3-1.7c0.6-0.4,1.4-0.6,2.4-0.6
		c0.6,0,1.1,0.1,1.6,0.2c0.5,0.1,1,0.4,1.4,0.7v1.6c-0.5-0.3-0.9-0.6-1.4-0.7c-0.5-0.2-1-0.2-1.4-0.2c-0.5,0-1,0.1-1.4,0.3
		s-0.7,0.6-0.9,1.1s-0.3,1.1-0.3,1.9c0,1.1,0.2,1.9,0.7,2.5c0.4,0.6,1.1,0.9,2.1,0.9c1,0,2-0.3,2.9-1v1.5c-0.4,0.3-0.8,0.5-1.4,0.7
		s-1.1,0.3-1.8,0.3C282.7,280,281.7,279.6,281,278.8z"/>
	<path class="st0" d="M289,279.1c-0.6-0.6-0.9-1.5-0.9-2.8c0-0.7,0.1-1.4,0.4-1.9c0.2-0.6,0.6-1,1.1-1.3c0.5-0.3,1.2-0.5,1.9-0.5
		c1.1,0,1.9,0.3,2.5,0.9c0.6,0.6,0.9,1.6,0.9,2.8c0,0.7-0.1,1.4-0.3,1.9c-0.2,0.6-0.6,1-1.1,1.3s-1.2,0.5-1.9,0.5
		C290.5,280,289.7,279.7,289,279.1z M292.5,278.6c0.3-0.2,0.5-0.5,0.6-0.8c0.1-0.4,0.2-0.9,0.2-1.4c0-0.8-0.1-1.4-0.4-1.8
		c-0.3-0.5-0.8-0.7-1.4-0.7c-0.4,0-0.7,0.1-1,0.3c-0.3,0.2-0.5,0.5-0.6,0.8c-0.1,0.4-0.2,0.9-0.2,1.4c0,0.8,0.1,1.4,0.4,1.8
		c0.3,0.5,0.8,0.7,1.4,0.7C291.9,278.8,292.3,278.7,292.5,278.6z"/>
	<path class="st0" d="M296.3,272.8h1.5v1.2h0.1c0.6-1,1.4-1.5,2.4-1.5c0.7,0,1.2,0.2,1.6,0.7c0.4,0.4,0.6,1.1,0.6,2.1v4.5H301v-3.9
		c0-1.3-0.4-1.9-1.3-1.9c-0.3,0-0.6,0.1-0.8,0.2c-0.3,0.1-0.5,0.4-0.7,0.7c-0.2,0.3-0.3,0.8-0.3,1.4v3.5h-1.6V272.8z"/>
	<path class="st0" d="M304.3,272.8h1.5v1.2h0.1c0.6-1,1.4-1.5,2.4-1.5c0.7,0,1.2,0.2,1.6,0.7c0.4,0.4,0.6,1.1,0.6,2.1v4.5h-1.6v-3.9
		c0-1.3-0.4-1.9-1.3-1.9c-0.3,0-0.6,0.1-0.8,0.2c-0.3,0.1-0.5,0.4-0.7,0.7c-0.2,0.3-0.3,0.8-0.3,1.4v3.5h-1.6V272.8z"/>
	<path class="st0" d="M312.8,279.1c-0.6-0.6-1-1.6-1-2.9c0-0.7,0.1-1.4,0.3-1.9s0.6-1,1.1-1.3c0.5-0.3,1.1-0.5,1.9-0.5
		c1,0,1.8,0.3,2.3,0.8s0.8,1.4,0.8,2.5v0.9h-4.9c0,0.7,0.2,1.2,0.6,1.6c0.4,0.4,1,0.6,1.8,0.6c0.4,0,0.8-0.1,1.2-0.2
		c0.4-0.1,0.8-0.3,1.2-0.6v1.2c-0.3,0.2-0.7,0.4-1.2,0.5c-0.4,0.1-0.9,0.2-1.5,0.2C314.3,280,313.4,279.7,312.8,279.1z M316.4,274.2
		c-0.3-0.3-0.7-0.5-1.3-0.5c-0.6,0-1,0.2-1.3,0.5c-0.3,0.3-0.5,0.8-0.5,1.4h3.5C316.8,275,316.7,274.6,316.4,274.2z"/>
	<path class="st0" d="M320.2,279.1c-0.6-0.6-0.9-1.5-0.9-2.8c0-0.8,0.1-1.4,0.4-2s0.6-1,1.1-1.3c0.5-0.3,1.1-0.5,1.9-0.5
		c0.4,0,0.8,0.1,1.3,0.2c0.4,0.1,0.8,0.3,1.2,0.5v1.4c-0.3-0.2-0.7-0.4-1.1-0.6c-0.4-0.1-0.8-0.2-1.1-0.2c-0.4,0-0.8,0.1-1.1,0.3
		c-0.3,0.2-0.5,0.4-0.7,0.8c-0.2,0.4-0.3,0.8-0.3,1.4c0,0.8,0.2,1.4,0.5,1.8c0.4,0.4,0.9,0.7,1.6,0.7c0.8,0,1.5-0.3,2.2-0.8v1.3
		c-0.6,0.5-1.5,0.7-2.5,0.7C321.6,280,320.8,279.7,320.2,279.1z"/>
	<path class="st0" d="M327.6,279.6c-0.3-0.3-0.5-0.7-0.6-1.1c-0.1-0.4-0.1-1-0.1-1.7v0v-2.7h-1.2v-0.6c0.4-0.2,0.8-0.5,1.1-0.9
		c0.3-0.3,0.6-0.8,0.8-1.4c0,0,0,0,0-0.1h0.8v1.7h2v1.3h-2v2.6c0,0.5,0,0.9,0,1.2c0,0.3,0.1,0.5,0.3,0.7c0.1,0.2,0.4,0.3,0.7,0.3
		c0.2,0,0.3,0,0.5-0.1c0.2-0.1,0.3-0.1,0.5-0.2v1.2c-0.1,0.1-0.3,0.1-0.6,0.2c-0.2,0.1-0.5,0.1-0.8,0.1
		C328.4,280,327.9,279.9,327.6,279.6z"/>
</g>
<polygon class="st3" points="190,275.3 120,310.3 50,275.3 120,240.3 "/>
<g>
	<path class="st0" d="M73.6,270.6h1.7v9.2h-1.7V270.6z"/>
	<path class="st0" d="M77.9,279.9c-0.4-0.1-0.8-0.3-1.1-0.5V278c0.4,0.3,0.8,0.5,1.2,0.6s0.8,0.2,1.2,0.2c0.4,0,0.8-0.1,1-0.2
		s0.4-0.4,0.4-0.7c0-0.2-0.1-0.4-0.2-0.5c-0.2-0.1-0.4-0.3-0.7-0.4h0c-0.3-0.1-0.5-0.2-0.6-0.3s-0.4-0.2-0.6-0.3
		c-0.5-0.2-0.9-0.5-1.1-0.8c-0.3-0.3-0.4-0.7-0.4-1.1c0-0.4,0.1-0.7,0.3-1s0.5-0.5,0.9-0.7c0.4-0.2,0.9-0.3,1.5-0.3
		c0.4,0,0.8,0.1,1.2,0.2c0.4,0.1,0.7,0.3,1.1,0.5v1.3c-0.3-0.2-0.6-0.4-1-0.6c-0.4-0.1-0.8-0.2-1.2-0.2c-0.3,0-0.6,0.1-0.8,0.2
		c-0.2,0.1-0.3,0.3-0.3,0.5c0,0.2,0.1,0.4,0.2,0.5c0.2,0.1,0.4,0.3,0.8,0.5c0,0,0.1,0,0.1,0.1c0.4,0.2,0.8,0.4,1.2,0.5l0.1,0
		c0.3,0.1,0.5,0.3,0.7,0.4c0.2,0.1,0.3,0.3,0.5,0.5c0.1,0.2,0.2,0.5,0.2,0.8c0,0.4-0.1,0.8-0.3,1.1c-0.2,0.3-0.6,0.6-1,0.8
		c-0.4,0.2-1,0.3-1.6,0.3C78.8,280,78.3,280,77.9,279.9z"/>
	<path class="st0" d="M86.4,272.8h1.5v1.2h0.1c0.3-0.4,0.6-0.8,1-1c0.4-0.3,0.9-0.4,1.5-0.4c0.5,0,1,0.1,1.4,0.4
		c0.4,0.3,0.7,0.7,1,1.2c0.2,0.5,0.4,1.2,0.4,1.9c0,0.7-0.1,1.4-0.3,2c-0.2,0.6-0.5,1.1-1,1.4c-0.4,0.3-1,0.5-1.7,0.5
		c-0.5,0-0.9-0.1-1.4-0.3c-0.4-0.2-0.7-0.5-1-1h-0.1v3.5h-1.5V272.8z M90.8,278.5c0.3-0.2,0.5-0.5,0.6-0.9c0.1-0.4,0.2-0.8,0.2-1.4
		c0-0.8-0.2-1.4-0.5-1.8c-0.3-0.4-0.8-0.7-1.3-0.7c-0.4,0-0.7,0.1-1,0.3s-0.5,0.5-0.7,0.9c-0.2,0.4-0.3,0.9-0.3,1.4
		c0,0.8,0.2,1.4,0.5,1.8c0.3,0.4,0.8,0.7,1.4,0.7C90.2,278.8,90.5,278.7,90.8,278.5z"/>
	<path class="st0" d="M94.6,272.8h1.5v1.4h0.1c0.1-0.5,0.3-0.9,0.6-1.2c0.3-0.3,0.7-0.4,1.2-0.4c0.4,0,0.7,0.1,1,0.3v1.5
		c-0.4-0.3-0.8-0.4-1.1-0.4c-0.3,0-0.6,0.1-0.9,0.3c-0.3,0.2-0.5,0.5-0.6,1c-0.1,0.4-0.2,0.9-0.2,1.5v3h-1.6V272.8z"/>
	<path class="st0" d="M100.5,279.1c-0.6-0.6-0.9-1.5-0.9-2.8c0-0.7,0.1-1.4,0.4-1.9c0.2-0.6,0.6-1,1.1-1.3c0.5-0.3,1.2-0.5,1.9-0.5
		c1.1,0,1.9,0.3,2.5,0.9c0.6,0.6,0.9,1.6,0.9,2.8c0,0.7-0.1,1.4-0.3,1.9c-0.2,0.6-0.6,1-1.1,1.3s-1.2,0.5-1.9,0.5
		C101.9,280,101.1,279.7,100.5,279.1z M104,278.6c0.3-0.2,0.5-0.5,0.6-0.8c0.1-0.4,0.2-0.9,0.2-1.4c0-0.8-0.1-1.4-0.4-1.8
		c-0.3-0.5-0.8-0.7-1.4-0.7c-0.4,0-0.7,0.1-1,0.3c-0.3,0.2-0.5,0.5-0.6,0.8c-0.1,0.4-0.2,0.9-0.2,1.4c0,0.8,0.1,1.4,0.4,1.8
		c0.3,0.5,0.8,0.7,1.4,0.7C103.4,278.8,103.7,278.7,104,278.6z"/>
	<path class="st0" d="M111.5,270.1c0.3,0.1,0.5,0.2,0.7,0.3v1.3c-0.2-0.1-0.4-0.2-0.6-0.3s-0.5-0.1-0.7-0.1c-0.5,0-0.8,0.1-0.9,0.4
		s-0.2,0.6-0.2,1v0v0.7h2v1.3h-2v5.1h-1.6v-5.1h-0.9v-1.3h0.9v-0.7c0-0.4,0-0.8,0.1-1.2c0.1-0.4,0.3-0.7,0.7-1
		c0.4-0.3,0.9-0.5,1.6-0.5C110.9,270,111.2,270.1,111.5,270.1z"/>
	<path class="st0" d="M113.2,279.1c-0.6-0.6-1-1.6-1-2.9c0-0.7,0.1-1.4,0.3-1.9s0.6-1,1.1-1.3c0.5-0.3,1.1-0.5,1.9-0.5
		c1,0,1.8,0.3,2.3,0.8s0.8,1.4,0.8,2.5v0.9h-4.9c0,0.7,0.2,1.2,0.6,1.6c0.4,0.4,1,0.6,1.8,0.6c0.4,0,0.8-0.1,1.2-0.2
		c0.4-0.1,0.8-0.3,1.2-0.6v1.2c-0.3,0.2-0.7,0.4-1.2,0.5c-0.4,0.1-0.9,0.2-1.5,0.2C114.7,280,113.8,279.7,113.2,279.1z M116.9,274.2
		c-0.3-0.3-0.7-0.5-1.3-0.5c-0.6,0-1,0.2-1.3,0.5c-0.3,0.3-0.5,0.8-0.5,1.4h3.5C117.3,275,117.1,274.6,116.9,274.2z"/>
	<path class="st0" d="M120.8,279.9c-0.4-0.1-0.8-0.3-1.1-0.5V278c0.4,0.3,0.8,0.5,1.2,0.6s0.8,0.2,1.2,0.2c0.4,0,0.8-0.1,1-0.2
		s0.4-0.4,0.4-0.7c0-0.2-0.1-0.4-0.2-0.5c-0.2-0.1-0.4-0.3-0.7-0.4h0c-0.3-0.1-0.5-0.2-0.6-0.3s-0.4-0.2-0.6-0.3
		c-0.5-0.2-0.9-0.5-1.1-0.8c-0.3-0.3-0.4-0.7-0.4-1.1c0-0.4,0.1-0.7,0.3-1s0.5-0.5,0.9-0.7c0.4-0.2,0.9-0.3,1.5-0.3
		c0.4,0,0.8,0.1,1.2,0.2c0.4,0.1,0.7,0.3,1.1,0.5v1.3c-0.3-0.2-0.6-0.4-1-0.6c-0.4-0.1-0.8-0.2-1.2-0.2c-0.3,0-0.6,0.1-0.8,0.2
		c-0.2,0.1-0.3,0.3-0.3,0.5c0,0.2,0.1,0.4,0.2,0.5c0.2,0.1,0.4,0.3,0.8,0.5c0,0,0.1,0,0.1,0.1c0.4,0.2,0.8,0.4,1.2,0.5l0.1,0
		c0.3,0.1,0.5,0.3,0.7,0.4c0.2,0.1,0.3,0.3,0.5,0.5c0.1,0.2,0.2,0.5,0.2,0.8c0,0.4-0.1,0.8-0.3,1.1c-0.2,0.3-0.6,0.6-1,0.8
		c-0.4,0.2-1,0.3-1.6,0.3C121.7,280,121.2,280,120.8,279.9z"/>
	<path class="st0" d="M127.1,279.9c-0.4-0.1-0.8-0.3-1.1-0.5V278c0.4,0.3,0.8,0.5,1.2,0.6s0.8,0.2,1.2,0.2c0.4,0,0.8-0.1,1-0.2
		s0.4-0.4,0.4-0.7c0-0.2-0.1-0.4-0.2-0.5c-0.2-0.1-0.4-0.3-0.7-0.4h0c-0.3-0.1-0.5-0.2-0.6-0.3s-0.4-0.2-0.6-0.3
		c-0.5-0.2-0.9-0.5-1.1-0.8c-0.3-0.3-0.4-0.7-0.4-1.1c0-0.4,0.1-0.7,0.3-1s0.5-0.5,0.9-0.7c0.4-0.2,0.9-0.3,1.5-0.3
		c0.4,0,0.8,0.1,1.2,0.2c0.4,0.1,0.7,0.3,1.1,0.5v1.3c-0.3-0.2-0.6-0.4-1-0.6c-0.4-0.1-0.8-0.2-1.2-0.2c-0.3,0-0.6,0.1-0.8,0.2
		c-0.2,0.1-0.3,0.3-0.3,0.5c0,0.2,0.1,0.4,0.2,0.5c0.2,0.1,0.4,0.3,0.8,0.5c0,0,0.1,0,0.1,0.1c0.4,0.2,0.8,0.4,1.2,0.5l0.1,0
		c0.3,0.1,0.5,0.3,0.7,0.4c0.2,0.1,0.3,0.3,0.5,0.5c0.1,0.2,0.2,0.5,0.2,0.8c0,0.4-0.1,0.8-0.3,1.1c-0.2,0.3-0.6,0.6-1,0.8
		c-0.4,0.2-1,0.3-1.6,0.3C128,280,127.5,280,127.1,279.9z"/>
	<path class="st0" d="M132.8,271.9c-0.1-0.1-0.2-0.3-0.2-0.6c0-0.2,0.1-0.4,0.2-0.6c0.1-0.1,0.4-0.2,0.7-0.2c0.3,0,0.5,0.1,0.7,0.2
		s0.2,0.3,0.2,0.6c0,0.2-0.1,0.4-0.2,0.6s-0.4,0.2-0.7,0.2C133.1,272.1,132.9,272,132.8,271.9z M133.5,272.8c0.2,0,0.5,0,0.8-0.1v7
		h-1.6v-7C133,272.8,133.2,272.8,133.5,272.8z"/>
	<path class="st0" d="M136.5,279.1c-0.6-0.6-0.9-1.5-0.9-2.8c0-0.7,0.1-1.4,0.4-1.9c0.2-0.6,0.6-1,1.1-1.3c0.5-0.3,1.2-0.5,1.9-0.5
		c1.1,0,1.9,0.3,2.5,0.9c0.6,0.6,0.9,1.6,0.9,2.8c0,0.7-0.1,1.4-0.4,1.9c-0.2,0.6-0.6,1-1.1,1.3s-1.2,0.5-1.9,0.5
		C138,280,137.1,279.7,136.5,279.1z M140,278.6c0.3-0.2,0.5-0.5,0.6-0.8s0.2-0.9,0.2-1.4c0-0.8-0.1-1.4-0.4-1.8
		c-0.3-0.5-0.8-0.7-1.4-0.7c-0.4,0-0.7,0.1-1,0.3c-0.3,0.2-0.5,0.5-0.6,0.8c-0.1,0.4-0.2,0.9-0.2,1.4c0,0.8,0.1,1.4,0.4,1.8
		c0.3,0.5,0.8,0.7,1.4,0.7C139.4,278.8,139.7,278.7,140,278.6z"/>
	<path class="st0" d="M143.8,272.8h1.5v1.2h0.1c0.6-1,1.4-1.5,2.4-1.5c0.7,0,1.2,0.2,1.6,0.7c0.4,0.4,0.6,1.1,0.6,2.1v4.5h-1.6v-3.9
		c0-1.3-0.4-1.9-1.3-1.9c-0.3,0-0.6,0.1-0.8,0.2c-0.3,0.1-0.5,0.4-0.7,0.7c-0.2,0.3-0.3,0.8-0.3,1.4v3.5h-1.6V272.8z"/>
	<path class="st0" d="M151.8,279.6c-0.4-0.3-0.6-0.7-0.6-1.3c0-0.6,0.2-1,0.5-1.3c0.4-0.3,0.8-0.6,1.4-0.7l0.4-0.1
		c0.4-0.1,0.7-0.2,1-0.3s0.5-0.2,0.7-0.4c0.2-0.2,0.3-0.4,0.3-0.6c0-0.3-0.1-0.5-0.3-0.7c-0.2-0.2-0.5-0.3-0.9-0.3
		c-0.4,0-0.8,0.1-1.2,0.3c-0.4,0.2-0.8,0.4-1.2,0.7v-1.4c0.3-0.3,0.7-0.5,1.2-0.6c0.5-0.2,1-0.2,1.5-0.2c0.8,0,1.4,0.2,1.8,0.6
		c0.4,0.4,0.6,1,0.6,1.8c0,0.3,0,0.6,0,0.7c0,0.2,0,0.4,0,0.7c0,0.2,0,0.5,0,0.7s0,0.4,0,0.6c0,0.5,0.1,0.8,0.1,1.2
		c0.1,0.3,0.1,0.6,0.2,1h-1.5c-0.1-0.3-0.2-0.7-0.3-1.3h-0.1c-0.2,0.5-0.6,0.9-1,1.2c-0.4,0.3-0.9,0.4-1.4,0.4
		C152.6,280,152.1,279.9,151.8,279.6z M154.5,278.6c0.3-0.2,0.5-0.5,0.7-0.8c0.2-0.3,0.3-0.7,0.3-1.2v-0.4c-0.1,0.2-0.3,0.3-0.5,0.4
		c-0.2,0.1-0.5,0.2-0.8,0.3l-0.4,0.1c-0.3,0.1-0.6,0.2-0.7,0.4c-0.2,0.2-0.3,0.4-0.3,0.7s0.1,0.5,0.3,0.6c0.2,0.1,0.4,0.2,0.6,0.2
		C153.9,278.9,154.2,278.8,154.5,278.6z"/>
	<path class="st0" d="M158.8,279.8v-9.5h1.6v9.5H158.8z"/>
	<path class="st0" d="M163.6,276.3c0.1-0.3,0.3-0.6,0.4-0.8c0.2-0.2,0.4-0.5,0.6-0.8c0.3-0.4,0.6-0.7,0.7-1c0.2-0.3,0.2-0.6,0.2-0.9
		c0-0.4-0.1-0.7-0.4-0.9c-0.3-0.2-0.6-0.3-1.1-0.3c-0.4,0-0.8,0.1-1.2,0.3s-0.8,0.5-1.2,0.9v-1.4c0.8-0.7,1.7-1,2.8-1
		c0.8,0,1.5,0.2,2,0.5c0.5,0.4,0.7,0.9,0.7,1.7c0,0.4-0.1,0.7-0.2,1c-0.1,0.3-0.3,0.6-0.4,0.8s-0.4,0.5-0.7,0.8
		c-0.4,0.4-0.7,0.8-0.9,1.1c-0.2,0.3-0.3,0.7-0.3,1.1h-1.3C163.4,277,163.4,276.6,163.6,276.3z M163.4,279.8
		c-0.2-0.2-0.3-0.4-0.3-0.7c0-0.3,0.1-0.5,0.3-0.7s0.4-0.3,0.7-0.3c0.3,0,0.5,0.1,0.7,0.3c0.2,0.2,0.3,0.4,0.3,0.7
		c0,0.3-0.1,0.5-0.3,0.7c-0.2,0.2-0.4,0.2-0.7,0.2C163.8,280,163.5,279.9,163.4,279.8z"/>
</g>
<g>
	<circle class="st3" cx="305" cy="595" r="50"/>
	<g>
		<path class="st0" d="M288.5,582.4c-0.6-0.4-1.1-0.9-1.5-1.6c-0.3-0.7-0.5-1.6-0.5-2.7c0-1,0.2-1.9,0.5-2.6
			c0.3-0.7,0.8-1.3,1.4-1.7c0.6-0.4,1.4-0.6,2.3-0.6c0.6,0,1.1,0.1,1.7,0.2c0.5,0.2,1,0.4,1.4,0.7v1.6c-0.5-0.3-0.9-0.5-1.4-0.7
			c-0.5-0.2-0.9-0.3-1.5-0.3c-0.6,0-1,0.1-1.4,0.3c-0.4,0.2-0.7,0.6-0.9,1.1c-0.2,0.5-0.3,1.1-0.3,1.9c0,0.7,0.1,1.4,0.3,1.9
			c0.2,0.5,0.5,0.9,0.9,1.2c0.4,0.3,0.9,0.4,1.6,0.4c0.3,0,0.7,0,0.9-0.1c0.3-0.1,0.5-0.2,0.6-0.4v-2.9h1.6v3.6
			c-0.3,0.4-0.8,0.7-1.3,0.9s-1.2,0.3-2,0.3C289.9,582.9,289.1,582.8,288.5,582.4z"/>
		<path class="st0" d="M295.7,575.7h1.5v1.4h0.1c0.1-0.5,0.3-0.9,0.6-1.2c0.3-0.3,0.7-0.4,1.2-0.4c0.4,0,0.7,0.1,1,0.3v1.5
			c-0.4-0.3-0.8-0.4-1.1-0.4c-0.3,0-0.6,0.1-0.9,0.3c-0.3,0.2-0.5,0.5-0.6,1c-0.1,0.4-0.2,0.9-0.2,1.5v3h-1.6V575.7z"/>
		<path class="st0" d="M301.5,582c-0.6-0.6-0.9-1.5-0.9-2.8c0-0.7,0.1-1.4,0.4-1.9c0.2-0.6,0.6-1,1.1-1.3c0.5-0.3,1.2-0.5,1.9-0.5
			c1.1,0,1.9,0.3,2.5,0.9c0.6,0.6,0.9,1.6,0.9,2.8c0,0.7-0.1,1.4-0.3,1.9c-0.2,0.6-0.6,1-1.1,1.3s-1.2,0.5-1.9,0.5
			C303,582.9,302.1,582.6,301.5,582z M305,581.5c0.3-0.2,0.5-0.5,0.6-0.8c0.1-0.4,0.2-0.9,0.2-1.4c0-0.8-0.1-1.4-0.4-1.8
			c-0.3-0.5-0.8-0.7-1.4-0.7c-0.4,0-0.7,0.1-1,0.3c-0.3,0.2-0.5,0.5-0.6,0.8c-0.1,0.4-0.2,0.9-0.2,1.4c0,0.8,0.1,1.4,0.4,1.8
			s0.8,0.7,1.4,0.7C304.4,581.7,304.7,581.6,305,581.5z"/>
		<path class="st0" d="M308.8,580.3v-4.6h1.6v4.1c0,0.5,0.1,1,0.2,1.3s0.5,0.6,1,0.6c0.4,0,0.8-0.2,1.1-0.5c0.3-0.3,0.5-0.7,0.7-1.1
			v-4.4h1.6v7h-1.5v-1.3h-0.1c-0.2,0.4-0.6,0.8-1,1.1s-0.9,0.4-1.5,0.4C309.5,582.9,308.8,582.1,308.8,580.3z"/>
		<path class="st0" d="M316.7,575.7h1.5v1.2h0.1c0.3-0.4,0.6-0.8,1-1c0.4-0.3,0.9-0.4,1.5-0.4c0.5,0,1,0.1,1.4,0.4
			c0.4,0.3,0.7,0.7,1,1.2c0.2,0.5,0.4,1.2,0.4,1.9c0,0.7-0.1,1.4-0.3,2c-0.2,0.6-0.5,1.1-1,1.4c-0.4,0.3-1,0.5-1.7,0.5
			c-0.5,0-0.9-0.1-1.4-0.3c-0.4-0.2-0.7-0.5-1-1h-0.1v3.5h-1.5V575.7z M321.1,581.4c0.3-0.2,0.5-0.5,0.6-0.9
			c0.1-0.4,0.2-0.8,0.2-1.4c0-0.8-0.2-1.4-0.5-1.8c-0.3-0.4-0.8-0.7-1.3-0.7c-0.4,0-0.7,0.1-1,0.3s-0.5,0.5-0.7,0.9
			c-0.2,0.4-0.3,0.9-0.3,1.4c0,0.8,0.2,1.4,0.5,1.8c0.3,0.4,0.8,0.7,1.4,0.7C320.5,581.7,320.8,581.6,321.1,581.4z"/>
		<path class="st0" d="M282.9,599.3c-0.3-0.3-0.5-0.7-0.6-1.1c-0.1-0.4-0.1-1-0.1-1.7v0v-2.7h-1.2v-0.6c0.4-0.2,0.8-0.5,1.1-0.9
			c0.3-0.3,0.6-0.8,0.8-1.4c0,0,0,0,0-0.1h0.8v1.7h2v1.3h-2v2.6c0,0.5,0,0.9,0,1.2c0,0.3,0.1,0.5,0.3,0.7c0.1,0.2,0.4,0.3,0.7,0.3
			c0.2,0,0.3,0,0.5-0.1c0.2-0.1,0.3-0.1,0.5-0.2v1.2c-0.1,0.1-0.3,0.1-0.6,0.2c-0.2,0.1-0.5,0.1-0.8,0.1
			C283.7,599.7,283.3,599.6,282.9,599.3z"/>
		<path class="st0" d="M287,590h1.6v3.7h0.1c0.3-0.5,0.6-0.8,1-1.1c0.4-0.3,0.9-0.4,1.4-0.4c0.7,0,1.2,0.2,1.6,0.7
			c0.4,0.4,0.6,1.1,0.6,2.1v4.5h-1.6v-3.9c0-1.3-0.4-1.9-1.3-1.9c-0.3,0-0.6,0.1-0.8,0.2c-0.3,0.1-0.5,0.4-0.7,0.7
			c-0.2,0.3-0.3,0.8-0.3,1.4v3.5H287V590z"/>
		<path class="st0" d="M295.5,598.8c-0.6-0.6-1-1.6-1-2.9c0-0.7,0.1-1.4,0.3-1.9s0.6-1,1.1-1.3c0.5-0.3,1.1-0.5,1.9-0.5
			c1,0,1.8,0.3,2.3,0.8s0.8,1.4,0.8,2.5v0.9h-4.9c0,0.7,0.2,1.2,0.6,1.6s1,0.6,1.8,0.6c0.4,0,0.8-0.1,1.2-0.2
			c0.4-0.1,0.8-0.3,1.2-0.6v1.2c-0.3,0.2-0.7,0.4-1.2,0.5s-0.9,0.2-1.5,0.2C297,599.7,296.1,599.4,295.5,598.8z M299.1,593.9
			c-0.3-0.3-0.7-0.5-1.3-0.5c-0.6,0-1,0.2-1.3,0.5c-0.3,0.3-0.5,0.8-0.5,1.4h3.5C299.5,594.7,299.4,594.3,299.1,593.9z"/>
		<path class="st0" d="M302.4,592.5h1.5v1.4h0.1c0.1-0.5,0.3-0.9,0.6-1.2c0.3-0.3,0.7-0.4,1.2-0.4c0.4,0,0.7,0.1,1,0.3v1.5
			c-0.4-0.3-0.8-0.4-1.1-0.4c-0.3,0-0.6,0.1-0.9,0.3c-0.3,0.2-0.5,0.5-0.6,1c-0.1,0.4-0.2,0.9-0.2,1.5v3h-1.6V592.5z"/>
		<path class="st0" d="M307.7,599.3c-0.4-0.3-0.6-0.7-0.6-1.3c0-0.6,0.2-1,0.5-1.3c0.4-0.3,0.8-0.6,1.4-0.7l0.4-0.1
			c0.4-0.1,0.7-0.2,1-0.3c0.3-0.1,0.5-0.2,0.7-0.4s0.3-0.4,0.3-0.6c0-0.3-0.1-0.5-0.3-0.7s-0.5-0.3-0.9-0.3c-0.4,0-0.8,0.1-1.2,0.3
			c-0.4,0.2-0.8,0.4-1.2,0.7v-1.4c0.3-0.3,0.7-0.5,1.2-0.6s1-0.2,1.5-0.2c0.8,0,1.4,0.2,1.8,0.6c0.4,0.4,0.6,1,0.6,1.8
			c0,0.3,0,0.6,0,0.7s0,0.4,0,0.7c0,0.2,0,0.5,0,0.7c0,0.2,0,0.4,0,0.6c0,0.5,0.1,0.8,0.1,1.2s0.1,0.6,0.2,1h-1.5
			c-0.1-0.3-0.2-0.7-0.3-1.3h-0.1c-0.2,0.5-0.6,0.9-1,1.2s-0.9,0.4-1.4,0.4C308.6,599.7,308.1,599.6,307.7,599.3z M310.4,598.3
			c0.3-0.2,0.5-0.5,0.7-0.8c0.2-0.3,0.3-0.7,0.3-1.2v-0.4c-0.1,0.2-0.3,0.3-0.5,0.4c-0.2,0.1-0.5,0.2-0.8,0.3l-0.4,0.1
			c-0.3,0.1-0.6,0.2-0.7,0.4c-0.2,0.2-0.3,0.4-0.3,0.7s0.1,0.5,0.3,0.6s0.4,0.2,0.6,0.2C309.9,598.6,310.2,598.5,310.4,598.3z"/>
		<path class="st0" d="M314.8,592.5h1.5v1.2h0.1c0.3-0.4,0.6-0.8,1-1c0.4-0.3,0.9-0.4,1.5-0.4c0.5,0,1,0.1,1.4,0.4
			c0.4,0.3,0.7,0.7,1,1.2c0.2,0.5,0.4,1.2,0.4,1.9c0,0.7-0.1,1.4-0.3,2s-0.5,1.1-1,1.4c-0.4,0.3-1,0.5-1.7,0.5
			c-0.5,0-0.9-0.1-1.4-0.3s-0.7-0.5-1-1h-0.1v3.5h-1.5V592.5z M319.2,598.2c0.3-0.2,0.5-0.5,0.6-0.9s0.2-0.8,0.2-1.4
			c0-0.8-0.2-1.4-0.5-1.8s-0.8-0.7-1.3-0.7c-0.4,0-0.7,0.1-1,0.3c-0.3,0.2-0.5,0.5-0.7,0.9c-0.2,0.4-0.3,0.9-0.3,1.4
			c0,0.8,0.2,1.4,0.5,1.8c0.3,0.4,0.8,0.7,1.4,0.7C318.6,598.5,318.9,598.4,319.2,598.2z"/>
		<path class="st0" d="M322.8,602c-0.3-0.1-0.6-0.2-0.8-0.3v-1.3c0.2,0.1,0.4,0.2,0.7,0.3c0.3,0.1,0.6,0.1,0.9,0.1
			c0.3,0,0.5-0.1,0.7-0.2s0.3-0.4,0.3-0.7c0-0.2,0-0.4-0.1-0.7c-0.1-0.2-0.2-0.6-0.3-1v0l-2-5.8h1.6c0.3,1,0.7,1.9,1,2.8
			c0.2,0.6,0.5,1.6,0.9,3.1h0.1c0.1-0.3,0.1-0.6,0.2-0.9c0.1-0.4,0.2-0.8,0.3-1.2c0.1-0.4,0.2-0.7,0.3-1.1c0.3-0.8,0.6-1.8,0.9-2.8
			h1.6l-2.1,6.1l-0.4,1c-0.3,0.9-0.7,1.5-1.1,1.9c-0.4,0.4-1,0.6-1.7,0.6C323.5,602.1,323.2,602.1,322.8,602z"/>
		<path class="st0" d="M292.9,615.6c-0.6-0.6-0.9-1.5-0.9-2.8c0-0.8,0.1-1.4,0.4-2c0.3-0.6,0.6-1,1.1-1.3c0.5-0.3,1.1-0.5,1.9-0.5
			c0.4,0,0.8,0.1,1.3,0.2c0.4,0.1,0.8,0.3,1.2,0.5v1.4c-0.3-0.2-0.7-0.4-1.1-0.6c-0.4-0.1-0.8-0.2-1.1-0.2c-0.4,0-0.8,0.1-1.1,0.3
			c-0.3,0.2-0.5,0.4-0.7,0.8c-0.2,0.4-0.3,0.8-0.3,1.4c0,0.8,0.2,1.4,0.5,1.8c0.4,0.4,0.9,0.7,1.6,0.7c0.8,0,1.5-0.3,2.2-0.8v1.3
			c-0.6,0.5-1.5,0.7-2.5,0.7C294.4,616.5,293.6,616.2,292.9,615.6z"/>
		<path class="st0" d="M299.3,606.8h1.6v3.7h0.1c0.3-0.5,0.6-0.8,1-1.1c0.4-0.3,0.9-0.4,1.4-0.4c0.7,0,1.2,0.2,1.6,0.7
			c0.4,0.4,0.6,1.1,0.6,2.1v4.5h-1.6v-3.9c0-1.3-0.4-1.9-1.3-1.9c-0.3,0-0.6,0.1-0.8,0.2c-0.3,0.1-0.5,0.4-0.7,0.7
			c-0.2,0.3-0.3,0.8-0.3,1.4v3.5h-1.6V606.8z"/>
		<path class="st0" d="M307.2,616.1c-0.4-0.3-0.6-0.7-0.6-1.3c0-0.6,0.2-1,0.5-1.3s0.8-0.6,1.4-0.7l0.4-0.1c0.4-0.1,0.7-0.2,1-0.3
			c0.3-0.1,0.5-0.2,0.7-0.4s0.3-0.4,0.3-0.6c0-0.3-0.1-0.5-0.3-0.7c-0.2-0.2-0.5-0.3-0.9-0.3c-0.4,0-0.8,0.1-1.2,0.3
			s-0.8,0.4-1.2,0.7v-1.4c0.3-0.3,0.7-0.5,1.2-0.6c0.5-0.2,1-0.2,1.5-0.2c0.8,0,1.4,0.2,1.8,0.6c0.4,0.4,0.6,1,0.6,1.8
			c0,0.3,0,0.6,0,0.7c0,0.2,0,0.4,0,0.7c0,0.2,0,0.5,0,0.7c0,0.2,0,0.4,0,0.6c0,0.5,0.1,0.8,0.1,1.2c0.1,0.3,0.1,0.6,0.2,1h-1.5
			c-0.1-0.3-0.2-0.7-0.3-1.3H311c-0.2,0.5-0.6,0.9-1,1.2c-0.4,0.3-0.9,0.4-1.4,0.4C308,616.5,307.6,616.4,307.2,616.1z M309.9,615.1
			c0.3-0.2,0.5-0.5,0.7-0.8c0.2-0.3,0.3-0.7,0.3-1.2v-0.4c-0.1,0.2-0.3,0.3-0.5,0.4c-0.2,0.1-0.5,0.2-0.8,0.3l-0.4,0.1
			c-0.3,0.1-0.6,0.2-0.7,0.4s-0.3,0.4-0.3,0.7s0.1,0.5,0.3,0.6s0.4,0.2,0.6,0.2C309.3,615.4,309.6,615.3,309.9,615.1z"/>
		<path class="st0" d="M315.2,616.1c-0.3-0.3-0.5-0.7-0.6-1.1c-0.1-0.4-0.1-1-0.1-1.7v0v-2.7h-1.2v-0.6c0.4-0.2,0.8-0.5,1.1-0.9
			c0.3-0.3,0.6-0.8,0.8-1.4c0,0,0,0,0-0.1h0.8v1.7h2v1.3h-2v2.6c0,0.5,0,0.9,0,1.2c0,0.3,0.1,0.5,0.3,0.7c0.1,0.2,0.4,0.3,0.7,0.3
			c0.2,0,0.3,0,0.5-0.1c0.2-0.1,0.3-0.1,0.5-0.2v1.2c-0.1,0.1-0.3,0.1-0.6,0.2c-0.2,0.1-0.5,0.1-0.8,0.1
			C316,616.5,315.6,616.4,315.2,616.1z"/>
	</g>
</g>
<circle class="st3" cx="480" cy="480" r="50"/>
<g>
	<path class="st0" d="M446.7,475.3h3.4c1.2,0,2.2,0.4,3,1.1c0.7,0.7,1.1,1.9,1.1,3.5c0,1-0.2,1.8-0.5,2.5c-0.3,0.7-0.8,1.2-1.5,1.6
		c-0.7,0.4-1.5,0.6-2.6,0.6h-3V475.3z M447.6,483h2.2c0.5,0,1-0.1,1.4-0.3c0.4-0.2,0.7-0.6,1-1s0.4-1.1,0.4-1.8c0-1-0.2-1.7-0.7-2.3
		s-1.1-0.9-2-0.9h-2.3l0.7-0.7v7.8L447.6,483z"/>
	<path class="st0" d="M455.8,476.6c-0.1-0.1-0.2-0.3-0.2-0.6c0-0.2,0.1-0.4,0.2-0.6c0.1-0.1,0.4-0.2,0.7-0.2c0.3,0,0.5,0.1,0.7,0.2
		s0.2,0.3,0.2,0.6c0,0.2-0.1,0.4-0.2,0.6s-0.4,0.2-0.7,0.2C456.2,476.8,456,476.7,455.8,476.6z M456.5,477.5c0.2,0,0.5,0,0.8-0.1v7
		h-1.6v-7C456,477.5,456.3,477.5,456.5,477.5z"/>
	<path class="st0" d="M459.8,484.6c-0.4-0.1-0.8-0.3-1.1-0.5v-1.3c0.4,0.3,0.8,0.5,1.2,0.6s0.8,0.2,1.2,0.2c0.4,0,0.8-0.1,1-0.2
		s0.4-0.4,0.4-0.7c0-0.2-0.1-0.4-0.2-0.5c-0.2-0.1-0.4-0.3-0.7-0.4h0c-0.3-0.1-0.5-0.2-0.6-0.3c-0.2-0.1-0.4-0.2-0.6-0.3
		c-0.5-0.2-0.9-0.5-1.1-0.8c-0.3-0.3-0.4-0.7-0.4-1.1c0-0.4,0.1-0.7,0.3-1c0.2-0.3,0.5-0.5,0.9-0.7c0.4-0.2,0.9-0.3,1.5-0.3
		c0.4,0,0.8,0.1,1.2,0.2s0.7,0.3,1.1,0.5v1.3c-0.3-0.2-0.6-0.4-1-0.6c-0.4-0.1-0.8-0.2-1.2-0.2c-0.3,0-0.6,0.1-0.8,0.2
		c-0.2,0.1-0.3,0.3-0.3,0.5c0,0.2,0.1,0.4,0.2,0.5c0.2,0.1,0.4,0.3,0.8,0.5c0,0,0.1,0,0.1,0.1c0.4,0.2,0.8,0.4,1.2,0.5l0.1,0
		c0.3,0.1,0.5,0.3,0.7,0.4s0.3,0.3,0.5,0.5c0.1,0.2,0.2,0.5,0.2,0.8c0,0.4-0.1,0.8-0.3,1.1c-0.2,0.3-0.6,0.6-1,0.8s-1,0.3-1.6,0.3
		C460.7,484.7,460.2,484.7,459.8,484.6z"/>
	<path class="st0" d="M465.9,483.8c-0.6-0.6-0.9-1.5-0.9-2.8c0-0.8,0.1-1.4,0.4-2c0.3-0.6,0.6-1,1.1-1.3c0.5-0.3,1.1-0.5,1.9-0.5
		c0.4,0,0.8,0.1,1.3,0.2c0.4,0.1,0.8,0.3,1.2,0.5v1.4c-0.3-0.2-0.7-0.4-1.1-0.6c-0.4-0.1-0.8-0.2-1.1-0.2c-0.4,0-0.8,0.1-1.1,0.3
		c-0.3,0.2-0.5,0.4-0.7,0.8c-0.2,0.4-0.3,0.8-0.3,1.4c0,0.8,0.2,1.4,0.5,1.8s0.9,0.7,1.6,0.7c0.8,0,1.5-0.3,2.2-0.8v1.3
		c-0.6,0.5-1.5,0.7-2.5,0.7C467.4,484.7,466.5,484.4,465.9,483.8z"/>
	<path class="st0" d="M472.7,483.8c-0.6-0.6-0.9-1.5-0.9-2.8c0-0.7,0.1-1.4,0.4-1.9c0.2-0.6,0.6-1,1.1-1.3c0.5-0.3,1.2-0.5,1.9-0.5
		c1.1,0,1.9,0.3,2.5,0.9c0.6,0.6,0.9,1.6,0.9,2.8c0,0.7-0.1,1.4-0.4,1.9c-0.2,0.6-0.6,1-1.1,1.3s-1.2,0.5-1.9,0.5
		C474.2,484.7,473.3,484.4,472.7,483.8z M476.2,483.3c0.3-0.2,0.5-0.5,0.6-0.8s0.2-0.9,0.2-1.4c0-0.8-0.1-1.4-0.4-1.8
		c-0.3-0.5-0.8-0.7-1.4-0.7c-0.4,0-0.7,0.1-1,0.3c-0.3,0.2-0.5,0.5-0.6,0.8s-0.2,0.9-0.2,1.4c0,0.8,0.1,1.4,0.4,1.8s0.8,0.7,1.4,0.7
		C475.6,483.5,475.9,483.4,476.2,483.3z"/>
	<path class="st0" d="M480,477.5h1.5v1.2h0.1c0.6-1,1.4-1.5,2.4-1.5c0.7,0,1.2,0.2,1.6,0.7c0.4,0.4,0.6,1.1,0.6,2.1v4.5h-1.6v-3.9
		c0-1.3-0.4-1.9-1.3-1.9c-0.3,0-0.6,0.1-0.8,0.2c-0.3,0.1-0.5,0.4-0.7,0.7c-0.2,0.3-0.3,0.8-0.3,1.4v3.5H480V477.5z"/>
	<path class="st0" d="M488,477.5h1.5v1.2h0.1c0.6-1,1.4-1.5,2.4-1.5c0.7,0,1.2,0.2,1.6,0.7c0.4,0.4,0.6,1.1,0.6,2.1v4.5h-1.6v-3.9
		c0-1.3-0.4-1.9-1.3-1.9c-0.3,0-0.6,0.1-0.8,0.2c-0.3,0.1-0.5,0.4-0.7,0.7c-0.2,0.3-0.3,0.8-0.3,1.4v3.5H488V477.5z"/>
	<path class="st0" d="M496.4,483.8c-0.6-0.6-1-1.6-1-2.9c0-0.7,0.1-1.4,0.3-1.9s0.6-1,1.1-1.3s1.1-0.5,1.9-0.5c1,0,1.8,0.3,2.3,0.8
		c0.6,0.5,0.8,1.4,0.8,2.5v0.9H497c0,0.7,0.2,1.2,0.6,1.6s1,0.6,1.8,0.6c0.4,0,0.8-0.1,1.2-0.2c0.4-0.1,0.8-0.3,1.2-0.6v1.2
		c-0.3,0.2-0.7,0.4-1.2,0.5c-0.4,0.1-0.9,0.2-1.5,0.2C498,484.7,497.1,484.4,496.4,483.8z M500.1,478.9c-0.3-0.3-0.7-0.5-1.3-0.5
		c-0.6,0-1,0.2-1.3,0.5c-0.3,0.3-0.5,0.8-0.5,1.4h3.5C500.5,479.7,500.4,479.3,500.1,478.9z"/>
	<path class="st0" d="M503.8,483.8c-0.6-0.6-0.9-1.5-0.9-2.8c0-0.8,0.1-1.4,0.4-2c0.3-0.6,0.6-1,1.1-1.3c0.5-0.3,1.1-0.5,1.9-0.5
		c0.4,0,0.8,0.1,1.3,0.2c0.4,0.1,0.8,0.3,1.2,0.5v1.4c-0.3-0.2-0.7-0.4-1.1-0.6c-0.4-0.1-0.8-0.2-1.1-0.2c-0.4,0-0.8,0.1-1.1,0.3
		c-0.3,0.2-0.5,0.4-0.7,0.8c-0.2,0.4-0.3,0.8-0.3,1.4c0,0.8,0.2,1.4,0.5,1.8c0.4,0.4,0.9,0.7,1.6,0.7c0.8,0,1.5-0.3,2.2-0.8v1.3
		c-0.6,0.5-1.5,0.7-2.5,0.7C505.3,484.7,504.5,484.4,503.8,483.8z"/>
	<path class="st0" d="M511.2,484.3c-0.3-0.3-0.5-0.7-0.6-1.1c-0.1-0.4-0.1-1-0.1-1.7v0v-2.7h-1.2v-0.6c0.4-0.2,0.8-0.5,1.1-0.9
		c0.3-0.3,0.6-0.8,0.8-1.4c0,0,0,0,0-0.1h0.8v1.7h2v1.3h-2v2.6c0,0.5,0,0.9,0,1.2c0,0.3,0.1,0.5,0.3,0.7c0.1,0.2,0.4,0.3,0.7,0.3
		c0.2,0,0.3,0,0.5-0.1c0.2-0.1,0.3-0.1,0.5-0.2v1.2c-0.1,0.1-0.3,0.1-0.6,0.2c-0.2,0.1-0.5,0.1-0.8,0.1
		C512.1,484.7,511.6,484.6,511.2,484.3z"/>
</g>
</svg>
