<svg xmlns="http://www.w3.org/2000/svg" viewBox="0 0 1080 179.13">
  <path d="M646.81 179.13c35.97 0 59.06-20.94 59.06-47.96 0-18.43-11.1-23.26-19.86-27.92-5.55-2.68-11.45-5.37-17.36-8.05-10.92-4.83-20.4-9.66-20.4-16.29 0-7.7 8.95-12.71 21.3-12.71 14.32 0 28.28 5.55 37.94 14.5l5.37-29.53c-11.63-8.59-27.2-12.35-43.67-12.35-36.87 0-61.92 18.97-61.92 44.74 0 16.29 10.2 25.41 22.37 31.32 5.01 2.51 15.75 6.62 21.3 8.95 7.7 3.4 13.96 6.26 13.96 13.24 0 7.87-6.98 12.35-17.36 12.35-18.97 0-44.2-11.81-67.29-37.22 4.47 4.83 6.44 12.53 6.44 19.51s-2.51 16.29-5.73 21.65c18.79 16.29 40.62 25.77 65.86 25.77Zm-176.99-12.17 5.19-29.71c13.24 8.95 28.28 14.32 42.95 14.32s24.52-5.55 24.52-14.5c0-6.98-6.26-9.84-13.96-13.24-5.55-2.33-16.29-6.44-21.3-8.95-12.17-5.91-22.37-15.03-22.37-31.32 0-25.23 25.23-44.74 58.34-44.74s47.42 10.74 66.21 24.88c-3.04 4.83-5.37 11.99-5.37 19.33S605.1 95.2 609.4 102c-17.36-19.51-36.51-35.79-62.28-35.79-12.35 0-21.3 5.01-21.3 12.71 0 6.62 9.48 11.45 20.22 16.29 6.08 2.68 11.81 5.37 17.36 8.05 8.95 4.65 20.04 9.48 20.04 27.92 0 28.45-26.31 47.96-68.18 47.96-17.54 0-35.25-3.4-45.46-12.17ZM7.26 85.78l5.92-33.92H0l.59-3.41c10.37-4.44 18.07-11.7 24-24.73h4.74l-3.41 19.11h21.92l-1.63 9.03H24.29l-5.77 32.43c-2.82 15.7-4.3 25.63 5.77 25.63 3.85 0 7.56-1.48 11.26-3.85l-1.78 10.22c-2.07 1.18-7.4 2.96-13.33 2.96-19.11 0-16-17.47-13.18-33.47Zm58.68-69.61h11.11l-6.96 39.54h.59c6.96-9.18 16.14-15.41 28.14-15.41 14.51 0 22.66 8.59 18.81 30.51l-8.15 46.06H98.37l7.4-42.21c2.52-14.66-.3-24.44-12.29-24.44-8.74 0-23.4 5.63-27.69 29.47l-6.52 37.17H48.16L65.94 16.15Zm64.91 72.72c0-26.51 15.85-48.58 41.91-48.58 18.51 0 29.18 11.11 25.17 33.47l-1.63 9.04h-54.06c-2.82 16.44 3.55 27.1 22.36 27.1 8 0 15.26-2.23 26.51-8.74l-1.77 10.22c-7.11 4.74-16.44 7.85-28.29 7.85-18.96 0-30.21-8-30.21-30.36Zm56.28-15.11c2.52-14.22-1.48-24.29-16.44-24.29-12.74 0-23.85 7.26-26.81 24.29h43.25Zm18.27 93.07 5.26-29.73c13.16 8.95 28.16 14.21 42.9 14.21s24.47-5.53 24.47-14.47c0-6.85-6.32-9.74-13.95-13.16-5.53-2.37-16.32-6.58-21.31-8.95-12.11-6.05-22.37-15-22.37-31.32 0-25.26 24.2-44.74 61.84-44.74 16.57 0 32.1 3.69 43.68 12.37l-5.26 29.47c-9.74-8.95-23.69-14.47-37.9-14.47-12.36 0-21.32 4.99-21.32 12.63 0 6.58 9.48 11.31 20.27 16.32 6.05 2.62 11.84 5.26 17.37 8.15 8.95 4.48 20 9.47 20 27.9 0 28.41-26.32 47.89-68.16 47.89-17.64 0-35.26-3.42-45.52-12.11Zm129.81-43.42c0-47.89 30.54-84.74 80.27-84.74 36.32 0 57.9 19.48 49.73 63.95l-2.89 16.84h-88.16c-3.16 18.69 6.31 31.05 33.94 31.05 14.22 0 29.22-3.15 47.11-11.84l-5.26 28.95c-12.11 6.31-30.01 11.31-52.9 11.31-39.74 0-61.85-14.73-61.85-55.53Zm97.11-28.16c3.16-17.37-2.11-29.21-21.05-29.21-15.79 0-29.21 8.15-32.89 29.21h53.95Zm330.49-50.53c6.32 0 13.16-.79 20.27-2.1l-23.42 132.11h-39.48l23.16-132.11c5.79 1.05 12.11 2.1 19.47 2.1ZM770.71 0c13.42 0 18.69 4.22 18.69 11.85 0 13.68-8.42 20.53-24.21 20.53-12.11 0-18.42-3.43-18.42-12.11C746.77 6.85 754.92 0 770.72 0Zm20.82 124.22c0-48.16 30.79-85.53 83.16-85.53 33.16 0 54.74 14.74 54.74 55.01 0 48.16-30.79 85.26-83.16 85.26-33.69 0-54.74-14.73-54.74-54.74Zm60.53 26.06c23.95 0 38.42-26.32 38.42-53.42 0-18.43-6.58-29.22-21.85-29.22-23.95 0-38.15 26.31-38.15 53.69 0 18.16 6.31 28.95 21.58 28.95Zm109.3-107.11h38.68l-3.94 22.9h1.32c12.63-16.32 28.68-27.37 49.73-27.37 23.95 0 37.63 13.95 31.32 49.75l-15.27 86.31h-39.47l12.63-72.11c3.16-17.37-.52-29.22-15-29.22-11.84 0-27.11 7.64-31.84 34.75l-11.84 66.58H938.2l23.16-131.58Z" style="fill:#f2622e;stroke-width:0"/>
</svg>