<svg xmlns="http://www.w3.org/2000/svg" xml:space="preserve" viewBox="0 0 150 86.6">
  <path d="M109.2 86.6c22.2 0 36.4-12.9 36.4-29.6 0-11.4-6.9-14.4-12.3-17.2-3.4-1.7-7.1-3.3-10.7-5-6.7-3-12.6-6-12.6-10.1 0-4.8 5.5-7.8 13.1-7.8 8.8 0 17.5 3.4 23.4 8.9L150 7.6C142.8 2.3 133.2 0 123 0c-22.8 0-38.2 11.7-38.2 27.6 0 10.1 6.3 15.7 13.8 19.3 3.1 1.5 9.7 4.1 13.1 5.5 4.8 2.1 8.6 3.9 8.6 8.2 0 4.9-4.3 7.6-10.7 7.6-11.7 0-27.3-7.3-41.5-23 2.8 3 4 7.7 4 12s-1.5 10.1-3.5 13.4c11.6 10.1 25.1 16 40.6 16zM0 79.1l3.2-18.3c8.2 5.5 17.5 8.8 26.5 8.8 9.1 0 15.1-3.4 15.1-8.9 0-4.3-3.9-6.1-8.6-8.2-3.4-1.4-10.1-4-13.1-5.5-7.5-3.6-13.8-9.3-13.8-19.3C9.3 12 24.9 0 45.3 0s29.3 6.6 40.9 15.4c-1.9 3-3.3 7.4-3.3 11.9s.7 7.5 3.3 11.7C75.4 27 63.6 16.9 47.7 16.9c-7.6 0-13.1 3.1-13.1 7.8 0 4.1 5.9 7.1 12.5 10.1 3.8 1.7 7.3 3.3 10.7 5 5.5 2.9 12.4 5.9 12.4 17.2 0 17.6-16.2 29.6-42.1 29.6-10.9 0-21.8-2.1-28.1-7.5z" style="fill:#fff"/>
</svg>