<svg xmlns="http://www.w3.org/2000/svg" xml:space="preserve" id="Layer_1" x="0" y="0" style="enable-background:new 0 0 246 41" version="1.1" viewBox="0 0 246 41">
  <style>
    .st0{fill:#f2622e}
  </style>
  <path d="M147.3 41c8.2 0 13.5-4.8 13.5-11 0-4.2-2.5-5.3-4.5-6.4-1.3-.6-2.6-1.2-4-1.8-2.5-1.1-4.6-2.2-4.6-3.7 0-1.8 2-2.9 4.9-2.9 3.3 0 6.4 1.3 8.6 3.3l1.2-6.8c-2.6-2-6.2-2.8-9.9-2.8-8.4 0-14.1 4.3-14.1 10.2 0 3.7 2.3 5.8 5.1 7.2 1.1.6 3.6 1.5 4.9 2 1.8.8 3.2 1.4 3.2 3 0 1.8-1.6 2.8-4 2.8-4.3 0-10.1-2.7-15.3-8.5 1 1.1 1.5 2.9 1.5 4.5s-.6 3.7-1.3 5c4.1 3.7 9.1 5.9 14.8 5.9zM107 38.2l1.2-6.8c3 2 6.4 3.3 9.8 3.3 3.3 0 5.6-1.3 5.6-3.3 0-1.6-1.4-2.3-3.2-3-1.3-.5-3.7-1.5-4.9-2-2.8-1.4-5.1-3.4-5.1-7.2 0-5.8 5.7-10.2 13.3-10.2 7.5 0 10.8 2.5 15.1 5.7-.7 1.1-1.2 2.7-1.2 4.4s.2 2.8 1.2 4.3c-4-4.5-8.3-8.2-14.2-8.2-2.8 0-4.9 1.1-4.9 2.9 0 1.5 2.2 2.6 4.6 3.7 1.4.6 2.7 1.2 4 1.8 2 1.1 4.6 2.2 4.6 6.4 0 6.5-6 11-15.5 11-4 0-8.1-.8-10.4-2.8zM1.7 19.6 3 11.9H0l.1-.8c2.4-1 4.1-2.7 5.5-5.7h1.1l-.8 4.4h5l-.4 2.1h-5l-1.3 7.4c-.6 3.6-1 5.9 1.3 5.9.9 0 1.7-.3 2.6-.9l-.4 2.3c-.5.3-1.7.7-3 .7-4.4 0-3.7-4-3-7.7zM15 3.7h2.5L16 12.8h.1c1.6-2.1 3.7-3.5 6.4-3.5 3.3 0 5.2 2 4.3 7l-1.9 10.5h-2.5l1.7-9.7c.6-3.4-.1-5.6-2.8-5.6-2 0-5.3 1.3-6.3 6.7l-1.5 8.5H11l4-23zM29.8 20.3c0-6.1 3.6-11.1 9.5-11.1 4.2 0 6.6 2.5 5.7 7.7l-.3 2.1H32.4c-.6 3.8.8 6.2 5.1 6.2 1.8 0 3.5-.5 6-2l-.4 2.3c-1.6 1.1-3.7 1.8-6.4 1.8-4.3 0-6.9-1.8-6.9-7zm12.8-3.4c.6-3.3-.3-5.6-3.7-5.6-2.9 0-5.4 1.7-6.1 5.6h9.8zM46.8 38.2l1.2-6.8c3 2 6.4 3.3 9.8 3.3 3.4 0 5.6-1.3 5.6-3.3 0-1.6-1.4-2.2-3.2-3-1.3-.5-3.7-1.5-4.9-2-2.8-1.4-5.1-3.4-5.1-7.2C50.2 13.4 55.7 9 64.3 9c3.8 0 7.3.8 9.9 2.8L73 18.4c-2.2-2-5.4-3.3-8.6-3.3-2.8 0-4.9 1.1-4.9 2.9 0 1.5 2.2 2.6 4.6 3.7 1.4.6 2.7 1.2 4 1.9 2 1 4.6 2.2 4.6 6.4 0 6.5-6 11-15.5 11-4.1 0-8.1-.8-10.4-2.8zM76.4 28.3c0-11 7-19.4 18.3-19.4 8.3 0 13.2 4.5 11.3 14.6l-.7 3.9H85.2c-.7 4.3 1.4 7.1 7.7 7.1 3.2 0 6.7-.7 10.7-2.7l-1.2 6.6c-2.8 1.4-6.8 2.6-12 2.6-9 0-14-3.4-14-12.7zm22.1-6.5c.7-4-.5-6.7-4.8-6.7-3.6 0-6.7 1.9-7.5 6.7h12.3zM173.8 10.2c1.4 0 3-.2 4.6-.5L173 40h-9l5.3-30.2c1.3.2 2.8.4 4.5.4zM175.6 0c3.1 0 4.3 1 4.3 2.7 0 3.1-1.9 4.7-5.5 4.7-2.8 0-4.2-.8-4.2-2.8-.1-3 1.8-4.6 5.4-4.6zM180.3 28.4c0-11 7-19.6 18.9-19.6 7.6 0 12.5 3.4 12.5 12.6 0 11-7 19.5-18.9 19.5-7.7.1-12.5-3.3-12.5-12.5zm13.8 6c5.5 0 8.8-6 8.8-12.2 0-4.2-1.5-6.7-5-6.7-5.5 0-8.7 6-8.7 12.3 0 4.1 1.4 6.6 4.9 6.6zM219 9.9h8.8l-.9 5.2h.3c2.9-3.7 6.5-6.3 11.3-6.3 5.5 0 8.6 3.2 7.1 11.4L242.2 40h-9l2.9-16.5c.7-4-.1-6.7-3.4-6.7-2.7 0-6.2 1.7-7.3 8L222.7 40h-9L219 9.9z" class="st0"/>
</svg>