<svg xmlns="http://www.w3.org/2000/svg" width="246" height="41" fill="none">
  <g fill="#fff" clip-path="url(#a)">
    <path d="M147.329 41c8.193 0 13.453-4.793 13.453-10.977 0-4.219-2.529-5.324-4.524-6.39a183.115 183.115 0 0 0-3.954-1.843c-2.488-1.106-4.647-2.211-4.647-3.729 0-1.762 2.039-2.909 4.852-2.909 3.261 0 6.441 1.27 8.642 3.319l1.223-6.759c-2.649-1.966-6.196-2.827-9.947-2.827-8.399 0-14.104 4.342-14.104 10.24 0 3.73 2.323 5.817 5.095 7.17 1.141.574 3.588 1.514 4.852 2.048 1.754.778 3.179 1.433 3.179 3.03 0 1.802-1.589 2.827-3.954 2.827-4.321 0-10.068-2.703-15.327-8.52 1.018 1.106 1.467 2.869 1.467 4.466 0 1.598-.572 3.729-1.305 4.956C136.61 38.83 141.582 41 147.331 41h-.002Zm-40.314-2.785 1.182-6.8c3.016 2.048 6.441 3.277 9.783 3.277 3.341 0 5.585-1.27 5.585-3.319 0-1.598-1.426-2.252-3.18-3.03-1.264-.534-3.71-1.474-4.852-2.049-2.772-1.352-5.095-3.44-5.095-7.169 0-5.774 5.747-10.24 13.289-10.24 7.541 0 10.801 2.459 15.081 5.695-.693 1.105-1.223 2.744-1.223 4.424 0 1.68.243 2.786 1.223 4.342-3.954-4.465-8.316-8.192-14.186-8.192-2.813 0-4.852 1.147-4.852 2.91 0 1.515 2.159 2.62 4.606 3.728 1.385.613 2.69 1.23 3.954 1.843 2.039 1.064 4.565 2.17 4.565 6.39 0 6.512-5.993 10.977-15.53 10.977-3.995 0-8.029-.778-10.355-2.785l.005-.002ZM1.654 19.634l1.348-7.764H0l.134-.78c2.362-1.018 4.116-2.68 5.467-5.66h1.08l-.777 4.373h4.993l-.371 2.067H5.533l-1.315 7.423c-.642 3.593-.979 5.866 1.315 5.866.877 0 1.722-.339 2.564-.881l-.405 2.339c-.471.27-1.686.677-3.036.677-4.353 0-3.645-3.998-3.002-7.66ZM15.02 3.701h2.53l-1.585 9.05h.134c1.586-2.101 3.677-3.527 6.41-3.527 3.305 0 5.161 1.966 4.284 6.983L24.937 26.75h-2.53l1.685-9.662c.574-3.355-.068-5.593-2.8-5.593-1.99 0-5.33 1.288-6.307 6.745L13.5 26.747h-2.53l4.05-23.05V3.7Zm14.785 16.645c0-6.068 3.61-11.12 9.546-11.12 4.216 0 6.647 2.543 5.733 7.661l-.371 2.07H32.399c-.642 3.762.809 6.202 5.093 6.202 1.823 0 3.476-.51 6.039-2l-.404 2.339c-1.619 1.085-3.744 1.796-6.443 1.796-4.319 0-6.881-1.83-6.881-6.948h.002Zm12.82-3.459c.573-3.255-.338-5.56-3.746-5.56-2.901 0-5.432 1.662-6.106 5.56h9.851Zm4.161 21.303 1.198-6.805c2.997 2.048 6.414 3.252 9.771 3.252 3.358 0 5.574-1.266 5.574-3.312 0-1.568-1.44-2.23-3.177-3.012-1.26-.543-3.718-1.506-4.854-2.049-2.759-1.384-5.096-3.433-5.096-7.168 0-5.782 5.513-10.24 14.086-10.24 3.774 0 7.312.844 9.95 2.83l-1.199 6.746c-2.218-2.048-5.396-3.312-8.633-3.312-2.815 0-4.856 1.142-4.856 2.89 0 1.507 2.16 2.59 4.617 3.736 1.378.6 2.697 1.204 3.957 1.866 2.038 1.025 4.555 2.167 4.555 6.386 0 6.502-5.995 10.96-15.525 10.96-4.018 0-8.031-.782-10.368-2.771v.002Zm29.567-9.939c0-10.961 6.957-19.395 18.284-19.395 8.273 0 13.188 4.458 11.327 14.637l-.658 3.854h-20.08c-.72 4.278 1.437 7.107 7.73 7.107 3.24 0 6.656-.721 10.731-2.71l-1.198 6.626c-2.759 1.444-6.836 2.589-12.05 2.589-9.052 0-14.088-3.372-14.088-12.71l.002.002Zm22.12-6.445c.72-3.976-.48-6.686-4.795-6.686-3.596 0-6.653 1.865-7.492 6.686h12.29-.003Zm75.278-11.566c1.44 0 2.998-.18 4.617-.48l-5.334 30.238h-8.993l5.275-30.238c1.319.24 2.759.48 4.435.48Zm1.8-10.24c3.056 0 4.257.966 4.257 2.712 0 3.131-1.918 4.7-5.515 4.7-2.758 0-4.195-.786-4.195-2.773 0-3.071 1.856-4.639 5.455-4.639h-.002Zm4.742 28.432c0-11.023 7.013-19.576 18.942-19.576 7.553 0 12.469 3.373 12.469 12.59 0 11.023-7.014 19.515-18.942 19.515-7.674 0-12.469-3.371-12.469-12.529Zm13.787 5.965c5.456 0 8.752-6.024 8.752-12.227 0-4.219-1.499-6.688-4.977-6.688-5.456 0-8.69 6.022-8.69 12.288 0 4.157 1.437 6.627 4.915 6.627ZM218.976 9.88h8.811l-.898 5.242h.301c2.877-3.735 6.533-6.264 11.328-6.264 5.455 0 8.571 3.193 7.134 11.387L242.173 40h-8.99l2.877-16.505c.72-3.976-.119-6.688-3.417-6.688-2.697 0-6.175 1.749-7.252 7.954L222.694 40h-8.993l5.275-30.117v-.002Z"/>
  </g>
  <defs>
    <clipPath id="a">
      <path fill="#fff" d="M0 0h246v41H0z"/>
    </clipPath>
  </defs>
</svg>