<svg xmlns="http://www.w3.org/2000/svg" width="246" height="41" viewBox="0 0 246 41" fill="none">
  <g clip-path="url(#clip0_1_40)">
    <path d="M147.329 41C155.522 41 160.782 36.2072 160.782 30.0227C160.782 25.8044 158.253 24.6989 156.258 23.6323C154.994 23.0189 153.65 22.4032 152.304 21.7898C149.816 20.6842 147.657 19.5787 147.657 18.0612C147.657 16.2988 149.696 15.1521 152.509 15.1521C155.77 15.1521 158.95 16.4224 161.151 18.4709L162.374 11.712C159.725 9.74588 156.178 8.88528 152.427 8.88528C144.028 8.88528 138.323 13.2272 138.323 19.1255C138.323 22.8541 140.646 24.9415 143.418 26.2942C144.559 26.8687 147.006 27.8094 148.27 28.3427C150.024 29.1209 151.449 29.7755 151.449 31.3731C151.449 33.1745 149.86 34.1999 147.495 34.1999C143.174 34.1999 137.427 31.4967 132.168 25.6808C133.186 26.7863 133.635 28.5487 133.635 30.1463C133.635 31.7439 133.063 33.8748 132.33 35.1017C136.61 38.8302 141.582 41 147.331 41H147.329ZM107.015 38.2145L108.197 31.4143C111.213 33.4628 114.638 34.692 117.98 34.692C121.321 34.692 123.565 33.4216 123.565 31.3731C123.565 29.7755 122.139 29.1209 120.385 28.3427C119.121 27.8094 116.675 26.8687 115.533 26.2942C112.761 24.9415 110.438 22.8541 110.438 19.1255C110.438 13.3508 116.185 8.88528 123.727 8.88528C131.268 8.88528 134.528 11.3435 138.808 14.5799C138.115 15.6854 137.585 17.3242 137.585 19.0042C137.585 20.6842 137.828 21.7898 138.808 23.3462C134.854 18.8806 130.492 15.1544 124.622 15.1544C121.809 15.1544 119.77 16.3011 119.77 18.0635C119.77 19.5787 121.929 20.6842 124.376 21.792C125.761 22.4055 127.066 23.0212 128.33 23.6346C130.369 24.6989 132.895 25.8044 132.895 30.025C132.895 36.5368 126.902 41.0023 117.365 41.0023C113.37 41.0023 109.336 40.2241 107.01 38.2168L107.015 38.2145Z" fill="white"/>
    <path d="M1.65367 19.6337L3.00211 11.8699H0L0.134389 11.0894C2.49644 10.0732 4.25033 8.41149 5.60106 5.42913H6.68072L5.904 9.80311H10.8969L10.5256 11.8699H5.53272L4.21844 19.2926C3.57611 22.8861 3.239 25.1589 5.53272 25.1589C6.40967 25.1589 7.25472 24.8202 8.0975 24.2777L7.69206 26.6169C7.22056 26.887 6.0065 27.2944 4.65578 27.2944C0.302944 27.2944 1.01133 23.2958 1.65367 19.6337Z" fill="white"/>
    <path d="M15.0196 3.70105H17.5502L15.9649 12.7511H16.0993C17.6846 10.65 19.7756 9.22403 22.5089 9.22403C25.814 9.22403 27.6704 11.1901 26.7934 16.2073L24.9371 26.7497H22.4064L24.092 17.0885C24.666 13.733 24.0237 11.4946 21.2926 11.4946C19.3018 11.4946 15.9626 12.7832 14.9854 18.2398L13.5003 26.7474H10.9697L15.0196 3.69648V3.70105Z" fill="white"/>
    <path d="M29.8048 20.3455C29.8048 14.2778 33.415 9.22631 39.3509 9.22631C43.5671 9.22631 45.9975 11.7692 45.0841 16.8871L44.7128 18.9562H32.3992C31.7568 22.719 33.2078 25.1589 37.4923 25.1589C39.3145 25.1589 40.9682 24.6485 43.5307 23.1585L43.1275 25.4977C41.508 26.5826 39.3828 27.2944 36.6837 27.2944C32.365 27.2944 29.8025 25.4633 29.8025 20.3455H29.8048ZM42.6241 16.8871C43.1981 13.6323 42.287 11.3275 38.8794 11.3275C35.9775 11.3275 33.4469 12.9892 32.7727 16.8871H42.6241Z" fill="white"/>
    <path d="M46.7856 38.1893L47.9838 31.3846C50.9813 33.4331 54.398 34.637 57.7554 34.637C61.1129 34.637 63.3291 33.3713 63.3291 31.3251C63.3291 29.7572 61.8896 29.0957 60.1516 28.313C58.892 27.7705 56.4343 26.8069 55.2977 26.2644C52.5393 24.8797 50.2023 22.8312 50.2023 19.0958C50.2023 13.3142 55.7145 8.85552 64.2881 8.85552C68.0624 8.85552 71.5998 9.7001 74.2374 11.6868L73.0393 18.432C70.8208 16.3835 67.6433 15.1201 64.4065 15.1201C61.5912 15.1201 59.5503 16.2622 59.5503 18.0109C59.5503 19.5169 61.7096 20.5996 64.1674 21.7463C65.5454 22.3459 66.8643 22.9502 68.1239 23.6117C70.1625 24.6371 72.6794 25.7792 72.6794 29.9975C72.6794 36.5001 66.6843 40.9588 57.1541 40.9588C53.1361 40.9588 49.1226 40.176 46.7856 38.187V38.1893Z" fill="white"/>
    <path d="M76.3533 28.2512C76.3533 17.2899 83.3097 8.85552 94.6371 8.85552C102.91 8.85552 107.825 13.3142 105.964 23.4927L105.306 27.3471H85.2253C84.5055 31.6249 86.6626 34.4539 92.9561 34.4539C96.1951 34.4539 99.6117 33.7329 103.687 31.7439L102.489 38.3701C99.7302 39.8144 95.653 40.9588 90.4391 40.9588C81.3872 40.9588 76.3511 37.5873 76.3511 28.2489L76.3533 28.2512ZM98.4729 21.8058C99.1926 17.8301 97.9922 15.1201 93.6781 15.1201C90.0815 15.1201 87.0247 16.9855 86.1865 21.8058H98.4751H98.4729Z" fill="white"/>
    <path d="M173.751 10.2403C175.191 10.2403 176.749 10.0595 178.368 9.75961L173.034 39.9975H164.041L169.316 9.75961C170.635 9.99994 172.075 10.2403 173.751 10.2403ZM175.551 0C178.607 0 179.808 0.965891 179.808 2.71228C179.808 5.84341 177.89 7.41127 174.293 7.41127C171.535 7.41127 170.098 6.62619 170.098 4.63948C170.098 1.56786 171.954 0 175.553 0L175.551 0Z" fill="white"/>
    <path d="M180.293 28.432C180.293 17.4089 187.306 8.85552 199.235 8.85552C206.788 8.85552 211.704 12.2293 211.704 21.4464C211.704 32.4695 204.69 40.9611 192.762 40.9611C185.088 40.9611 180.293 37.5896 180.293 28.432ZM194.08 34.3967C199.536 34.3967 202.832 28.3725 202.832 22.1697C202.832 17.9514 201.333 15.4817 197.855 15.4817C192.399 15.4817 189.165 21.5037 189.165 27.7705C189.165 31.927 190.602 34.3967 194.08 34.3967Z" fill="white"/>
    <path d="M218.976 9.88092H227.787L226.889 15.1224H227.19C230.067 11.387 233.723 8.85781 238.518 8.85781C243.973 8.85781 247.089 12.0507 245.652 20.2448L242.173 39.9998H233.183L236.06 23.4949C236.78 19.5192 235.941 16.807 232.643 16.807C229.946 16.807 226.468 18.5556 225.391 24.7607L222.694 39.9998H213.701L218.976 9.88321V9.88092Z" fill="white"/>
  </g>
  <defs>
    <clipPath id="clip0_1_40">
      <rect width="246" height="41" fill="white"/>
    </clipPath>
  </defs>
</svg>