<?xml version="1.0" encoding="utf-8"?>
<!-- Generator: Adobe Illustrator 28.0.0, SVG Export Plug-In . SVG Version: 6.00 Build 0)  -->
<svg version="1.1" id="Layer_2_00000036961368387746831160000008999718422404913806_"
	 xmlns="http://www.w3.org/2000/svg" xmlns:xlink="http://www.w3.org/1999/xlink" x="0px" y="0px" viewBox="0 0 150 86.6" xml:space="preserve">
<style type="text/css">
	.st0{fill:#FFF;}
</style>
<path class="st0" d="M109.2,86.6c22.2,0,36.4-12.9,36.4-29.6c0-11.4-6.9-14.4-12.3-17.2c-3.4-1.7-7.1-3.3-10.7-5
	c-6.7-3-12.6-6-12.6-10.1c0-4.8,5.5-7.8,13.1-7.8c8.8,0,17.5,3.4,23.4,8.9L150,7.6C142.8,2.3,133.2,0,123,0
	c-22.8,0-38.2,11.7-38.2,27.6c0,10.1,6.3,15.7,13.8,19.3c3.1,1.5,9.7,4.1,13.1,5.5c4.8,2.1,8.6,3.9,8.6,8.2c0,4.9-4.3,7.6-10.7,7.6
	c-11.7,0-27.3-7.3-41.5-23c2.8,3,4,7.7,4,12s-1.5,10.1-3.5,13.4C80.2,80.7,93.7,86.6,109.2,86.6L109.2,86.6z M0,79.1l3.2-18.3
	c8.2,5.5,17.5,8.8,26.5,8.8c9.1,0,15.1-3.4,15.1-8.9c0-4.3-3.9-6.1-8.6-8.2c-3.4-1.4-10.1-4-13.1-5.5c-7.5-3.6-13.8-9.3-13.8-19.3
	C9.3,12,24.9,0,45.3,0c20.4,0,29.3,6.6,40.9,15.4c-1.9,3-3.3,7.4-3.3,11.9s0.7,7.5,3.3,11.7C75.4,27,63.6,16.9,47.7,16.9
	c-7.6,0-13.1,3.1-13.1,7.8c0,4.1,5.9,7.1,12.5,10.1c3.8,1.7,7.3,3.3,10.7,5c5.5,2.9,12.4,5.9,12.4,17.2c0,17.6-16.2,29.6-42.1,29.6
	C17.2,86.6,6.3,84.5,0,79.1L0,79.1z"/>
</svg>
